# ProBuilder 5.2.2
# https://unity3d.com/unity/features/worldbuilding/probuilder
# 15.10.2024 12.21.57

mtllib ./Car_-_Truck.mtl
o Car - Truck

g Car - Truck
v -22.20761 0.4320447 -28.76503
v -22.75907 1.251643 -28.76503
v -23.19719 0.4320447 -28.76503
v -22.08663 0.7135347 -29.10678
v -21.82668 0.6670887 -29.05003
v -21.75714 0.7206478 -29.14938
v -21.81772 0.7670487 -29.05751
v -21.83055 0.6350008 -28.47433
v -21.61352 0.7083627 -28.50602
v -21.77949 0.8081787 -28.48745
v -21.59942 0.7083627 -28.45242
v -21.82548 0.6350008 -28.41981
v -21.77503 0.8050047 -28.4243
v -27.00656 0.6893337 -29.06326
v -27.3355 0.7634007 -29.1275
v -27.35951 0.6699237 -29.18913
v -27.20676 0.6871077 -29.06586
v -27.17557 0.6681927 -28.40502
v -27.38262 0.6367227 -28.43726
v -27.36741 0.7823967 -28.45528
v -27.37753 0.6367227 -28.49246
v -27.17261 0.6664317 -28.46795
v -27.36783 0.7826457 -28.51394
v -22.20761 0.4320447 -27.21769
v -23.19719 0.4320447 -27.21769
v -22.75907 1.251643 -27.21769
v -22.08663 0.7135347 -26.87593
v -21.75714 0.7206478 -26.83334
v -21.82668 0.6670887 -26.93268
v -21.81772 0.7670487 -26.9252
v -21.83055 0.6350008 -27.50838
v -21.77949 0.8081787 -27.49526
v -21.61352 0.7083627 -27.47669
v -21.59942 0.7083627 -27.53029
v -21.77503 0.8050047 -27.55842
v -21.82548 0.6350008 -27.5629
v -27.06478 0.6491308 -26.91946
v -27.35951 0.6699237 -26.79359
v -27.3355 0.7634007 -26.85522
v -27.20676 0.6871077 -26.91685
v -27.17557 0.6681927 -27.5777
v -27.36741 0.7823967 -27.52743
v -27.38262 0.6367227 -27.54545
v -27.37753 0.6367227 -27.49026
v -27.36783 0.7826457 -27.46878
v -27.17261 0.6664317 -27.51476
v -26.13989 1.394523 -29.03313
v -27.41403 1.394523 -29.02178
v -27.41403 0.8101497 -29.15814
v -26.56794 0.9333177 -29.15814
v -27.06462 0.6021388 -29.02178
v -26.56794 0.5462397 -29.09379
v -25.55333 0.9333177 -29.15814
v -25.55333 0.4320447 -29.09379
v -25.01887 1.394523 -29.03313
v -23.19719 0.9333177 -29.15814
v -23.19719 0.4320447 -29.09379
v -23.34442 1.394523 -29.03313
v -22.75908 1.375083 -29.015
v -24.08763 2.049339 -28.82821
v -25.01887 2.049339 -28.82821
v -22.20761 0.9333177 -29.15814
v -22.20761 0.4320447 -29.09379
v -22.37197 1.347357 -29.01484
v -21.78791 1.299567 -28.98964
v -21.78448 0.9333177 -29.07434
v -21.82844 0.6562557 -29.05003
v -21.96216 0.4320447 -29.01914
v -26.13989 1.394523 -28.76503
v -26.56794 0.5462397 -28.76503
v -25.55333 0.4320447 -28.76503
v -25.55333 0.4320447 -27.99136
v -23.19719 0.4320447 -27.99136
v -27.06462 0.6021388 -27.99136
v -26.56794 0.5462397 -27.21769
v -27.06462 0.6021388 -26.96094
v -26.56794 0.5462397 -26.88893
v -25.55333 0.4320447 -27.21769
v -25.55333 0.4320447 -26.88893
v -23.19719 0.4320447 -26.88893
v -21.88063 0.4320447 -27.99136
v -21.96216 0.4320447 -26.96358
v -22.20761 0.4320447 -26.88893
v -27.41403 0.8101497 -27.99136
v -27.41403 1.394523 -27.99136
v -27.41403 0.8101497 -26.82457
v -27.41403 1.394523 -26.96094
v -24.04205 2.119347 -27.99136
v -25.01887 2.124339 -27.99136
v -25.01887 2.049339 -27.1545
v -24.08763 2.049339 -27.1545
v -23.29659 1.431426 -27.99136
v -23.34442 1.394523 -26.94959
v -23.70067 1.398669 -29.03183
v -23.7019 1.410978 -29.20038
v -23.68859 1.570482 -29.17224
v -23.68774 1.561962 -28.98073
v -21.74701 0.6605787 -27.99589
v -21.5603 0.7173837 -27.99613
v -21.71862 0.7670487 -27.99589
v -27.33947 0.7657588 -27.99136
v -27.35954 0.6692787 -27.99136
v -27.20641 0.6865527 -27.99136
v -25.01887 1.394523 -28.76501
v -25.01887 1.394523 -27.99136
v -25.01887 1.394523 -27.2177
v -25.01887 1.394523 -26.94959
v -27.1116 1.394523 -28.75368
v -27.1116 1.394523 -27.99136
v -27.1116 1.394523 -27.22904
v -26.13989 1.394523 -26.94959
v -26.13989 1.394523 -27.21769
v -27.1116 1.082424 -27.99136
v -27.1116 1.082424 -28.75368
v -26.13989 1.082424 -28.76503
v -25.01887 1.082424 -28.76503
v -25.01887 1.082424 -27.99136
v -26.13989 1.082424 -27.99136
v -27.1116 1.082424 -27.22904
v -26.13989 1.082424 -27.21769
v -25.01887 1.082424 -27.21769
v -26.56794 0.9333177 -26.82457
v -25.55333 0.9333177 -26.82457
v -23.19719 0.9333177 -26.82457
v -22.75908 1.375083 -26.96771
v -22.20761 0.9333177 -26.82457
v -22.37197 1.347357 -26.96787
v -21.78791 1.299567 -26.99307
v -21.78448 0.9333177 -26.90838
v -21.82844 0.6562557 -26.93269
v -23.70067 1.398669 -26.95089
v -23.68774 1.561962 -27.00199
v -23.68859 1.570482 -26.81048
v -23.7019 1.410978 -26.78233
v -21.5603 0.7173837 -27.98659
v -21.74701 0.6605787 -27.98682
v -21.71862 0.7670487 -27.98682
v -23.59248 1.466883 -26.87724
v -21.74692 0.6562557 -27.99136
v -21.73729 0.9333177 -27.99136
v -21.73729 1.335861 -27.99136
v -22.37197 1.400916 -27.99136
v -23.59248 1.466883 -29.10548

vt 0.949219 0.945312
vt 0.945312 0.945312
vt 0.9218749 0.4062442
vt 0.8906249 0.3437442
vt 0.9218749 0.3437442
vt 0.9296679 0.8749778
vt 0.9921679 0.8436184
vt 0.9296477 0.8123683
vt 0.8828039 0.226562
vt 0.8828039 0
vt 0.773438 0
vt 0.792969 0.152344
vt 0.7425572 0.0625
vt 0.7265777 0.152344
vt 0.792969 0.332031
vt 0.7110193 0.332031
vt 0.8828039 0.4297076
vt 0.792969 0.75
vt 0.7110193 0.75
vt 0.8828193 0.7185977
vt 0.8828194 0.8281249
vt 1 0.6014727
vt 1 0.4297076
vt 0.792969 0.925781
vt 0.7110193 0.925781
vt 0.8828194 0.8984379
vt 0.8828194 0.9999999
vt 0.792969 1
vt 0.746094 1
vt 0.7110193 1
vt 0.945312 0.949219
vt 0.949219 0.949219
vt 0.4194158 0.8269151
vt 0.441954 0.5967027
vt 0.4194158 0.5967027
vt 0.441954 0.8269151
vt 0.5133236 0.8269151
vt 0.441954 0.9315568
vt 0.5133236 0.5967027
vt 0.441954 0.4962465
vt 0.5133236 0.9817849
vt 0.4231728 0.9817849
vt 0.4194158 0.9315568
vt 0.5884484 0.9315568
vt 0.6072304 0.9817849
vt 0.6109865 0.9315568
vt 0.5884484 0.8269151
vt 0.5884484 0.5967027
vt 0.6109865 0.8269151
vt 0.6109865 0.5967027
vt 0.5884484 0.4962465
vt 0.5133236 0.462761
vt 0.4231728 0.4711319
vt 0.4194158 0.4962465
vt 0.6072304 0.4711319
vt 0.6109865 0.4962465
vt 0.3203123 0.2461322
vt 0.514863 0.1955898
vt 0.3204384 0.1958088
vt 0.514863 0.2461319
vt 0.514863 0.3281629
vt 0.3203668 0.3280538
vt 0.7107303 0.2461314
vt 0.710965 0.1955895
vt 0.710965 0.3281631
vt -1.490116E-08 0.3905396
vt 0 0.5234305
vt 0.1266416 0.5234461
vt 0.1266416 0.3898297
vt 0.2500163 0.3906217
vt 0.2500155 0.5233757
vt 0.3046216 0.3906325
vt 0.304688 0.238281
vt 0.152344 0.3906492
vt 0.152344 0.238281
vt 0 0.238281
vt 0.9375 0.2812059
vt 1 0.2812059
vt 1 0.3358939
vt 0.921875 0.3358939
vt 0.8906249 0.3132474
vt 0.8906249 0.01573987
vt 0.9218749 0.01573987
vt 0.9063393 0.8749169
vt 0.9063393 0.8121982
vt 0.9296477 0.7578373
vt 0.9063393 0.7578374
vt 0.164062 0.640614
vt 0 0.640625
vt 0.04687497 0.5234305
vt 0.164062 0.5234305
vt 0.28125 0.5234305
vt 0.328125 0.5234305
vt 0.3281077 0.640625
vt 0.28125 0.664062
vt 0.2421721 0.664062
vt 0.2421721 0.820312
vt 0.28125 0.820312
vt 0.2421721 0.9608985
vt 0.28125 1
vt 0.140625 0.9608985
vt 0.140625 1
vt 0 1
vt 0.03905141 0.9608985
vt 0 0.820312
vt 0.03905141 0.820312
vt 0 0.664062
vt 0.03905141 0.664062
vt 0.28125 0.730469
vt 0.3125 0.65625
vt 0.28125 0.65625
vt 0.3125 0.730469
vt 0.3125 0.820312
vt 0.28125 0.925781
vt 0.3125 0.925781
vt 0.3125 1
vt 0.03905141 0.796875
vt 0.140625 0.796875
vt 0.03905141 0.679688
vt 0.140625 0.679688
vt 0.2421721 0.679688
vt 0.2421721 0.796875
vt 0.34375 1
vt 0.34375 0.925781
vt 0.3125 0.835938
vt 0.34375 0.835938
vt 0.34375 0.730469
vt 0.34375 0.65625
vt 0.9613883 0.2499559
vt 0.9218723 0.2812059
vt 0.9218723 0.2187059
vt 1 0.2187059
vt 0.3047223 0
vt 0.3047974 0.04876519
vt 0.5211587 0.04876519
vt 0.5211587 0.09411552
vt 0.5211587 0
vt 0.7264717 0
vt 0.7264717 0.04876519
vt 0.304688 0.08999284
vt 0.7264717 0.08999305
vt 0.304688 0.1561688
vt 0.7264717 0.156173
vt 0.5211587 0.1561756
vt 0.152344 0.089844
vt 0 0.1445308
vt 0 0.08984409
vt 0 0
vt 0.152344 0
vt 0.304688 0.144531

vn -1.493627 -2.187786 -1.408073
vn -0.5045485 -1.769188 -2.369684
vn 1.510445 -2.351791 -1.089787
vn -0.3847142 0.003293187 -2.975228
vn 0.5731041 -2.80798 -0.887018
vn 1.761089 0.09514884 -2.426831
vn 0.7716159 2.760545 -0.8854364
vn 0.3611078 -2.04339 -2.1666
vn 1.517523 -0.2657472 -2.574199
vn 0.8601828 1.840857 -2.207109
vn 2.241618 -0.2199961 1.981603
vn 0.9455434 -2.023126 2.003225
vn 1.355352 1.803472 1.9775
vn 0.91746 -1.673597 -2.314592
vn -1.620818 1.629468 -1.928155
vn -1.112636 -2.427342 -1.367498
vn 0.1830299 -2.98839 0.1897921
vn -0.0666494 -1.94429 2.283701
vn -1.92217 -1.455055 1.785518
vn -2.266518 0.4725179 1.907779
vn -1.278212 -1.958203 -1.879259
vn 0.5540878 -2.27315 -1.877704
vn -1.924098 -0.1678256 -2.295578
vn -1.493627 -2.187786 1.408073
vn 1.510445 -2.351791 1.089787
vn -0.5045485 -1.769188 2.369684
vn -0.3847142 0.003293187 2.975228
vn 1.761089 0.09514884 2.426831
vn 0.5731041 -2.80798 0.887018
vn 0.7716159 2.760545 0.8854364
vn 0.3611078 -2.04339 2.1666
vn 0.8601828 1.840857 2.207109
vn 1.517523 -0.2657472 2.574199
vn 2.241618 -0.2199961 -1.981603
vn 1.355352 1.803472 -1.9775
vn 0.9455434 -2.023126 -2.003225
vn 0.684096 -2.165998 1.95971
vn -1.501919 -2.46344 0.8220092
vn -1.47548 1.651044 2.024107
vn -0.2021683 -2.920048 -0.6576093
vn -0.0666494 -1.94429 -2.283701
vn -2.266518 0.4725179 -1.907779
vn -1.92217 -1.455055 -1.785518
vn -1.278212 -1.958203 1.879259
vn -1.924098 -0.1678256 2.295578
vn 0.5540878 -2.27315 1.877704
vn -0.03914771 0.7873529 -2.894571
vn -0.02602815 0.6817313 -2.921398
vn 0.06718493 -0.3261624 -2.98146
vn -0.07705028 0.07915786 -2.997965
vn -0.1402716 -0.9587252 -2.83922
vn -0.2674765 -0.4900922 -2.947586
vn 0 0.2053552 -2.992963
vn -0.02769162 -0.4370966 -2.967857
vn 0 0.8220348 -2.885179
vn 0 0.7848685 -2.89551
vn 0 0.4027608 -2.972841
vn 0 -0.3820378 -2.975575
vn 0.03953215 0.4145826 -2.970952
vn 0.03884273 0.8334783 -2.881632
vn 0.1164935 0.8188626 -2.883729
vn 0 2.341205 -1.875835
vn 0.004595834 2.338416 -1.879305
vn 0 0.278083 -2.987084
vn 0 0.9247355 -2.853921
vn 0.07329912 1.006878 -2.825035
vn 0.3521348 0.514644 -2.934474
vn 0.140164 1.029694 -2.814264
vn 0.3891094 0.8637083 -2.846507
vn 0.5820263 0.162557 -2.938506
vn 0.7056163 -0.6221549 -2.848689
vn 0.7006016 -0.6288661 -2.848453
vn 0.834877 -0.876115 -2.745069
vn 2.728564 -1.168994 -0.4340418
vn 0.9271765 -2.150787 -1.874688
vn -1.0236 -2.632859 -1.010095
vn 1.121699 -2.570591 -1.064824
vn 1.999179 -2.236802 0
vn -1.498169 -2.403546 -0.9891695
vn -2.638223 -0.8813468 -1.123835
vn -2.12132 -2.12132 0
vn 2.12132 -2.12132 0
vn -0.2016232 -2.993217 0
vn 0 -3 0
vn -0.3355244 -2.981178 0
vn 1.121699 -2.570591 1.064824
vn -1.498169 -2.403546 0.9891695
vn -2.608039 -1.482609 0
vn -1.53458 -2.577802 0
vn -3 0 0
vn 2.733413 -0.7629238 -0.9728299
vn 1.215261 -2.227479 -1.600462
vn -2.533962 -1.251268 -1.006659
vn 0.007663561 2.99999 0
vn 0.01533101 2.999961 0
vn 0.004595834 2.338416 1.879305
vn 0 2.341205 1.875835
vn 1.92726 2.279962 -0.295707
vn 1.980129 2.241547 -0.2335749
vn 1.986158 2.248372 0
vn 2.034526 2.2047 0
vn 1.980129 2.241547 0.2335749
vn 1.92726 2.279962 0.295707
vn 0.372375 -2.536031 1.558809
vn 0.3591764 -1.922294 -2.275033
vn 0.9024494 2.165587 -1.86971
vn 1.176818 1.527418 2.29828
vn 0.8727416 -2.869028 -0.08367697
vn 2.957903 0.2136273 -0.4529598
vn 1.29619 2.70126 -0.151939
vn -2.937123 0.6109896 0
vn -2.240208 -1.995361 7.566167E-11
vn 0.3364914 -2.981069 0
vn 0 3 0
vn 2.133674 0 2.108894
vn 2.12132 2.12132 0
vn 3 0 0
vn 1.7455 1.725345 1.725228
vn 0.01749866 0 2.999949
vn 0.01238191 2.121323 2.121281
vn -2.121329 -6.107304E-05 2.121312
vn -1.732084 1.731984 1.732084
vn -2.12132 2.12132 0
vn 1.7455 1.725345 -1.725228
vn 0.01238191 2.121323 -2.121281
vn -1.732084 1.731984 -1.732084
vn -0.03914771 0.7873529 2.894571
vn 0.06718493 -0.3261624 2.98146
vn -0.02602815 0.6817313 2.921398
vn -0.07705028 0.07915786 2.997965
vn -0.1402716 -0.9587252 2.83922
vn -0.2674765 -0.4900922 2.947586
vn 0 0.2053552 2.992963
vn -0.02769162 -0.4370966 2.967857
vn 0 0.8220348 2.885179
vn 0 0.4027608 2.972841
vn 0 0.7848685 2.89551
vn 0 -0.3820378 2.975575
vn 0.03953215 0.4145826 2.970952
vn 0.03884273 0.8334783 2.881632
vn 0.1164935 0.8188626 2.883729
vn 0 0.278083 2.987084
vn 0 0.9247355 2.853921
vn 0.07329912 1.006878 2.825035
vn 0.140164 1.029694 2.814264
vn 0.3521348 0.514644 2.934474
vn 0.3891094 0.8637083 2.846507
vn 0.5820263 0.162557 2.938506
vn 0.7056163 -0.6221549 2.848689
vn 0.7006016 -0.6288661 2.848453
vn 0.834877 -0.876115 2.745069
vn 2.728564 -1.168994 0.4340418
vn -1.0236 -2.632859 1.010095
vn 0.9271765 -2.150787 1.874688
vn -2.638223 -0.8813468 1.123835
vn 2.733413 -0.7629238 0.9728299
vn 1.215261 -2.227479 1.600462
vn -2.533962 -1.251268 1.006659
vn 0.372375 -2.536031 -1.558809
vn 1.176818 1.527418 -2.29828
vn 0.9024494 2.165587 1.86971
vn 0.3591764 -1.922294 2.275033
vn 2.957903 0.2136273 0.4529598
vn 0.8727416 -2.869028 0.08367697
vn 1.29619 2.70126 0.151939
vn 2.133674 0 -2.108894
vn 0.01749866 0 -2.999949
vn -2.121329 -6.107304E-05 -2.121312
vn 2.9663 -0.4303177 0.1260452
vn 2.564828 -1.543199 0.2004851
vn 2.839929 -0.9473289 0.1933105
vn 2.876194 -0.8529385 0
vn 2.997089 -0.1321245 0
vn 2.576581 -1.536629 0
vn 2.564828 -1.543199 -0.2004851
vn 2.839929 -0.9473289 -0.1933105
vn 2.989655 -0.212104 0.1302732
vn 2.989655 -0.212104 -0.1302732
vn 2.996531 0.02913817 0.1412613
vn 2.996531 0.02913817 -0.1412613
vn 0.198066 2.993454 -1.865202E-09
vn 0.1586047 2.992738 0.135504
vn 0.1009604 2.996184 0.112629
vn 0.2325609 2.986885 0.1563043
vn 0.09893822 2.998368 0
vn 0.2783415 2.983773 0.1400743
vn 0.1009604 2.996184 -0.112629
vn 0.3058971 2.984363 0
vn 0.1586047 2.992738 -0.135504
vn 0.2783415 2.983773 -0.1400743
vn 0.2325609 2.986885 -0.1563043
vn 2.9663 -0.4303177 -0.1260452

usemtl Car_-_TruckWhite
f 3/1/3 2/2/2 1/1/1
f 6/5/6 5/4/5 4/3/4
f 7/4/7 6/5/6 4/3/4
f 10/8/10 9/7/9 8/6/8
f 13/6/13 12/8/12 11/7/11
f 16/5/16 15/4/15 14/3/14
f 17/4/17 16/5/16 14/3/14
f 20/8/20 19/7/19 18/6/18
f 23/6/23 22/8/22 21/7/21
f 26/2/26 25/1/25 24/1/24
f 29/4/29 28/5/28 27/3/27
f 28/5/28 30/4/30 27/3/27
f 33/7/33 32/8/32 31/6/31
f 36/8/36 35/6/35 34/7/34
f 39/4/39 38/5/38 37/3/37
f 38/5/38 40/4/40 37/3/37
f 43/7/43 42/8/42 41/6/41
f 46/8/46 45/6/45 44/7/44
f 50/12/50 47/9/47 53/15/53
f 53/15/57 47/9/56 55/17/55
f 58/20/60 59/21/61 56/18/59
f 56/18/64 59/21/65 62/24/64
f 64/26/68 62/24/67 59/21/66
f 68/30/73 63/25/72 67/29/71
f 47/31/76 69/31/75 50/31/74
f 69/31/75 70/32/77 50/31/74
f 50/31/74 70/32/77 52/32/78
f 71/1/79 70/32/77 69/31/75
f 54/2/81 71/2/79 53/2/80
f 53/2/80 71/2/79 47/31/76
f 71/2/79 69/31/75 47/31/76
f 70/38/77 71/36/79 72/37/83
f 78/47/87 75/44/86 72/37/83
f 3/32/3 57/32/82 56/31/91
f 3/32/3 56/31/91 59/2/92
f 2/2/2 3/32/3 59/2/92
f 2/2/2 59/2/92 62/2/93
f 1/2/1 2/2/2 62/2/93
f 1/2/1 62/2/93 63/2/81
f 111/9/127 122/12/130 123/15/133
f 111/9/137 123/15/136 107/17/135
f 125/21/141 93/20/140 124/18/139
f 125/21/143 124/18/142 126/24/142
f 126/24/146 127/26/145 125/21/144
f 83/25/150 82/30/151 130/29/149
f 112/31/154 111/31/153 122/31/152
f 75/32/86 112/31/154 122/31/152
f 75/32/86 122/31/152 77/32/78
f 75/32/86 78/1/87 112/31/154
f 78/2/87 79/2/81 123/2/155
f 78/2/87 123/2/155 111/31/153
f 112/31/154 78/2/87 111/31/153
f 80/32/82 25/32/25 124/31/156
f 124/31/156 25/32/25 125/2/157
f 25/32/25 26/2/26 125/2/157
f 125/2/157 26/2/26 126/2/158
f 26/2/26 24/2/24 126/2/158
f 126/2/158 24/2/24 83/2/81
f 131/131/159 132/130/160 138/129/169
f 131/131/159 138/129/169 134/132/162
f 132/130/160 133/78/161 138/129/169
f 138/129/169 133/78/161 134/132/162
f 125/146/182 127/147/184 142/145/181
f 64/140/191 59/150/189 142/145/181
f 97/130/107 94/131/104 143/129/192
f 143/129/192 94/131/104 95/132/105
f 96/78/106 97/130/107 143/129/192
f 96/78/106 143/129/192 95/132/105
f 49/11/49 48/10/48 47/9/47
f 47/9/47 50/12/50 49/11/49
f 51/13/51 49/11/49 50/12/50
f 50/12/50 52/14/52 51/13/51
f 50/12/50 53/15/53 54/16/54
f 54/16/54 52/14/52 50/12/50
f 54/16/58 53/15/57 56/18/59
f 56/18/59 57/19/58 54/16/58
f 58/20/60 56/18/59 53/15/57
f 53/15/57 55/17/55 58/20/60
f 60/22/62 58/20/60 55/17/55
f 55/17/55 61/23/63 60/22/62
f 62/24/64 63/25/58 57/19/58
f 57/19/58 56/18/64 62/24/64
f 62/24/67 64/26/68 65/27/69
f 65/27/69 66/28/70 62/24/67
f 62/24/67 66/28/70 67/29/71
f 67/29/71 63/25/72 62/24/67
f 54/33/81 57/35/82 3/34/3
f 3/34/3 71/36/79 54/33/81
f 72/37/83 71/36/79 3/34/3
f 3/34/3 73/39/84 72/37/83
f 73/39/84 3/34/3 1/40/1
f 1/40/1 81/52/84 73/39/84
f 74/41/85 70/38/77 72/37/83
f 72/37/83 75/44/86 74/41/85
f 70/38/77 74/41/85 51/42/85
f 51/42/85 52/43/78 70/38/77
f 76/45/85 74/41/85 75/44/86
f 75/44/86 77/46/78 76/45/85
f 25/48/25 78/47/87 72/37/83
f 72/37/83 73/39/84 25/48/25
f 79/49/81 78/47/87 25/48/25
f 25/48/25 80/50/82 79/49/81
f 24/51/24 25/48/25 73/39/84
f 73/39/84 81/52/84 24/51/24
f 68/53/84 81/52/84 1/40/1
f 1/40/1 63/54/81 68/53/84
f 24/51/24 81/52/84 82/55/84
f 82/55/84 83/56/81 24/51/24
f 49/57/88 51/59/89 74/58/89
f 74/58/89 84/60/88 49/57/88
f 49/57/88 84/60/88 85/61/90
f 85/61/90 48/62/90 49/57/88
f 86/63/88 84/60/88 74/58/89
f 74/58/89 76/64/89 86/63/88
f 85/61/90 84/60/88 86/63/88
f 86/63/88 87/65/90 85/61/90
f 88/68/94 60/67/62 61/66/63
f 61/66/63 89/69/95 88/68/94
f 88/68/94 89/69/95 90/70/96
f 90/70/96 91/71/97 88/68/94
f 92/75/101 58/73/99 60/72/98
f 60/72/98 88/74/100 92/75/101
f 93/76/102 92/75/101 88/74/100
f 88/74/100 91/66/103 93/76/102
f 96/79/106 95/78/105 94/77/104
f 94/77/104 97/80/107 96/79/106
f 99/83/109 98/82/108 5/81/5
f 5/81/5 6/5/6 99/83/109
f 100/82/110 99/83/109 6/5/6
f 6/5/6 7/81/7 100/82/110
f 11/8/11 12/6/12 8/84/8
f 8/84/8 9/85/9 11/8/11
f 13/86/13 11/8/11 9/85/9
f 9/85/9 10/87/10 13/86/13
f 102/83/112 101/82/111 15/81/15
f 15/81/15 16/5/16 102/83/112
f 103/82/113 102/83/112 16/5/16
f 16/5/16 17/81/17 103/82/113
f 21/8/21 22/6/22 18/84/18
f 18/84/18 19/85/19 21/8/21
f 23/86/23 21/8/21 19/85/19
f 19/85/19 20/87/20 23/86/23
f 89/88/90 61/89/90 55/67/90
f 55/67/90 104/90/90 89/88/90
f 106/92/90 89/88/90 104/90/90
f 104/90/90 105/91/90 106/92/90
f 89/88/90 106/92/90 107/93/90
f 107/93/90 90/94/90 89/88/90
f 69/97/114 104/96/114 55/95/114
f 55/95/114 47/98/114 69/97/114
f 108/99/114 69/97/114 47/98/114
f 47/98/114 48/100/114 108/99/114
f 109/101/114 108/99/114 48/100/114
f 48/100/114 85/102/114 109/101/114
f 109/101/114 85/102/114 87/103/114
f 87/103/114 110/104/114 109/101/114
f 110/104/114 87/103/114 111/105/114
f 111/105/114 112/106/114 110/104/114
f 112/106/114 111/105/114 107/107/114
f 107/107/114 106/108/114 112/106/114
f 108/109/115 109/111/117 113/110/116
f 113/110/116 114/112/118 108/109/115
f 69/98/119 108/109/115 114/112/118
f 114/112/118 115/113/120 69/98/119
f 104/114/121 69/98/119 115/113/120
f 115/113/120 116/115/122 104/114/121
f 104/114/121 116/115/122 117/116/123
f 117/116/123 105/100/90 104/114/121
f 117/101/123 116/104/122 115/117/120
f 115/117/120 118/118/114 117/101/123
f 118/118/114 115/117/120 114/119/118
f 114/119/118 113/120/116 118/118/114
f 118/118/114 113/120/116 119/121/124
f 119/121/124 120/122/125 118/118/114
f 117/101/123 118/118/114 120/122/125
f 120/122/125 121/99/126 117/101/123
f 111/9/127 87/10/129 86/11/128
f 86/11/128 122/12/130 111/9/127
f 122/12/130 86/11/128 76/13/131
f 76/13/131 77/14/132 122/12/130
f 79/16/134 123/15/133 122/12/130
f 122/12/130 77/14/132 79/16/134
f 124/18/139 123/15/136 79/16/138
f 79/16/138 80/19/138 124/18/139
f 123/15/136 124/18/139 93/20/140
f 93/20/140 107/17/135 123/15/136
f 107/17/135 93/20/140 91/22/97
f 91/22/97 90/23/96 107/17/135
f 80/19/138 83/25/138 126/24/142
f 126/24/142 124/18/142 80/19/138
f 128/27/147 127/26/145 126/24/146
f 126/24/146 129/28/148 128/27/147
f 130/29/149 129/28/148 126/24/146
f 126/24/146 83/25/150 130/29/149
f 133/79/161 132/80/160 131/77/159
f 131/77/159 134/78/162 133/79/161
f 135/83/163 28/5/28 29/81/29
f 29/81/29 136/82/164 135/83/163
f 137/82/165 30/81/30 28/5/28
f 28/5/28 135/83/163 137/82/165
f 31/84/31 36/6/36 34/8/34
f 34/8/34 33/85/33 31/84/31
f 33/85/33 34/8/34 35/86/35
f 35/86/35 32/87/32 33/85/33
f 102/83/112 38/5/38 39/81/39
f 39/81/39 101/82/111 102/83/112
f 103/82/113 40/81/40 38/5/38
f 38/5/38 102/83/112 103/82/113
f 41/84/41 46/6/46 44/8/44
f 44/8/44 43/85/43 41/84/41
f 43/85/43 44/8/44 45/86/45
f 45/86/45 42/87/42 43/85/43
f 113/123/116 109/116/117 110/115/166
f 110/115/166 119/124/124 113/123/116
f 119/124/124 110/115/166 112/125/167
f 112/125/167 120/126/125 119/124/124
f 120/126/125 112/125/167 106/112/168
f 106/112/168 121/127/126 120/126/125
f 117/128/123 121/127/126 106/112/168
f 106/112/168 105/110/90 117/128/123
f 139/135/172 130/134/171 82/133/170
f 82/133/170 81/137/174 139/135/172
f 130/134/171 139/135/172 140/136/173
f 140/136/173 129/140/177 130/134/171
f 139/135/172 81/137/174 68/138/175
f 68/138/175 67/139/176 139/135/172
f 140/136/173 139/135/172 67/139/176
f 67/139/176 66/141/178 140/136/173
f 128/142/179 129/140/177 140/136/173
f 140/136/173 141/144/117 128/142/179
f 140/136/173 66/141/178 65/143/180
f 65/143/180 141/144/117 140/136/173
f 93/76/183 125/146/182 142/145/181
f 142/145/181 92/75/185 93/76/183
f 142/145/181 127/147/184 128/148/186
f 128/148/186 141/149/188 142/145/181
f 58/73/187 92/75/185 142/145/181
f 142/145/181 59/150/189 58/73/187
f 142/145/181 141/149/188 65/133/190
f 65/133/190 64/140/191 142/145/181

g Tire_01
v -22.18761 0.3680232 -27.00509 0.2288839 0.2288839 0.2288839
v -22.54107 0.8545783 -27.00509 0.2288839 0.2288839 0.2288839
v -22.28527 0.6687254 -27.00509 0.2288839 0.2288839 0.2288839
v -22.54107 -0.1185244 -27.00508 0.2288839 0.2288839 0.2288839
v -23.11307 0.6687254 -27.00509 0.2288839 0.2288839 0.2288839
v -22.85728 0.8545783 -27.00509 0.2288839 0.2288839 0.2288839
v -23.11307 0.06732171 -27.00508 0.2288839 0.2288839 0.2288839
v -22.85728 -0.1185244 -27.00508 0.2288839 0.2288839 0.2288839
v -23.21079 0.3680232 -27.00509 0.2288839 0.2288839 0.2288839
v -22.28527 0.06732171 -27.00508 0.2288839 0.2288839 0.2288839
v -23.11307 0.6687242 -27.20803 0.03155867 0.03155867 0.03155867
v -22.18761 0.368022 -27.20803 0.03155867 0.03155867 0.03155867
v -22.54107 0.8545771 -27.20803 0.03155867 0.03155867 0.03155867
v -22.54107 -0.1185256 -27.20803 0.03155867 0.03155867 0.03155867
v -23.11307 0.06732052 -27.20803 0.03155867 0.03155867 0.03155867
v -22.85728 0.8545771 -27.20803 0.03155867 0.03155867 0.03155867
v -23.21079 0.368022 -27.20803 0.03155867 0.03155867 0.03155867
v -22.85728 -0.1185256 -27.20803 0.03155867 0.03155867 0.03155867
v -22.28527 0.06732052 -27.20803 0.03155867 0.03155867 0.03155867
v -22.28527 0.6687242 -27.20803 0.03155867 0.03155867 0.03155867

vt 0.703125 0.816327
vt 0.40625 0.530612
vt 0.515625 0.734694
vt 1 0.530612
vt 0.515625 0.081633
vt 0.40625 0.285714
vt 0.890625 0.081633
vt 1 0.285714
vt 0.703125 0
vt 0.890625 0.755102
vt 0.4596778 0.1861205
vt 0.9963036 0.4178925
vt 0.791352 0.04287067
vt 0.791352 0.7929087
vt 0.4596778 0.649664
vt -0.4138224 0.8161931
vt -0.1282292 0.9995013
vt -0.1282292 0.8161925
vt -0.4138224 0.9995013
vt -0.6994137 0.8161931
vt -0.6994137 0.9995012
vt -0.9850045 0.8161931
vt -0.9850045 0.9995012
vt -1.270594 0.8161931
vt -1.270594 0.9995012
vt -1.556211 0.8161931
vt -1.556211 0.9995012
vt -1.8418 0.8161931
vt -1.8418 0.9995012
vt -2.127375 0.8161931
vt -2.127375 0.9995012
vt -2.412951 0.8161931
vt -2.412951 0.9995012
vt -2.698543 0.8161925
vt -2.698543 0.9995012
vt 0.1573877 0.9995013
vt 0.1573877 0.8161925
vt 0.9396729 0.649664
vt 0.6079991 0.7929087
vt 0.9396729 0.1861205
vt 0.403015 0.4178925
vt 0.6079991 0.04287067

vn 1.986232E-06 4.32453E-06 0.62354
vn 0 -3.679421E-06 -0.62354
vn -0.3665168 0.5044478 -2.976675E-06
vn -0.5930122 0.1927139 -1.137178E-06
vn -0.593012 -0.1927143 1.13718E-06
vn -0.366508 -0.5044541 2.976713E-06
vn 0 -0.62354 3.679421E-06
vn 0.3665086 -0.5044537 2.97671E-06
vn 0.5930442 -0.1926153 1.136595E-06
vn 0.5044795 0.3664731 -2.162506E-06
vn 0.5930444 0.1926149 -1.136593E-06
vn 0.3665174 0.5044473 -2.976672E-06
vn 0 0.62354 -3.679421E-06

usemtl tire1
f 146/153/193 145/152/193 144/151/193
f 149/156/193 148/155/193 145/152/193
f 147/154/193 150/157/193 151/158/193
f 152/159/193 150/157/193 148/155/193
f 156/163/194 155/162/194 154/161/194
f 162/188/194 157/164/194 155/162/194
f 161/189/194 158/165/194 157/164/194
f 163/190/194 155/162/194 156/163/194
f 158/165/194 160/191/194 154/161/194
f 154/161/194 159/192/194 156/163/194
f 153/160/193 144/151/193 145/152/193
f 145/152/193 147/154/193 153/160/193
f 147/154/193 145/152/193 148/155/193
f 148/155/193 150/157/193 147/154/193
f 154/161/194 155/162/194 157/164/194
f 157/164/194 158/165/194 154/161/194
f 148/166/195 149/168/195 159/167/195
f 159/167/195 154/169/195 148/166/195
f 152/170/196 148/166/196 154/169/196
f 154/169/196 160/171/196 152/170/196
f 150/172/197 152/170/197 160/171/197
f 160/171/197 158/173/197 150/172/197
f 151/174/198 150/172/198 158/173/198
f 158/173/198 161/175/198 151/174/198
f 147/176/199 151/174/199 161/175/199
f 161/175/199 157/177/199 147/176/199
f 153/178/200 147/176/200 157/177/200
f 157/177/200 162/179/200 153/178/200
f 144/180/201 153/178/201 162/179/201
f 162/179/201 155/181/201 144/180/201
f 146/182/202 144/180/203 155/181/203
f 155/181/203 163/183/202 146/182/202
f 145/184/204 146/182/202 163/183/202
f 163/183/202 156/185/204 145/184/204
f 149/168/205 145/187/205 156/186/205
f 156/186/205 159/167/205 149/168/205

g Tire_03
v -26.55581 0.3680232 -29.0136 0.2288839 0.2288839 0.2288839
v -26.20235 0.8545783 -29.0136 0.2288839 0.2288839 0.2288839
v -26.45815 0.6687254 -29.0136 0.2288839 0.2288839 0.2288839
v -26.20235 -0.1185244 -29.0136 0.2288839 0.2288839 0.2288839
v -25.63035 0.6687254 -29.0136 0.2288839 0.2288839 0.2288839
v -25.88614 0.8545783 -29.0136 0.2288839 0.2288839 0.2288839
v -25.63035 0.06732171 -29.01361 0.2288839 0.2288839 0.2288839
v -25.88614 -0.1185244 -29.01361 0.2288839 0.2288839 0.2288839
v -25.53263 0.3680232 -29.01361 0.2288839 0.2288839 0.2288839
v -26.45815 0.06732171 -29.0136 0.2288839 0.2288839 0.2288839
v -25.63034 0.6687242 -28.81066 0.03155867 0.03155867 0.03155867
v -26.55581 0.368022 -28.81066 0.03155867 0.03155867 0.03155867
v -26.20235 0.8545771 -28.81066 0.03155867 0.03155867 0.03155867
v -26.20235 -0.1185256 -28.81066 0.03155867 0.03155867 0.03155867
v -25.63034 0.06732052 -28.81066 0.03155867 0.03155867 0.03155867
v -25.88614 0.8545771 -28.81066 0.03155867 0.03155867 0.03155867
v -25.53263 0.368022 -28.81066 0.03155867 0.03155867 0.03155867
v -25.88614 -0.1185256 -28.81066 0.03155867 0.03155867 0.03155867
v -26.45815 0.06732052 -28.81066 0.03155867 0.03155867 0.03155867
v -26.45815 0.6687242 -28.81065 0.03155867 0.03155867 0.03155867

vt 0.703125 0.816327
vt 0.40625 0.530612
vt 0.515625 0.734694
vt 1 0.530612
vt 0.515625 0.081633
vt 0.40625 0.285714
vt 0.890625 0.081633
vt 1 0.285714
vt 0.703125 0
vt 0.890625 0.755102
vt 0.4596778 0.1861205
vt 0.9963036 0.4178925
vt 0.791352 0.04287067
vt 0.791352 0.7929087
vt 0.4596778 0.649664
vt -0.4138224 0.8161931
vt -0.1282292 0.9995013
vt -0.1282292 0.8161925
vt -0.4138224 0.9995013
vt -0.6994137 0.8161931
vt -0.6994137 0.9995012
vt -0.9850045 0.8161931
vt -0.9850045 0.9995012
vt -1.270594 0.8161931
vt -1.270594 0.9995012
vt -1.556211 0.8161931
vt -1.556211 0.9995012
vt -1.8418 0.8161931
vt -1.8418 0.9995012
vt -2.127375 0.8161931
vt -2.127375 0.9995012
vt -2.412951 0.8161931
vt -2.412951 0.9995012
vt -2.698543 0.8161925
vt -2.698543 0.9995012
vt 0.1573877 0.9995013
vt 0.1573877 0.8161925
vt 0.9396729 0.649664
vt 0.6079991 0.7929087
vt 0.9396729 0.1861205
vt 0.403015 0.4178925
vt 0.6079991 0.04287067

vn -5.665654E-06 4.32453E-06 -0.62354
vn 3.679421E-06 -3.679422E-06 0.62354
vn 0.3665168 0.5044478 8.139114E-07
vn 0.5930122 0.1927139 -2.362103E-06
vn 0.593012 -0.1927143 -4.63646E-06
vn 0.366508 -0.5044541 -5.139425E-06
vn -2.117012E-11 -0.62354 -3.679422E-06
vn -0.3665086 -0.5044537 -8.139951E-07
vn -0.5930442 -0.1926153 2.362875E-06
vn -0.5044795 0.3664731 5.139369E-06
vn -0.5930444 0.1926149 4.636064E-06
vn -0.3665174 0.5044473 5.13944E-06
vn 2.117012E-11 0.62354 3.679422E-06

usemtl tire1
f 166/195/206 165/194/206 164/193/206
f 169/198/206 168/197/206 165/194/206
f 167/196/206 170/199/206 171/200/206
f 172/201/206 170/199/206 168/197/206
f 176/205/207 175/204/207 174/203/207
f 182/230/207 177/206/207 175/204/207
f 181/231/207 178/207/207 177/206/207
f 183/232/207 175/204/207 176/205/207
f 178/207/207 180/233/207 174/203/207
f 174/203/207 179/234/207 176/205/207
f 173/202/206 164/193/206 165/194/206
f 165/194/206 167/196/206 173/202/206
f 167/196/206 165/194/206 168/197/206
f 168/197/206 170/199/206 167/196/206
f 174/203/207 175/204/207 177/206/207
f 177/206/207 178/207/207 174/203/207
f 168/208/208 169/210/208 179/209/208
f 179/209/208 174/211/208 168/208/208
f 172/212/209 168/208/209 174/211/209
f 174/211/209 180/213/209 172/212/209
f 170/214/210 172/212/210 180/213/210
f 180/213/210 178/215/210 170/214/210
f 171/216/211 170/214/211 178/215/211
f 178/215/211 181/217/211 171/216/211
f 167/218/212 171/216/212 181/217/212
f 181/217/212 177/219/212 167/218/212
f 173/220/213 167/218/213 177/219/213
f 177/219/213 182/221/213 173/220/213
f 164/222/214 173/220/214 182/221/214
f 182/221/214 175/223/214 164/222/214
f 166/224/215 164/222/216 175/223/216
f 175/223/216 183/225/215 166/224/215
f 165/226/217 166/224/215 183/225/215
f 183/225/215 176/227/217 165/226/217
f 169/210/218 165/229/218 176/228/218
f 176/228/218 179/209/218 169/210/218

g Tire_04
v -23.2108 0.3680232 -29.01362 0.2288839 0.2288839 0.2288839
v -22.85734 0.8545783 -29.01362 0.2288839 0.2288839 0.2288839
v -23.11313 0.6687254 -29.01362 0.2288839 0.2288839 0.2288839
v -22.85734 -0.1185244 -29.01363 0.2288839 0.2288839 0.2288839
v -22.28534 0.6687254 -29.01363 0.2288839 0.2288839 0.2288839
v -22.54113 0.8545783 -29.01363 0.2288839 0.2288839 0.2288839
v -22.28534 0.06732171 -29.01363 0.2288839 0.2288839 0.2288839
v -22.54113 -0.1185244 -29.01363 0.2288839 0.2288839 0.2288839
v -22.18761 0.3680232 -29.01363 0.2288839 0.2288839 0.2288839
v -23.11313 0.06732171 -29.01363 0.2288839 0.2288839 0.2288839
v -22.28533 0.6687242 -28.81069 0.03155867 0.03155867 0.03155867
v -23.2108 0.368022 -28.81068 0.03155867 0.03155867 0.03155867
v -22.85734 0.8545771 -28.81068 0.03155867 0.03155867 0.03155867
v -22.85734 -0.1185256 -28.81069 0.03155867 0.03155867 0.03155867
v -22.28533 0.06732052 -28.81069 0.03155867 0.03155867 0.03155867
v -22.54113 0.8545771 -28.81068 0.03155867 0.03155867 0.03155867
v -22.18761 0.368022 -28.81069 0.03155867 0.03155867 0.03155867
v -22.54113 -0.1185256 -28.81069 0.03155867 0.03155867 0.03155867
v -23.11313 0.06732052 -28.81068 0.03155867 0.03155867 0.03155867
v -23.11313 0.6687242 -28.81068 0.03155867 0.03155867 0.03155867

vt 0.703125 0.816327
vt 0.40625 0.530612
vt 0.515625 0.734694
vt 1 0.530612
vt 0.515625 0.081633
vt 0.40625 0.285714
vt 0.890625 0.081633
vt 1 0.285714
vt 0.703125 0
vt 0.890625 0.755102
vt 0.4596778 0.1861205
vt 0.9963036 0.4178925
vt 0.791352 0.04287067
vt 0.791352 0.7929087
vt 0.4596778 0.649664
vt -0.4138224 0.8161931
vt -0.1282292 0.9995013
vt -0.1282292 0.8161925
vt -0.4138224 0.9995013
vt -0.6994137 0.8161931
vt -0.6994137 0.9995012
vt -0.9850045 0.8161931
vt -0.9850045 0.9995012
vt -1.270594 0.8161931
vt -1.270594 0.9995012
vt -1.556211 0.8161931
vt -1.556211 0.9995012
vt -1.8418 0.8161931
vt -1.8418 0.9995012
vt -2.127375 0.8161931
vt -2.127375 0.9995012
vt -2.412951 0.8161931
vt -2.412951 0.9995012
vt -2.698543 0.8161925
vt -2.698543 0.9995012
vt 0.1573877 0.9995013
vt 0.1573877 0.8161925
vt 0.9396729 0.649664
vt 0.6079991 0.7929087
vt 0.9396729 0.1861205
vt 0.403015 0.4178925
vt 0.6079991 0.04287067

vn -5.665654E-06 4.32453E-06 -0.62354
vn 3.679421E-06 -3.679422E-06 0.62354
vn 0.3665168 0.5044478 8.139114E-07
vn 0.5930122 0.1927139 -2.362103E-06
vn 0.593012 -0.1927143 -4.63646E-06
vn 0.366508 -0.5044541 -5.139425E-06
vn -2.117012E-11 -0.62354 -3.679422E-06
vn -0.3665086 -0.5044537 -8.139951E-07
vn -0.5930442 -0.1926153 2.362875E-06
vn -0.5044795 0.3664731 5.139369E-06
vn -0.5930444 0.1926149 4.636064E-06
vn -0.3665174 0.5044473 5.13944E-06
vn 2.117012E-11 0.62354 3.679422E-06

usemtl tire1
f 186/237/219 185/236/219 184/235/219
f 189/240/219 188/239/219 185/236/219
f 187/238/219 190/241/219 191/242/219
f 192/243/219 190/241/219 188/239/219
f 196/247/220 195/246/220 194/245/220
f 202/272/220 197/248/220 195/246/220
f 201/273/220 198/249/220 197/248/220
f 203/274/220 195/246/220 196/247/220
f 198/249/220 200/275/220 194/245/220
f 194/245/220 199/276/220 196/247/220
f 193/244/219 184/235/219 185/236/219
f 185/236/219 187/238/219 193/244/219
f 187/238/219 185/236/219 188/239/219
f 188/239/219 190/241/219 187/238/219
f 194/245/220 195/246/220 197/248/220
f 197/248/220 198/249/220 194/245/220
f 188/250/221 189/252/221 199/251/221
f 199/251/221 194/253/221 188/250/221
f 192/254/222 188/250/222 194/253/222
f 194/253/222 200/255/222 192/254/222
f 190/256/223 192/254/223 200/255/223
f 200/255/223 198/257/223 190/256/223
f 191/258/224 190/256/224 198/257/224
f 198/257/224 201/259/224 191/258/224
f 187/260/225 191/258/225 201/259/225
f 201/259/225 197/261/225 187/260/225
f 193/262/226 187/260/226 197/261/226
f 197/261/226 202/263/226 193/262/226
f 184/264/227 193/262/227 202/263/227
f 202/263/227 195/265/227 184/264/227
f 186/266/228 184/264/229 195/265/229
f 195/265/229 203/267/228 186/266/228
f 185/268/230 186/266/228 203/267/228
f 203/267/228 196/269/230 185/268/230
f 189/252/231 185/271/231 196/270/231
f 196/270/231 199/251/231 189/252/231

g Tire_02
v -25.53261 0.3680232 -27.00509 0.2288839 0.2288839 0.2288839
v -25.88607 0.8545783 -27.00509 0.2288839 0.2288839 0.2288839
v -25.63028 0.6687254 -27.00509 0.2288839 0.2288839 0.2288839
v -25.88607 -0.1185244 -27.00508 0.2288839 0.2288839 0.2288839
v -26.45807 0.6687254 -27.00509 0.2288839 0.2288839 0.2288839
v -26.20228 0.8545783 -27.00509 0.2288839 0.2288839 0.2288839
v -26.45807 0.06732171 -27.00508 0.2288839 0.2288839 0.2288839
v -26.20228 -0.1185244 -27.00508 0.2288839 0.2288839 0.2288839
v -26.5558 0.3680232 -27.00509 0.2288839 0.2288839 0.2288839
v -25.63028 0.06732171 -27.00508 0.2288839 0.2288839 0.2288839
v -26.45807 0.6687242 -27.20803 0.03155867 0.03155867 0.03155867
v -25.53261 0.368022 -27.20803 0.03155867 0.03155867 0.03155867
v -25.88607 0.8545771 -27.20803 0.03155867 0.03155867 0.03155867
v -25.88607 -0.1185256 -27.20803 0.03155867 0.03155867 0.03155867
v -26.45807 0.06732052 -27.20803 0.03155867 0.03155867 0.03155867
v -26.20228 0.8545771 -27.20803 0.03155867 0.03155867 0.03155867
v -26.5558 0.368022 -27.20803 0.03155867 0.03155867 0.03155867
v -26.20228 -0.1185256 -27.20803 0.03155867 0.03155867 0.03155867
v -25.63028 0.06732052 -27.20803 0.03155867 0.03155867 0.03155867
v -25.63028 0.6687242 -27.20803 0.03155867 0.03155867 0.03155867

vt 0.703125 0.816327
vt 0.40625 0.530612
vt 0.515625 0.734694
vt 1 0.530612
vt 0.515625 0.081633
vt 0.40625 0.285714
vt 0.890625 0.081633
vt 1 0.285714
vt 0.703125 0
vt 0.890625 0.755102
vt 0.4596778 0.1861205
vt 0.9963036 0.4178925
vt 0.791352 0.04287067
vt 0.791352 0.7929087
vt 0.4596778 0.649664
vt -0.4138224 0.8161931
vt -0.1282292 0.9995013
vt -0.1282292 0.8161925
vt -0.4138224 0.9995013
vt -0.6994137 0.8161931
vt -0.6994137 0.9995012
vt -0.9850045 0.8161931
vt -0.9850045 0.9995012
vt -1.270594 0.8161931
vt -1.270594 0.9995012
vt -1.556211 0.8161931
vt -1.556211 0.9995012
vt -1.8418 0.8161931
vt -1.8418 0.9995012
vt -2.127375 0.8161931
vt -2.127375 0.9995012
vt -2.412951 0.8161931
vt -2.412951 0.9995012
vt -2.698543 0.8161925
vt -2.698543 0.9995012
vt 0.1573877 0.9995013
vt 0.1573877 0.8161925
vt 0.9396729 0.649664
vt 0.6079991 0.7929087
vt 0.9396729 0.1861205
vt 0.403015 0.4178925
vt 0.6079991 0.04287067

vn 1.986232E-06 4.32453E-06 0.62354
vn 0 -3.679421E-06 -0.62354
vn -0.3665168 0.5044478 -2.976675E-06
vn -0.5930122 0.1927139 -1.137178E-06
vn -0.593012 -0.1927143 1.13718E-06
vn -0.366508 -0.5044541 2.976713E-06
vn 0 -0.62354 3.679421E-06
vn 0.3665086 -0.5044537 2.97671E-06
vn 0.5930442 -0.1926153 1.136595E-06
vn 0.5044795 0.3664731 -2.162506E-06
vn 0.5930444 0.1926149 -1.136593E-06
vn 0.3665174 0.5044473 -2.976672E-06
vn 0 0.62354 -3.679421E-06

usemtl tire1
f 206/279/232 205/278/232 204/277/232
f 209/282/232 208/281/232 205/278/232
f 207/280/232 210/283/232 211/284/232
f 212/285/232 210/283/232 208/281/232
f 216/289/233 215/288/233 214/287/233
f 222/314/233 217/290/233 215/288/233
f 221/315/233 218/291/233 217/290/233
f 223/316/233 215/288/233 216/289/233
f 218/291/233 220/317/233 214/287/233
f 214/287/233 219/318/233 216/289/233
f 213/286/232 204/277/232 205/278/232
f 205/278/232 207/280/232 213/286/232
f 207/280/232 205/278/232 208/281/232
f 208/281/232 210/283/232 207/280/232
f 214/287/233 215/288/233 217/290/233
f 217/290/233 218/291/233 214/287/233
f 208/292/234 209/294/234 219/293/234
f 219/293/234 214/295/234 208/292/234
f 212/296/235 208/292/235 214/295/235
f 214/295/235 220/297/235 212/296/235
f 210/298/236 212/296/236 220/297/236
f 220/297/236 218/299/236 210/298/236
f 211/300/237 210/298/237 218/299/237
f 218/299/237 221/301/237 211/300/237
f 207/302/238 211/300/238 221/301/238
f 221/301/238 217/303/238 207/302/238
f 213/304/239 207/302/239 217/303/239
f 217/303/239 222/305/239 213/304/239
f 204/306/240 213/304/240 222/305/240
f 222/305/240 215/307/240 204/306/240
f 206/308/241 204/306/242 215/307/242
f 215/307/242 223/309/241 206/308/241
f 205/310/243 206/308/241 223/309/241
f 223/309/241 216/311/243 205/310/243
f 209/294/244 205/313/244 216/312/244
f 216/312/244 219/293/244 209/294/244

