# ProBuilder 5.2.2
# https://unity3d.com/unity/features/worldbuilding/probuilder
# 16.10.2024 17.52.09

mtllib ./CeilingFan.mtl
o CeilingFan

g CeilingFan
v 0.08791341 6.171887 1.312795
v -0.271337 6.171887 1.935035
v 0.4471641 6.171887 1.935035
v 0.08791348 6.171887 1.582627
v -0.0213838 6.171887 1.771936
v -0.02138396 5.407145 1.771936
v 0.08791331 5.407144 1.582628
v 0.1972107 6.171887 1.771936
v 0.1972105 5.407145 1.771936
v 0.0879133 5.16102 1.091966
v 0.6338473 5.16102 1.40716
v 0.6945066 5.407145 1.372139
v 0.08791331 5.407145 1.021922
v 0.6338473 5.16102 2.03755
v 0.6945066 5.407145 2.072572
v 0.0879133 5.16102 2.352745
v 0.08791331 5.407145 2.422788
v -0.4580208 5.16102 2.03755
v -0.5186801 5.407145 2.072572
v -0.5186801 5.407145 1.372139
v -0.4580208 5.16102 1.40716
v 0.5405693 6.459175 2.015926
v 0.08791336 6.459175 1.231903
v -0.3647422 6.459175 2.015926

vt 0.6862745 0.6666667
vt 0.6078432 0.7037037
vt 0.6862745 0.7592593
vt 0.7450981 0.7777778
vt 0.8431373 0.7777778
vt 0.8431373 0.462963
vt 0.7450981 0.462963
vt 0.8627451 0.9074074
vt 0.5490196 0.9074074
vt 0.5490196 1
vt 0.8627451 1
vt 0.6470588 0.6111111
vt 0.6078432 0.6481481
vt 0.6078432 0.7222222
vt 0.6470588 0.7592593
vt 0.6862745 0.6481481
vt 0.6862745 0.7222222
vt 0.2352941 0.2777778
vt 0.4117647 0.3888889
vt 0.5882353 0.2777778
vt 0.5882353 0.1111111
vt 0.2352941 0.1111111
vt 0.4117647 0
vt 0.6078432 0.4444444
vt 0.6078432 0.7777778
vt 0.7254902 0.7777778
vt 0.7254902 0.4444444

vn 0 -8.476416 1.010467E-06
vn -7.340792 1.086093E-06 -4.238209
vn 0 1.010467E-06 8.476416
vn 7.340794 -2.210226E-06 -4.238206
vn 4.115071 -2.028381 -7.127517
vn 8.230146 -2.028382 2.418019E-07
vn 4.115071 -2.02838 7.127517
vn -4.115071 -2.028379 7.127517
vn 0 8.476416 -1.010467E-06
vn -8.230146 -2.028382 2.41802E-07
vn -4.115071 -2.02838 -7.127517
vn 7.269108 -1.181693 -4.196822
vn -4.638817E-07 -2.297356 8.159153
vn -7.269109 -1.181695 -4.19682

usemtl CeilingFan
f 3/3/1 2/2/1 1/1/1
f 15/14/9 12/13/9 13/12/9
f 20/16/9 19/17/9 17/15/9
f 11/20/1 14/19/1 16/18/1
f 18/22/1 21/23/1 10/21/1
f 6/6/2 5/5/2 4/4/2
f 4/4/2 7/7/2 6/6/2
f 9/6/3 8/5/3 5/4/3
f 5/4/3 6/7/3 9/6/3
f 7/6/4 4/5/4 8/4/4
f 8/4/4 9/7/4 7/6/4
f 12/10/5 11/9/5 10/8/5
f 10/8/5 13/11/5 12/10/5
f 15/10/6 14/9/6 11/8/6
f 11/8/6 12/11/6 15/10/6
f 17/10/7 16/9/7 14/8/7
f 14/8/7 15/11/7 17/10/7
f 19/10/8 18/9/8 16/8/8
f 16/8/8 17/11/8 19/10/8
f 20/16/9 17/15/9 15/14/9
f 15/14/9 13/12/9 20/16/9
f 20/10/10 21/9/10 18/8/10
f 18/8/10 19/11/10 20/10/10
f 13/10/11 10/9/11 21/8/11
f 21/8/11 20/11/11 13/10/11
f 18/22/1 10/21/1 11/20/1
f 11/20/1 16/18/1 18/22/1
f 22/26/12 3/25/12 1/24/12
f 1/24/12 23/27/12 22/26/12
f 24/26/13 2/25/13 3/24/13
f 3/24/13 22/27/13 24/26/13
f 23/27/14 1/24/14 2/25/14
f 2/25/14 24/26/14 23/27/14

g CeilingFan2
v 0.08791327 4.529467 1.364087
v 0.398183 4.529467 1.543221
v 0.398183 5.161019 1.543221
v 0.08791327 5.161019 1.364087
v 0.398183 4.529467 1.901489
v 0.398183 5.161019 1.901489
v 0.08791327 4.529467 2.080624
v 0.08791327 5.161019 2.080624
v -0.2223563 4.529467 1.901489
v -0.2223563 5.161019 1.901489
v -0.2223563 4.529467 1.543221
v -0.2223563 5.161019 1.543221
v -0.08650975 5.161019 1.722355
v 0.2623364 5.161019 1.722355
v 0.2623364 4.529467 1.722355
v -0.08650975 4.529467 1.722355
v 0.08791333 5.161019 1.896778
v 0.08791333 5.161019 1.547932
v 0.08791333 4.529467 1.547932
v 0.08791333 4.529467 1.896778

vt 0 0.5555556
vt 0.2745098 0.5555556
vt 0.2745098 1
vt 0 1
vt 0.5490196 0.5555556
vt 0.5490196 1
vt 0.1764706 0.5555556
vt 0.1764706 0.2962963
vt 0 0.2962963

vn 4.238209 -8.750905E-07 -7.340791
vn 8.476418 0 0
vn 4.238209 8.750905E-07 7.340791
vn -4.23821 8.750904E-07 7.340791
vn -8.476418 0 0
vn -4.23821 -8.750904E-07 -7.340791
vn -3.836374E-07 7.985603E-07 8.476416

usemtl CeilingFan2
f 28/31/15 27/30/15 26/29/15 25/28/15
f 27/30/16 30/33/16 29/32/16 26/29/16
f 30/31/17 32/30/17 31/29/17 29/28/17
f 32/31/18 34/30/18 33/29/18 31/28/18
f 34/30/19 36/33/19 35/32/19 33/29/19
f 36/31/20 28/30/20 25/29/20 35/28/20
f 40/36/21 39/35/21 38/34/21 37/28/21
f 44/36/16 43/35/16 42/34/16 41/28/16

g PullChain
v -0.333698 2.85895 1.75393 1 1 1
v -0.333698 4.980989 1.753929 0.00564232 0.00564232 0.00564232
v -0.1952314 2.85895 1.753929 1 1 1
v -0.1952314 4.980989 1.753929 0.00564232 0.00564232 0.00564232
v -0.2644646 2.85895 1.823162 1 1 1
v -0.2644647 4.980989 1.823162 0.00564232 0.00564232 0.00564232
v -0.2644646 2.85895 1.684695 1 1 1
v -0.2644647 4.980989 1.684695 0.00564232 0.00564232 0.00564232
v 0.3591727 2.85895 1.703071 1 1 1
v 0.3591727 4.980989 1.703071 0.00564232 0.00564232 0.00564232
v 0.4976395 2.85895 1.703071 1 1 1
v 0.4976395 4.980989 1.70307 0.00564232 0.00564232 0.00564232
v 0.4284062 2.85895 1.772303 1 1 1
v 0.4284061 4.980989 1.772303 0.00564232 0.00564232 0.00564232
v 0.4284062 2.85895 1.633837 1 1 1
v 0.4284061 4.980989 1.633837 0.00564232 0.00564232 0.00564232

vt -6.320709E-09 -7.122821E-08
vt -1.192093E-07 1
vt 1 -5.960464E-08
vt 0.9999999 1

vn 1.398913E-06 8.394127E-08 0.4889555
vn 0.4889557 2.398835E-08 1.032752E-08

usemtl pullchain
f 47/39/22 48/40/22 46/38/22 45/37/22
f 51/39/23 52/40/23 50/38/23 49/37/23
f 55/39/22 56/40/22 54/38/22 53/37/22
f 59/39/23 60/40/23 58/38/23 57/37/23

g Lightbulb On
v 0.07410625 3.962946 1.554748
v 0.07410488 3.962946 1.889965
v 0.0741059 4.513433 1.554748
v 0.07410494 4.513433 1.889962
v 0.2417138 3.962945 1.722356
v -0.09350318 3.962945 1.722355
v 0.2417139 4.513433 1.722355
v -0.09350096 4.513433 1.722355

vt 1.000001 1.072884E-06
vt -9.536743E-07 1.013279E-06
vt 1.000001 1.000001
vt 2.920628E-06 1.000001

vn 0.5694935 3.535077E-07 2.32623E-06
vn -1.098246E-06 6.68991E-07 0.5694933

usemtl LightBulbOn
f 63/43/24 64/44/24 62/42/24 61/41/24
f 67/43/25 68/44/25 66/42/25 65/41/25

g Plane_01
v 3.077297 5.283351 4.689322
v 3.077297 5.28335 -1.289447
v -2.901472 5.283351 4.689322
v -2.901472 5.28335 -1.289447

vt 0 0
vt 0 1
vt 1 0
vt 1 1

vn 0 -1.494692 4.009077E-07

usemtl ceilingfandark_(1)
f 71/47/26 72/48/26 70/46/26 69/45/26

