# ProBuilder 5.2.2
# https://unity3d.com/unity/features/worldbuilding/probuilder
# 15.10.2024 13.55.30

mtllib ./Folder.mtl
o Folder

g FolderRed
v -43.03354 0.1068666 -0.5174797
v -42.38646 0.1068666 -0.5174797
v -42.38646 0.1488082 -0.5174797
v -43.03354 0.2331342 -0.5174796
v -42.38646 0.1068657 0.5174796
v -42.38646 0.1488073 0.5174796
v -43.03354 0.1068658 0.5174796
v -43.03354 0.2331333 0.5174797

vt 0.75 0
vt 0.75 0.625
vt 0.796875 0.625
vt 0.875 0
vt 0.921875 1
vt 0.921875 0
vt 0.875 1
vt 0.640625 0
vt 0.640625 1
vt 0.75 1
vt 0 1
vt 0 0

vn 0 2.920627E-07 -0.35
vn 0.35 -4.172325E-08 0
vn 0 -2.920627E-07 0.35
vn -0.35 4.172325E-08 0
vn -4.172325E-08 -0.35 -2.920627E-07
vn 0.04522871 0.3470654 2.896139E-07

usemtl FolderRed
f 4/4/1 3/3/1 2/2/1 1/1/1
f 3/7/2 6/4/2 5/6/2 2/5/2
f 6/3/3 8/4/3 7/1/3 5/2/3
f 8/1/4 4/10/4 1/9/4 7/8/4
f 5/8/5 7/12/5 1/11/5 2/9/5
f 3/9/6 4/11/6 8/12/6 6/8/6

