# ProBuilder 5.2.2
# https://unity3d.com/unity/features/worldbuilding/probuilder
# 15.10.2024 18.48.15

mtllib ./FoodFreezer.mtl
o FoodFreezer

g FoodFreezer
v 1333.523 57.71975 55.78914
v 1333.523 57.71975 53.38914
v 1333.523 58.31975 53.38914
v 1333.523 58.31975 55.78914
v 1333.523 60.11975 55.78914
v 1333.523 60.11975 53.38914
v 1334.423 57.71975 53.38914
v 1334.423 58.31975 53.38914
v 1334.423 60.11975 53.38914
v 1334.723 58.31975 53.38914
v 1334.423 57.71975 55.78914
v 1334.423 58.31975 55.78914
v 1334.423 60.11975 55.78914
v 1334.723 58.31975 55.78914

vt 0.4444444 0.5
vt 0.4444444 5.432564E-09
vt 0.3333333 1.028938E-08
vt 0.3333333 0.5
vt 2.185569E-08 0.5
vt 1.086658E-15 2.485984E-08
vt 1 0.5546875
vt 0.8359375 0.5546875
vt 0.8359375 0.6640625
vt 1 0.6640625
vt 1 1
vt 0.8359375 1
vt 0.78125 0.6640625
vt 0.28125 1
vt 0.28125 0.5078125
vt 0.1640625 0.5078125
vt 0.1640625 1
vt 0.3333334 0.9999999
vt 0.3333333 0.4999999
vt 0.28125 0.5
vt 0.1640625 0.5
vt 0 1
vt 0.453125 0
vt 0.453125 0.4453125
vt 1 0.4453125
vt 1 0

vn -3 -1.277491E-08 8.990053E-06
vn -8.990054E-06 2.842171E-14 -3
vn 3 1.277491E-08 -8.990053E-06
vn 8.990054E-06 -2.842171E-14 3
vn 1.277491E-08 -3 -2.842171E-14
vn -1.277491E-08 3 2.842171E-14
vn 2.959182 0.493197 -8.867733E-06

usemtl FoodFreezerBox
f 9/12/2 10/13/2 8/9/2
f 12/9/4 14/13/4 13/12/4
f 3/3/1 2/2/1 1/1/1
f 1/1/1 4/4/1 3/3/1
f 3/3/1 4/4/1 5/5/1
f 5/5/1 6/6/1 3/3/1
f 8/9/2 7/8/2 2/7/2
f 2/7/2 3/10/2 8/9/2
f 8/9/2 3/10/2 6/11/2
f 6/11/2 9/12/2 8/9/2
f 12/16/3 11/15/3 7/14/3
f 7/14/3 8/17/3 12/16/3
f 4/10/4 1/7/4 11/8/4
f 11/8/4 12/9/4 4/10/4
f 4/10/4 12/9/4 13/12/4
f 13/12/4 5/11/4 4/10/4
f 10/19/5 14/18/5 12/14/5
f 12/14/5 8/20/5 10/19/5
f 5/22/6 13/17/6 9/21/6
f 9/21/6 6/5/6 5/22/6
f 9/25/7 13/24/7 14/23/7
f 14/23/7 10/26/7 9/25/7

