# ProBuilder 5.2.2
# https://unity3d.com/unity/features/worldbuilding/probuilder
# 16.10.2024 12.36.34

mtllib ./Oscilloscope.mtl
o Oscilloscope

g Oscilloscope
v -0.1332617 -0.29076 0.6000957
v -0.1332617 -0.2907601 -0.6000956
v -0.1332617 0.2907598 -0.6000956
v -0.1332617 0.2907599 0.6000956
v 0.1332617 -0.2907601 -0.6000956
v 0.1332617 0.2907598 -0.6000956
v 0.1332617 -0.29076 0.6000957
v 0.1332617 0.2907599 0.6000956

vt 1 0.515625
vt 0 0.515625
vt 0 1
vt 1 1
vt 0.203125 0
vt 0 0
vt 0 0.4921875
vt 0.203125 0.4921875
vt 1 0.1796875
vt 0.203125 0.1796875
vt 1 0.4921875
vt 1 0

vn -1 0 0
vn 0 8.578672E-08 -0.9999999
vn 1 0 0
vn 0 1.192093E-07 0.9999999
vn 0 -0.9999999 1.192093E-07
vn 0 0.9999999 -1.988405E-08

usemtl Lit
f 4/4/1 3/3/1 2/2/1 1/1/1
f 3/8/2 6/7/2 5/6/2 2/5/2
f 6/11/3 8/8/3 7/10/3 5/9/3
f 8/7/4 4/8/4 1/5/4 7/6/4
f 5/10/5 7/9/5 1/12/5 2/5/5
f 3/5/6 4/12/6 8/9/6 6/10/6

