# ProBuilder 5.2.2
# https://unity3d.com/unity/features/worldbuilding/probuilder
# 16.10.2024 12.38.07

mtllib ./OutsideTrashBox.mtl
o OutsideTrashBox

g OutisdeTrashBox
v -0.8270924 -1.571475 0.8270924
v -0.8270924 -1.571476 -0.8270921
v -0.8270924 1.07522 -0.8270925
v -0.8270924 1.07522 0.8270921
v 0.8270924 -1.571476 -0.8270921
v 0.8270924 1.07522 -0.8270925
v 0.8270924 -1.571475 0.8270924
v 0.8270924 1.07522 0.8270921
v -0.8270924 1.239519 -0.8270925
v -0.8270924 1.239518 0.8270921
v 0.8270924 1.571475 -0.8270925
v 0.8270924 1.571475 0.8270921
v 0 1.405496 0.8270921
v 0 1.405497 -0.8270925

vt 0.5 0
vt 0 0
vt 0 0.8203125
vt 0.5 0.8203125
vt 0.4921875 0
vt 1 0
vt 1 0.8203125
vt 0.4921875 0.8203125
vt 0.40625 1
vt 0.40625 0.953125
vt 0 0.953125
vt 0 1
vt 1 1
vt 0.4921875 1
vt 0.4921875 0.96875
vt 0.2460938 0.921875
vt 0 0.875

vn -1 0 0
vn 0 -1.417297E-07 -0.9999999
vn 0 1.192093E-07 0.9999999
vn -0.1967543 0.9804528 4.483738E-07

usemtl OutsideTrashBox
f 13/16/3 10/17/3 4/3/3
f 14/16/2 11/15/2 6/8/2
f 3/3/1 2/2/1 1/1/1
f 1/1/1 4/4/1 3/3/1
f 6/7/2 5/6/2 2/5/2
f 2/5/2 3/8/2 6/7/2
f 4/8/3 1/5/3 7/6/3
f 7/6/3 8/7/3 4/8/3
f 10/11/1 9/10/1 3/9/1
f 3/9/1 4/12/1 10/11/1
f 13/13/4 12/7/4 11/8/4
f 11/8/4 14/14/4 13/13/4
f 4/3/3 8/8/3 12/15/3
f 12/15/3 13/16/3 4/3/3
f 6/8/2 3/3/2 9/17/2
f 9/17/2 14/16/2 6/8/2
f 9/8/4 10/7/4 13/13/4
f 13/13/4 14/14/4 9/8/4

