# ProBuilder 5.2.2
# https://unity3d.com/unity/features/worldbuilding/probuilder
# 15.10.2024 18.46.19

mtllib ./TChair2.mtl
o TChair2

g TChair2_01
v 1381.491 57.72023 -68.2094
v 1381.587 57.72028 -68.20104
v 1381.511 57.72017 -68.28372
v 1381.437 57.7078 -66.94538
v 1381.437 57.70778 -67.02217
v 1381.361 57.7078 -66.94538
v 1380.419 58.82137 -67.20188
v 1380.374 58.81236 -67.16824
v 1380.425 58.80336 -67.13461
v 1381.382 58.82138 -67.20194
v 1381.371 58.80338 -67.13467
v 1381.428 58.81238 -67.1683
v 1380.311 57.69453 -68.32094
v 1380.237 57.69456 -68.23737
v 1380.332 57.69456 -68.24564
v 1380.355 57.70778 -67.02026
v 1380.355 57.7078 -66.94445
v 1380.432 57.7078 -66.94445
v 1381.359 58.81465 -68.07392
v 1381.521 58.81199 -68.04408
v 1381.4 58.82339 -68.18243
v 1380.533 58.8168 -68.07392
v 1380.473 58.82478 -68.18243
v 1380.341 58.81376 -68.04407
v 1380.432 58.96572 -67.00491
v 1380.341 59.03881 -68.02646
v 1380.473 59.04984 -68.16482
v 1381.359 58.96572 -67.00491
v 1381.4 59.04845 -68.16483
v 1381.521 59.03705 -68.02647
v 1381.359 58.73997 -67.00483
v 1380.432 58.73997 -67.00482
v 1380.599 58.73997 -67.00484
v 1380.418 58.7555 -67.22392
v 1381.393 58.75506 -67.22256
v 1381.189 58.73997 -67.00483
v 1380.371 60.10882 -66.80386
v 1380.354 60.12682 -66.87113
v 1380.562 60.27544 -66.83137
v 1380.562 60.24133 -66.7684
v 1380.562 60.32396 -66.78234
v 1380.295 60.11782 -66.83749
v 1381.452 60.10883 -66.80392
v 1381.528 60.11783 -66.83755
v 1381.261 60.32398 -66.78239
v 1381.261 60.24135 -66.76846
v 1381.469 60.12683 -66.87119
v 1381.261 60.27546 -66.83142

vt 0.2109375 0.9609375
vt 0.15625 0.8828125
vt 0.1328125 1
vt 0.1796875 0.9921875
vt 0.203125 0.8984375
vt 0.1328125 0.9296875
vt 0.3046875 0.953125
vt 0.296875 1
vt 0.875 0.9765625
vt 0.8828125 0.8828125
vt 0.265625 0.7890625
vt 0.2734375 0.75
vt 0.859375 0.75
vt 0.84375 0.8359375
vt 0.2734375 0.828125
vt 0.2734375 0.765625
vt 0.8515625 0.6875
vt 0.8515625 0.828125
vt 0.265625 0.7421875
vt 0.265625 0.78125
vt 0.84375 0.7734375
vt 0.3046875 1
vt 0.3046875 0.9609375
vt 0.8828125 0.90625
vt 0.8828125 1
vt 0.2734375 0.8203125
vt 0.265625 0.765625
vt 0.515625 0.65625
vt 0.546875 0.28125
vt 0.5 0.2265625
vt 0.171875 0.65625
vt 0.15625 0.2265625
vt 0.1171875 0.28125
vt 0.5703125 0.0234375
vt 0.203125 0.0234375
vt 0.203125 0.109375
vt 0.5703125 0.109375
vt 0.9453125 0.0234375
vt 0.9453125 0.109375
vt 1 0.0234375
vt 0.625 0.109375
vt 1 0.109375
vt 0.625 0.0234375
vt 0.2734375 0.796875
vt 0.2734375 0.84375
vt 0.84375 0.7890625
vt 0.2734375 0.78125
vt 0.8515625 0.7265625
vt 0.8515625 0.8125
vt 0.296875 0.9375
vt 0.8828125 0.859375
vt 0.2578125 0.734375
vt 0.2578125 0.78125
vt 0.828125 0.78125
vt 0.84375 0.6875
vt 0.296875 0.9453125
vt 0.07429342 0.006455421
vt 0.1051584 0.005830169
vt 0.1096251 0.5941591
vt 0.07743537 0.5911745
vt 0.05120014 0.007164329
vt 0.08054977 0.7175137
vt 0.1115019 0.7133709
vt 0.05370504 0.7279657
vt 0.048238 0.5791064
vt 0.02373484 0.005408794
vt 0.01847851 0.7178122
vt 0.01350233 0.59624
vt 0.05221403 0.007397383
vt 0.07472131 0.006225258
vt 0.105122 0.005184531
vt 0.1239224 0.9873317
vt 0.09240281 0.9882886
vt 0.06242455 0.9803178
vt 0.03003533 0.9939106
vt 0.6328125 0.2578125
vt 0.6015625 0.2890625
vt 0.6328125 0.5859375
vt 0.90625 0.5859375
vt 0.9140625 0.2578125
vt 0.953125 0.3046875

vn 0.002206419 -5.794615 0.005119312
vn 8.00427E-07 -5.794617 0.002019127
vn -7.349534E-07 -5.597693 -1.497804
vn 5.136511 -0.01613081 2.682086
vn -4.778667 -0.9398265 3.139849
vn -4.931329 -0.9708598 2.883923
vn 5.050212 -0.119239 2.83879
vn -1.359137 0.3935777 -5.619202
vn -1.166755 0.3815116 -5.663102
vn 1.004489 0.4799668 -5.686671
vn 4.690687 -1.34371 3.125618
vn 4.927483 -1.268218 2.772928
vn 0.7373027 0.5886394 -5.717297
vn -5.189183 0.05413472 2.578185
vn -5.16322 0.05048073 2.629867
vn -0.02247008 5.77945 0.4183713
vn -0.04494183 5.779377 0.4175691
vn -0.02030431 5.779577 0.4167261
vn 0.03735865 5.779595 0.4152934
vn 0.03952439 5.779699 0.4136465
vn 0.07038248 5.77933 0.4146977
vn 3.768363 0.001534369 4.401934
vn -3.91361 -0.01480092 4.273293
vn -3.911075 0.0014893 4.275638
vn 3.766559 -0.01896919 4.403438
vn 5.566739 0.1507163 -1.601964
vn 5.567767 0.1335422 -1.599914
vn -5.469118 0.1546133 -1.908515
vn -5.468275 0.1413991 -1.911953
vn -2.281359 0.412135 -5.310662
vn 2.396446 0.4151222 -5.259498
vn 2.396433 0.4151284 -5.259502
vn 5.290622 -0.7270368 2.249071
vn -4.005751 0.5120206 4.155645
vn -3.929679 0.5400491 4.224164
vn 5.232423 -0.7436838 2.376189
vn -2.177736 -0.8052282 -5.309112
vn -2.150772 -0.8807591 -5.30811
vn 2.444963 -0.750464 -5.199668
vn 4.077013 0.5433396 4.081707
vn 3.906654 0.5167971 4.24836
vn 2.65338 -0.8514495 -5.080571
vn -5.25878 -0.7627234 2.311076
vn -5.251986 -0.7409202 2.33351
vn 2.124875 1.401403 -5.205629
vn 3.146573 -1.102596 4.739299
vn 2.846175 -2.181228 4.551826
vn 1.706376 0.6421094 -5.500325
vn -5.785708 -0.3116527 -0.07775105
vn 0.5992077 -0.5961992 -5.732634
vn 0.8423522 -4.368745 3.712425
vn -2.087552 5.097401 1.79895
vn -5.117751 2.530245 0.9920036
vn 5.761876 -0.5085971 0.3459713
vn -3.286345 -0.965241 4.673953
vn -2.748978 -2.479511 4.457884
vn 5.123175 2.488327 1.067191
vn -2.316743 1.432134 -5.114614
vn 2.085093 5.152533 1.637494
vn -1.000641 -4.346179 3.6996
vn -1.795964 0.8205882 -5.44782
vn -0.4989518 -0.4983277 -5.751548
vn 0.02188422 -5.779782 -0.413797
vn 0.04810139 -5.779568 -0.4145635
vn 0.02404992 -5.779657 -0.4154169
vn -0.03891458 -5.779784 -0.4125109
vn -0.04108024 -5.779885 -0.4108893
vn -0.07349435 -5.779486 -0.411985

usemtl TChair2
f 3/3/1 2/2/1 1/1/1
f 6/3/2 5/2/2 4/1/2
f 9/6/3 8/5/3 7/4/3
f 12/4/3 11/6/3 10/5/3
f 15/1/2 14/3/2 13/2/2
f 18/2/2 17/1/2 16/3/2
f 27/30/18 26/29/17 25/28/16
f 28/31/19 30/33/21 29/32/20
f 32/78/65 24/77/64 23/76/63
f 21/80/67 20/81/68 31/79/66
f 19/9/6 1/8/5 2/7/4
f 2/7/4 20/10/7 19/9/6
f 21/13/9 3/12/8 1/11/5
f 1/11/5 19/14/6 21/13/9
f 20/17/7 2/16/4 3/15/8
f 3/15/8 21/18/9 20/17/7
f 22/21/12 15/20/11 13/19/10
f 13/19/10 23/17/13 22/21/12
f 24/24/15 14/23/14 15/22/11
f 15/22/11 22/25/12 24/24/15
f 23/17/13 13/27/10 14/26/14
f 14/26/14 24/18/15 23/17/13
f 27/30/18 25/28/16 28/31/19
f 28/31/19 29/32/20 27/30/18
f 25/36/24 32/35/23 31/34/22
f 31/34/22 28/37/25 25/36/24
f 28/37/25 31/34/22 20/38/26
f 20/38/26 30/39/27 28/37/25
f 32/40/23 25/42/24 26/41/28
f 26/41/28 24/43/29 32/40/23
f 24/43/29 26/41/28 27/37/30
f 27/37/30 23/34/30 24/43/29
f 23/35/30 27/36/30 29/37/31
f 29/37/31 21/34/32 23/35/30
f 21/34/32 29/37/31 30/41/27
f 30/41/27 20/43/26 21/34/32
f 32/46/35 17/45/34 18/44/33
f 18/44/33 33/17/36 32/46/35
f 34/48/38 16/47/37 17/15/34
f 17/15/34 32/49/35 34/48/38
f 33/51/36 18/50/33 16/22/37
f 16/22/37 34/25/38 33/51/36
f 31/54/41 4/53/40 5/52/39
f 5/52/39 35/55/42 31/54/41
f 36/13/44 6/12/43 4/11/40
f 4/11/40 31/14/41 36/13/44
f 35/51/42 5/56/39 6/8/43
f 6/8/43 36/25/44 35/51/42
f 37/59/47 9/58/46 7/57/45
f 7/57/45 38/60/48 37/59/47
f 38/60/48 7/57/45 8/61/49
f 8/61/49 42/65/53 38/60/48
f 37/59/47 38/60/48 39/62/50
f 39/62/50 40/63/51 37/59/47
f 41/64/52 39/62/50 38/60/48
f 38/60/48 42/65/53 41/64/52
f 42/65/53 8/61/49 9/66/46
f 9/66/46 37/68/47 42/65/53
f 40/67/51 41/64/52 42/65/53
f 42/65/53 37/68/47 40/67/51
f 43/68/56 11/66/55 12/69/54
f 12/69/54 44/65/57 43/68/56
f 44/65/57 12/69/54 10/70/58
f 10/70/58 47/60/61 44/65/57
f 43/68/56 44/65/57 45/64/59
f 45/64/59 46/67/60 43/68/56
f 47/60/61 10/70/58 11/71/55
f 11/71/55 43/59/56 47/60/61
f 47/60/61 43/59/56 46/63/60
f 46/63/60 48/62/62 47/60/61
f 44/65/57 47/60/61 48/62/62
f 48/62/62 45/64/59 44/65/57
f 48/62/62 46/63/60 40/72/51
f 40/72/51 39/73/50 48/62/62
f 45/64/59 48/62/62 39/73/50
f 39/73/50 41/74/52 45/64/59
f 46/67/60 45/64/59 41/74/52
f 41/74/52 40/75/51 46/67/60
f 21/80/67 31/79/66 32/78/65
f 32/78/65 23/76/63 21/80/67

g Back
v 1380.386 59.87134 -66.89077
v 1380.386 59.6542 -66.94887
v 1380.925 59.65421 -66.94289
v 1380.925 59.87135 -66.88478
v 1381.464 59.65421 -66.9369
v 1381.464 59.87135 -66.8788

vt 0.2998709 1.934475
vt 0.6877826 1.934475
vt 0.6851076 1.004437
vt 0.2971959 1.004436
vt 0.6824327 0.07439816
vt 0.2945209 0.07439816

vn 0.006212601 0.1497778 -0.5597355

usemtl TChair2Back
f 51/84/69 50/83/69 49/82/69 52/85/69
f 51/84/69 52/85/69 54/87/69 53/86/69

g Back (1)
v 1380.368 60.24398 -66.79126
v 1380.368 60.02684 -66.84937
v 1380.925 60.02684 -66.84335
v 1380.925 60.24398 -66.78524
v 1381.49 60.02685 -66.83742
v 1381.49 60.24399 -66.77931
v 1380.386 59.87135 -66.89075
v 1380.386 59.65421 -66.94886
v 1380.925 59.65421 -66.94289
v 1380.925 59.87135 -66.88478
v 1381.464 59.65421 -66.9369
v 1381.464 59.87135 -66.87879

vt 0.2998709 1.934475
vt 0.6877826 1.934475
vt 0.6851076 1.004437
vt 0.2971959 1.004436
vt 0.6824327 0.07439816
vt 0.2945209 0.07439816

vn 0.006044651 0.1497783 -0.5597372
vn 0.005874014 0.1497787 -0.5597389

usemtl TChair2Back
f 57/90/70 56/89/70 55/88/70 58/91/70
f 57/90/71 58/91/71 60/93/71 59/92/71
f 63/90/70 62/89/70 61/88/70 64/91/70
f 63/90/70 64/91/70 66/93/70 65/92/70
f 63/90/70 62/89/70 61/88/70 64/91/70
f 63/90/70 64/91/70 66/93/70 65/92/70

