# ProBuilder 5.2.2
# https://unity3d.com/unity/features/worldbuilding/probuilder
# 15.10.2024 19.03.40

mtllib ./TelephonePole.mtl
o TelephonePole

g TelephonePole_01
v 0.4015085 12.59709 2.164649 1 1 1
v 1.461079 12.59709 2.164649 1 1 1
v 0.9312936 12.59709 2.471198 1 1 1
v 0.4015085 12.59709 1.552619 1 1 1
v 1.461079 12.59709 1.552619 1 1 1
v 0.9312937 12.59709 1.24607 1 1 1
v 0.9312935 -14.86295 2.471198 0 0.01378256 0.04968333
v 0.4015085 -14.86295 2.164649 0 0.01378256 0.04968333
v 1.461079 -14.86295 2.164649 0 0.01378256 0.04968333
v 1.461079 -14.86295 1.552619 0 0.01378256 0.04968333
v 0.9312937 -14.86295 1.24607 0 0.01378256 0.04968333
v 0.4015085 -14.86295 1.552619 0 0.01378256 0.04968333
v 0.4015085 11.06708 -2.725183 1 1 1
v 0.4015085 11.47797 6.442451 1 1 1
v 0.4015084 11.47797 -2.725182 1 1 1
v 0.4015085 11.06708 6.442451 1 1 1
v -0.01078401 11.06708 -2.725183 1 1 1
v -0.01078403 11.47797 -2.725183 1 1 1
v -0.010784 11.06708 6.442451 1 1 1
v -0.01078402 11.47797 6.442451 1 1 1
v 0.4015085 8.73752 -2.725183 1 1 1
v 0.4015085 9.148413 6.442451 1 1 1
v 0.4015085 9.148411 -2.725183 1 1 1
v 0.4015085 8.737522 6.442451 1 1 1
v -0.01078403 8.73752 -2.725182 1 1 1
v -0.01078405 9.148411 -2.725182 1 1 1
v -0.01078402 8.737522 6.442451 1 1 1
v -0.01078404 9.148413 6.442451 1 1 1
v 0.4015085 3.250546 -1.579095 1 1 1
v 0.4015085 3.661369 5.296363 1 1 1
v 0.4015085 3.66137 -1.579095 1 1 1
v 0.4015084 3.250545 5.296363 1 1 1
v -0.01078404 3.250546 -1.579095 1 1 1
v -0.01078402 3.66137 -1.579095 1 1 1
v -0.01078411 3.250546 5.296363 1 1 1
v -0.01078413 3.66137 5.296363 1 1 1
v 0.4015085 0.9209862 -1.579095 1 1 1
v 0.4015085 1.33181 5.296363 1 1 1
v 0.4015085 1.33181 -1.579095 1 1 1
v 0.4015085 0.9209862 5.296363 1 1 1
v -0.01078403 0.9209862 -1.579095 1 1 1
v -0.01078402 1.33181 -1.579095 1 1 1
v -0.01078401 0.9209862 5.296363 1 1 1
v -0.01078403 1.33181 5.296363 1 1 1

vt 0.9009009 0.7433628
vt 0.9009009 0.9469026
vt 0.9369369 0.840708
vt 0.7657658 0.7433628
vt 0.7657658 0.9469026
vt 0.7297297 0.8495575
vt 0.009009009 4.00885
vt 0.1015625 0
vt 0 0
vt 0.0990991 4.00885
vt 0.1875 0
vt 0.2072072 4.00885
vt 0.296875 0
vt 0.2972973 4.00885
vt 0.390625 0
vt 0.4054054 4.00885
vt 0.484375 0
vt 0.4864865 4.00885
vt 0.5859375 0
vt 0.5855856 4.00885
vt 0.1351351 0
vt 0.1891892 1.442478
vt 0.1891892 0
vt 0.1351351 1.442478
vt 0.7927928 0.8938053
vt 0.8918919 0.7964602
vt 0.7927928 0.7964602
vt 0.8918919 0.8938053
vt 0.2522523 1.442478
vt 0.2522523 0
vt 0.08108108 0
vt 0.08108108 1.442478
vt 0.02702703 0
vt 0.02702703 1.442478
vt 0.5225225 0
vt 0.5765766 1.442478
vt 0.5765766 0
vt 0.5225225 1.442478
vt 0.6396396 1.442478
vt 0.6396396 0
vt 0.4684685 0
vt 0.4684685 1.442478
vt 0.4144144 0
vt 0.4144144 1.442478
vt 0.3963964 0
vt 0.4504505 0.8495575
vt 0.4504505 0
vt 0.3963964 0.8495575
vt 0.5135135 0.8495575
vt 0.5135135 0
vt 0.3423423 0
vt 0.3423423 0.8495575
vt 0.2882883 0
vt 0.2882883 0.8495575
vt 0.1891892 0.1504425
vt 0.2432432 1
vt 0.2432432 0.1504425
vt 0.1891892 1
vt 0.3063063 1
vt 0.3063063 0.1504425
vt 0.1351351 0.1504425
vt 0.1351351 1
vt 0.08108108 0.1504425
vt 0.08108108 1

vn -4.216696E-08 1 1.573693E-07
vn -0.8662649 1.445023E-09 0.4995849
vn -6.716849E-15 1.974893E-09 1
vn 0.8662649 2.916978E-10 0.4995849
vn 0.8662649 -1.120784E-09 -0.4995848
vn 2.878684E-08 -4.836914E-10 -1
vn -0.8662649 -8.569858E-11 -0.4995849
vn 1 4.216696E-08 0
vn -1 -4.216696E-08 0
vn 4.216692E-08 -1 5.068314E-08

usemtl WoodTelephonePole
f 3/3/1 2/2/1 1/1/1
f 5/5/1 6/6/1 4/4/1
f 18/27/6 15/26/6 17/25/6
f 13/28/6 17/25/6 15/26/6
f 14/26/3 20/28/3 16/27/3
f 19/25/3 16/27/3 20/28/3
f 26/28/6 23/25/6 25/26/6
f 21/27/6 25/26/6 23/25/6
f 22/25/3 28/27/3 24/28/3
f 27/26/3 24/28/3 28/27/3
f 34/27/6 31/26/6 33/25/6
f 29/28/6 33/25/6 31/26/6
f 30/26/3 36/28/3 32/27/3
f 35/25/3 32/27/3 36/28/3
f 42/28/6 39/25/6 41/26/6
f 37/27/6 41/26/6 39/25/6
f 38/25/3 44/27/3 40/28/3
f 43/26/3 40/28/3 44/27/3
f 4/4/1 1/1/1 2/2/1
f 2/2/1 5/5/1 4/4/1
f 1/7/2 8/9/2 7/8/3
f 7/8/3 3/10/3 1/7/2
f 3/10/3 7/8/3 9/11/4
f 9/11/4 2/12/4 3/10/3
f 2/12/4 9/11/4 10/13/5
f 10/13/5 5/14/5 2/12/4
f 5/14/5 10/13/5 11/15/6
f 11/15/6 6/16/6 5/14/5
f 6/16/6 11/15/6 12/17/7
f 12/17/7 4/18/7 6/16/6
f 4/18/7 12/17/7 8/19/2
f 8/19/2 1/20/2 4/18/7
f 13/21/8 15/23/8 14/22/8
f 14/22/8 16/24/8 13/21/8
f 19/23/9 20/30/9 18/29/9
f 18/29/9 17/22/9 19/23/9
f 20/31/1 14/21/1 15/24/1
f 15/24/1 18/32/1 20/31/1
f 16/32/10 19/34/10 17/33/10
f 17/33/10 13/31/10 16/32/10
f 21/35/8 23/37/8 22/36/8
f 22/36/8 24/38/8 21/35/8
f 27/37/9 28/40/9 26/39/9
f 26/39/9 25/36/9 27/37/9
f 28/41/1 22/35/1 23/38/1
f 23/38/1 26/42/1 28/41/1
f 24/42/10 27/44/10 25/43/10
f 25/43/10 21/41/10 24/42/10
f 29/45/8 31/47/8 30/46/8
f 30/46/8 32/48/8 29/45/8
f 35/47/9 36/50/9 34/49/9
f 34/49/9 33/46/9 35/47/9
f 36/51/1 30/45/1 31/48/1
f 31/48/1 34/52/1 36/51/1
f 32/52/10 35/54/10 33/53/10
f 33/53/10 29/51/10 32/52/10
f 37/55/8 39/57/8 38/56/8
f 38/56/8 40/58/8 37/55/8
f 43/57/9 44/60/9 42/59/9
f 42/59/9 41/56/9 43/57/9
f 44/61/1 38/55/1 39/58/1
f 39/58/1 42/62/1 44/61/1
f 40/62/10 43/64/10 41/63/10
f 41/63/10 37/61/10 40/62/10

g TelephoneExtras_01
v 0.3908273 6.785406 1.8581 1 1 1
v 0.4121897 9.130586 4.042396 1 1 1
v 0.4121896 8.942864 4.200477 1 1 1
v 0.3908273 7.182945 1.8581 1 1 1
v 0.3908273 -1.031128 1.8581 1 1 1
v 0.4121896 1.313986 4.042396 1 1 1
v 0.4121896 1.126265 4.200477 1 1 1
v 0.3908273 -0.6336555 1.8581 1 1 1
v 0.211384 10.21379 -0.3026971 1 1 1
v 0.211384 9.044403 -0.3026971 1 1 1
v 0.2113839 9.044403 -1.222344 1 1 1
v 0.211384 10.21379 -1.222344 1 1 1
v 0.674946 10.26058 4.505958 1 1 1
v 0.6749459 9.083655 4.505958 1 1 1
v -0.252178 9.083655 4.505958 1 1 1
v -0.252178 10.26058 4.505958 1 1 1
v 0.211384 10.26058 4.042396 1 1 1
v 0.211384 9.083655 4.042396 1 1 1
v 0.211384 9.083655 4.968451 1 1 1
v 0.211384 10.26058 4.968451 1 1 1
v 0.211384 12.59549 -0.3005609 1 1 1
v 0.211384 11.42149 -0.3005609 1 1 1
v 0.211384 11.42149 -1.224481 1 1 1
v 0.211384 12.59549 -1.224481 1 1 1
v 0.674946 12.57566 4.505958 1 1 1
v 0.6749459 11.39873 4.505958 1 1 1
v -0.2521781 11.39873 4.505958 1 1 1
v -0.252178 12.57566 4.505958 1 1 1
v -0.2500418 12.59549 -0.7630547 1 1 1
v -0.2500418 11.42149 -0.7630547 1 1 1
v 0.6728097 11.42149 -0.7630548 1 1 1
v 0.6728097 12.59549 -0.7630547 1 1 1
v 0.211384 12.57566 4.042396 1 1 1
v 0.2113839 11.39873 4.042396 1 1 1
v 0.211384 11.39873 4.968451 1 1 1
v 0.2113839 12.57566 4.968452 1 1 1
v -0.2479056 10.21379 -0.7630548 1 1 1
v -0.2479056 9.044403 -0.7630548 1 1 1
v 0.6706735 9.044403 -0.7630547 1 1 1
v 0.6706735 10.21379 -0.7630547 1 1 1
v 0.3908273 9.114966 1.8581 1 1 1
v 0.4121897 11.46015 4.042396 1 1 1
v 0.4121896 11.27242 4.200477 1 1 1
v 0.3908273 9.512506 1.8581 1 1 1
v 0.4121896 11.44119 -0.3261956 1 1 1
v 0.4121896 11.25347 -0.4832085 1 1 1
v 0.4121896 9.111561 -0.3261956 1 1 1
v 0.4121896 8.92384 -0.4832086 1 1 1
v 0.9312937 5.690856 3.043708 1 1 1
v 0.9312935 5.690855 2.471198 1 1 1
v 0.9312935 6.125978 2.471198 1 1 1
v 0.9312937 6.125979 3.043708 1 1 1
v 0.211384 10.21379 -1.563073 1 1 1
v 0.211384 9.044402 -1.563073 1 1 1
v 0.2113839 9.044403 -2.48272 1 1 1
v 0.211384 10.21379 -2.48272 1 1 1
v 0.211384 12.59549 -1.560937 1 1 1
v 0.211384 11.42149 -1.560937 1 1 1
v 0.211384 11.42149 -2.483788 1 1 1
v 0.211384 12.59549 -2.483788 1 1 1
v -0.2500418 12.59549 -2.022363 1 1 1
v -0.2500418 11.42149 -2.022362 1 1 1
v 0.6728098 11.42149 -2.022363 1 1 1
v 0.6728097 12.59549 -2.022362 1 1 1
v -0.2479056 10.21379 -2.022363 1 1 1
v -0.2479056 9.044402 -2.022363 1 1 1
v 0.6706735 9.044402 -2.022363 1 1 1
v 0.6706735 10.21379 -2.022363 1 1 1
v 0.6749459 10.26058 5.765265 1 1 1
v 0.6749459 9.083655 5.765265 1 1 1
v -0.252178 9.083655 5.765265 1 1 1
v -0.2521781 10.26058 5.765266 1 1 1
v 0.211384 10.26058 5.302772 1 1 1
v 0.2113839 9.083655 5.302772 1 1 1
v 0.211384 9.083657 6.227759 1 1 1
v 0.2113839 10.26059 6.227759 1 1 1
v 0.6749459 12.57566 5.765265 1 1 1
v 0.674946 11.39873 5.765265 1 1 1
v -0.252178 11.39873 5.765265 1 1 1
v -0.2521781 12.57566 5.765266 1 1 1
v 0.2113839 12.57566 5.302772 1 1 1
v 0.2113839 11.39873 5.302772 1 1 1
v 0.2113839 11.39873 6.22776 1 1 1
v 0.211384 12.57566 6.227759 1 1 1
v 0.211384 2.397188 -0.3026971 1 1 1
v 0.211384 1.227802 -0.3026971 1 1 1
v 0.211384 1.227802 -1.222344 1 1 1
v 0.2113839 2.397188 -1.222344 1 1 1
v 0.674946 2.444052 4.505958 1 1 1
v 0.674946 1.267122 4.505958 1 1 1
v -0.252178 1.267122 4.505958 1 1 1
v -0.2521781 2.444052 4.505958 1 1 1
v 0.211384 2.444052 4.042396 1 1 1
v 0.211384 1.267122 4.042396 1 1 1
v 0.2113839 1.267122 4.968452 1 1 1
v 0.211384 2.444052 4.968451 1 1 1
v 0.211384 4.778885 -0.3005608 1 1 1
v 0.211384 3.604893 -0.3005609 1 1 1
v 0.2113839 3.604893 -1.224481 1 1 1
v 0.211384 4.778885 -1.224481 1 1 1
v 0.674946 4.759058 4.505958 1 1 1
v 0.6749459 3.582196 4.505958 1 1 1
v -0.252178 3.582196 4.505958 1 1 1
v -0.2521781 4.759058 4.505958 1 1 1
v -0.2500418 4.778885 -0.7630548 1 1 1
v -0.2500418 3.604892 -0.7630548 1 1 1
v 0.6728097 3.604893 -0.7630547 1 1 1
v 0.6728097 4.778885 -0.7630548 1 1 1
v 0.211384 4.759058 4.042396 1 1 1
v 0.211384 3.582196 4.042396 1 1 1
v 0.2113839 3.582196 4.968452 1 1 1
v 0.211384 4.759058 4.968451 1 1 1
v -0.2479056 2.397188 -0.7630547 1 1 1
v -0.2479056 1.227802 -0.7630547 1 1 1
v 0.6706735 1.227802 -0.7630547 1 1 1
v 0.6706735 2.397188 -0.7630547 1 1 1
v 0.3908273 1.298432 1.8581 1 1 1
v 0.4121897 3.643612 4.042396 1 1 1
v 0.4121896 3.455891 4.200477 1 1 1
v 0.3908273 1.695904 1.8581 1 1 1
v 0.4121896 3.624586 -0.3261956 1 1 1
v 0.4121896 3.436864 -0.4832086 1 1 1
v 0.4121896 1.295027 -0.3261956 1 1 1
v 0.4121896 1.107306 -0.4832086 1 1 1

vt 0.01724138 0.2954545
vt 0.5517241 0.9090909
vt 0.5 0.9545454
vt 0.1034483 0.2954545
vt 1 1
vt 1 0.2954545
vt 0.5689655 0.2954545
vt 0.5689655 1
vt 0.3448276 0.02272727
vt 0.1896552 0.02272727
vt 0.1896552 0.1818182
vt 0.3448276 0.1818182

vn -0.003986148 0.6815738 -0.7317385
vn -0.9999775 0.004325365 0.005135821
vn 0.9999522 -3.673651E-08 -0.009779499
vn -1 7.303942E-09 2.878684E-08
vn -1.017873E-07 3.830483E-08 1
vn 1 -3.647909E-08 -2.878685E-08
vn -0.9999999 3.824683E-09 -1.336002E-08
vn 6.217249E-15 1.024654E-08 -1
vn -0.9999649 0.002162566 0.007457761
vn -0.9999522 -4.370395E-08 0.009779557
vn 0.9999522 4.062595E-08 0.009779523
vn 0.9999648 -0.002163099 0.00747595
vn 0.9999773 -0.004326239 0.00517239
vn -0.9999648 0.002163206 -0.007475892
vn -0.9999773 0.004326378 -0.005172346
vn -0.9999522 3.414922E-08 -0.009779437

usemtl WoodTelephonePole_Insulator
f 47/67/12 46/66/11 45/65/11
f 46/66/11 45/65/11 48/68/13
f 51/67/12 50/66/11 49/65/11
f 50/66/11 49/65/11 52/68/13
f 55/71/14 54/70/14 53/69/14
f 53/69/14 56/72/14 55/71/14
f 59/71/15 58/70/15 57/69/15
f 57/69/15 60/72/15 59/71/15
f 63/71/16 62/70/16 61/69/16
f 61/69/16 64/72/16 63/71/16
f 67/71/17 66/70/17 65/69/17
f 65/69/17 68/72/17 67/71/17
f 71/71/15 70/70/15 69/69/15
f 69/69/15 72/72/15 71/71/15
f 75/71/18 74/70/18 73/69/18
f 73/69/18 76/72/18 75/71/18
f 79/71/16 78/70/16 77/69/16
f 77/69/16 80/72/16 79/71/16
f 83/71/18 82/70/18 81/69/18
f 81/69/18 84/72/18 83/71/18
f 85/65/19 87/67/12 86/66/19
f 86/66/19 88/68/20 85/65/19
f 90/67/23 89/66/22 88/68/21
f 88/68/21 85/65/22 90/67/23
f 91/66/24 92/67/25 45/65/24
f 45/65/24 48/68/26 91/66/24
f 95/75/14 94/74/14 93/73/14
f 93/73/14 96/76/14 95/75/14
f 99/71/14 98/70/14 97/69/14
f 97/69/14 100/72/14 99/71/14
f 103/71/14 102/70/14 101/69/14
f 101/69/14 104/72/14 103/71/14
f 107/71/18 106/70/18 105/69/18
f 105/69/18 108/72/18 107/71/18
f 111/71/18 110/70/18 109/69/18
f 109/69/18 112/72/18 111/71/18
f 115/71/15 114/70/15 113/69/15
f 113/69/15 116/72/15 115/71/15
f 119/71/16 118/70/16 117/69/16
f 117/69/16 120/72/16 119/71/16
f 123/71/15 122/70/15 121/69/15
f 121/69/15 124/72/15 123/71/15
f 127/71/16 126/70/16 125/69/16
f 125/69/16 128/72/16 127/71/16
f 131/71/14 130/70/14 129/69/14
f 129/69/14 132/72/14 131/71/14
f 135/71/15 134/70/15 133/69/15
f 133/69/15 136/72/15 135/71/15
f 139/71/16 138/70/16 137/69/16
f 137/69/16 140/72/16 139/71/16
f 143/71/17 142/70/17 141/69/17
f 141/69/17 144/72/14 143/71/17
f 147/71/15 146/70/15 145/69/15
f 145/69/15 148/72/15 147/71/15
f 151/71/18 150/70/18 149/69/18
f 149/69/18 152/72/18 151/71/18
f 155/71/16 154/70/16 153/69/16
f 153/69/16 156/72/16 155/71/16
f 159/71/18 158/70/18 157/69/18
f 157/69/18 160/72/18 159/71/18
f 161/65/19 163/67/12 162/66/19
f 162/66/19 164/68/20 161/65/19
f 166/67/23 165/66/22 164/68/21
f 164/68/21 161/65/22 166/67/23
f 167/66/24 168/67/25 49/65/24
f 49/65/24 52/68/26 167/66/24

g TelephoneExtras_01
v 0.3908273 6.785406 1.8581 1 1 1
v 0.4121897 9.130586 4.042396 1 1 1
v 0.4121896 8.942864 4.200477 1 1 1
v 0.3908273 7.182945 1.8581 1 1 1
v 0.3908273 -1.031128 1.8581 1 1 1
v 0.4121896 1.313986 4.042396 1 1 1
v 0.4121896 1.126265 4.200477 1 1 1
v 0.3908273 -0.6336555 1.8581 1 1 1
v 0.211384 10.21379 -0.3026971 1 1 1
v 0.211384 9.044403 -0.3026971 1 1 1
v 0.2113839 9.044403 -1.222344 1 1 1
v 0.211384 10.21379 -1.222344 1 1 1
v 0.674946 10.26058 4.505958 1 1 1
v 0.6749459 9.083655 4.505958 1 1 1
v -0.252178 9.083655 4.505958 1 1 1
v -0.252178 10.26058 4.505958 1 1 1
v 0.211384 10.26058 4.042396 1 1 1
v 0.211384 9.083655 4.042396 1 1 1
v 0.211384 9.083655 4.968451 1 1 1
v 0.211384 10.26058 4.968451 1 1 1
v 0.211384 12.59549 -0.3005609 1 1 1
v 0.211384 11.42149 -0.3005609 1 1 1
v 0.211384 11.42149 -1.224481 1 1 1
v 0.211384 12.59549 -1.224481 1 1 1
v 0.674946 12.57566 4.505958 1 1 1
v 0.6749459 11.39873 4.505958 1 1 1
v -0.2521781 11.39873 4.505958 1 1 1
v -0.252178 12.57566 4.505958 1 1 1
v -0.2500418 12.59549 -0.7630547 1 1 1
v -0.2500418 11.42149 -0.7630547 1 1 1
v 0.6728097 11.42149 -0.7630548 1 1 1
v 0.6728097 12.59549 -0.7630547 1 1 1
v 0.211384 12.57566 4.042396 1 1 1
v 0.2113839 11.39873 4.042396 1 1 1
v 0.211384 11.39873 4.968451 1 1 1
v 0.2113839 12.57566 4.968452 1 1 1
v -0.2479056 10.21379 -0.7630548 1 1 1
v -0.2479056 9.044403 -0.7630548 1 1 1
v 0.6706735 9.044403 -0.7630547 1 1 1
v 0.6706735 10.21379 -0.7630547 1 1 1
v 0.3908273 9.114966 1.8581 1 1 1
v 0.4121897 11.46015 4.042396 1 1 1
v 0.4121896 11.27242 4.200477 1 1 1
v 0.3908273 9.512506 1.8581 1 1 1
v 0.4121896 11.44119 -0.3261956 1 1 1
v 0.4121896 11.25347 -0.4832085 1 1 1
v 0.4121896 9.111561 -0.3261956 1 1 1
v 0.4121896 8.92384 -0.4832086 1 1 1
v 0.9312937 5.690856 3.043708 1 1 1
v 0.9312935 5.690855 2.471198 1 1 1
v 0.9312935 6.125978 2.471198 1 1 1
v 0.9312937 6.125979 3.043708 1 1 1
v 0.211384 10.21379 -1.563073 1 1 1
v 0.211384 9.044402 -1.563073 1 1 1
v 0.2113839 9.044403 -2.48272 1 1 1
v 0.211384 10.21379 -2.48272 1 1 1
v 0.211384 12.59549 -1.560937 1 1 1
v 0.211384 11.42149 -1.560937 1 1 1
v 0.211384 11.42149 -2.483788 1 1 1
v 0.211384 12.59549 -2.483788 1 1 1
v -0.2500418 12.59549 -2.022363 1 1 1
v -0.2500418 11.42149 -2.022362 1 1 1
v 0.6728098 11.42149 -2.022363 1 1 1
v 0.6728097 12.59549 -2.022362 1 1 1
v -0.2479056 10.21379 -2.022363 1 1 1
v -0.2479056 9.044402 -2.022363 1 1 1
v 0.6706735 9.044402 -2.022363 1 1 1
v 0.6706735 10.21379 -2.022363 1 1 1
v 0.6749459 10.26058 5.765265 1 1 1
v 0.6749459 9.083655 5.765265 1 1 1
v -0.252178 9.083655 5.765265 1 1 1
v -0.2521781 10.26058 5.765266 1 1 1
v 0.211384 10.26058 5.302772 1 1 1
v 0.2113839 9.083655 5.302772 1 1 1
v 0.211384 9.083657 6.227759 1 1 1
v 0.2113839 10.26059 6.227759 1 1 1
v 0.6749459 12.57566 5.765265 1 1 1
v 0.674946 11.39873 5.765265 1 1 1
v -0.252178 11.39873 5.765265 1 1 1
v -0.2521781 12.57566 5.765266 1 1 1
v 0.2113839 12.57566 5.302772 1 1 1
v 0.2113839 11.39873 5.302772 1 1 1
v 0.2113839 11.39873 6.22776 1 1 1
v 0.211384 12.57566 6.227759 1 1 1
v 0.211384 2.397188 -0.3026971 1 1 1
v 0.211384 1.227802 -0.3026971 1 1 1
v 0.211384 1.227802 -1.222344 1 1 1
v 0.2113839 2.397188 -1.222344 1 1 1
v 0.674946 2.444052 4.505958 1 1 1
v 0.674946 1.267122 4.505958 1 1 1
v -0.252178 1.267122 4.505958 1 1 1
v -0.2521781 2.444052 4.505958 1 1 1
v 0.211384 2.444052 4.042396 1 1 1
v 0.211384 1.267122 4.042396 1 1 1
v 0.2113839 1.267122 4.968452 1 1 1
v 0.211384 2.444052 4.968451 1 1 1
v 0.211384 4.778885 -0.3005608 1 1 1
v 0.211384 3.604893 -0.3005609 1 1 1
v 0.2113839 3.604893 -1.224481 1 1 1
v 0.211384 4.778885 -1.224481 1 1 1
v 0.674946 4.759058 4.505958 1 1 1
v 0.6749459 3.582196 4.505958 1 1 1
v -0.252178 3.582196 4.505958 1 1 1
v -0.2521781 4.759058 4.505958 1 1 1
v -0.2500418 4.778885 -0.7630548 1 1 1
v -0.2500418 3.604892 -0.7630548 1 1 1
v 0.6728097 3.604893 -0.7630547 1 1 1
v 0.6728097 4.778885 -0.7630548 1 1 1
v 0.211384 4.759058 4.042396 1 1 1
v 0.211384 3.582196 4.042396 1 1 1
v 0.2113839 3.582196 4.968452 1 1 1
v 0.211384 4.759058 4.968451 1 1 1
v -0.2479056 2.397188 -0.7630547 1 1 1
v -0.2479056 1.227802 -0.7630547 1 1 1
v 0.6706735 1.227802 -0.7630547 1 1 1
v 0.6706735 2.397188 -0.7630547 1 1 1
v 0.3908273 1.298432 1.8581 1 1 1
v 0.4121897 3.643612 4.042396 1 1 1
v 0.4121896 3.455891 4.200477 1 1 1
v 0.3908273 1.695904 1.8581 1 1 1
v 0.4121896 3.624586 -0.3261956 1 1 1
v 0.4121896 3.436864 -0.4832086 1 1 1
v 0.4121896 1.295027 -0.3261956 1 1 1
v 0.4121896 1.107306 -0.4832086 1 1 1

vt 0.01724138 0.2954545
vt 0.5517241 0.9090909
vt 0.5 0.9545454
vt 0.1034483 0.2954545
vt 1 1
vt 1 0.2954545
vt 0.5689655 0.2954545
vt 0.5689655 1
vt 0.3448276 0.02272727
vt 0.1896552 0.02272727
vt 0.1896552 0.1818182
vt 0.3448276 0.1818182

vn -0.003986148 0.6815738 -0.7317385
vn -0.9999775 0.004325365 0.005135821
vn 0.9999522 -3.673651E-08 -0.009779499
vn -1 7.303942E-09 2.878684E-08
vn -1.017873E-07 3.830483E-08 1
vn 1 -3.647909E-08 -2.878685E-08
vn -0.9999999 3.824683E-09 -1.336002E-08
vn 6.217249E-15 1.024654E-08 -1
vn -0.9999649 0.002162566 0.007457761
vn -0.9999522 -4.370395E-08 0.009779557
vn 0.9999522 4.062595E-08 0.009779523
vn 0.9999648 -0.002163099 0.00747595
vn 0.9999773 -0.004326239 0.00517239
vn -0.9999648 0.002163206 -0.007475892
vn -0.9999773 0.004326378 -0.005172346
vn -0.9999522 3.414922E-08 -0.009779437

usemtl WoodTelephonePole_Insulator
f 171/79/28 170/78/27 169/77/27
f 170/78/27 169/77/27 172/80/29
f 175/79/28 174/78/27 173/77/27
f 174/78/27 173/77/27 176/80/29
f 179/83/30 178/82/30 177/81/30
f 177/81/30 180/84/30 179/83/30
f 183/83/31 182/82/31 181/81/31
f 181/81/31 184/84/31 183/83/31
f 187/83/32 186/82/32 185/81/32
f 185/81/32 188/84/32 187/83/32
f 191/83/33 190/82/33 189/81/33
f 189/81/33 192/84/33 191/83/33
f 195/83/31 194/82/31 193/81/31
f 193/81/31 196/84/31 195/83/31
f 199/83/34 198/82/34 197/81/34
f 197/81/34 200/84/34 199/83/34
f 203/83/32 202/82/32 201/81/32
f 201/81/32 204/84/32 203/83/32
f 207/83/34 206/82/34 205/81/34
f 205/81/34 208/84/34 207/83/34
f 209/77/35 211/79/28 210/78/35
f 210/78/35 212/80/36 209/77/35
f 214/79/39 213/78/38 212/80/37
f 212/80/37 209/77/38 214/79/39
f 215/78/40 216/79/41 169/77/40
f 169/77/40 172/80/42 215/78/40
f 219/87/30 218/86/30 217/85/30
f 217/85/30 220/88/30 219/87/30
f 223/83/30 222/82/30 221/81/30
f 221/81/30 224/84/30 223/83/30
f 227/83/30 226/82/30 225/81/30
f 225/81/30 228/84/30 227/83/30
f 231/83/34 230/82/34 229/81/34
f 229/81/34 232/84/34 231/83/34
f 235/83/34 234/82/34 233/81/34
f 233/81/34 236/84/34 235/83/34
f 239/83/31 238/82/31 237/81/31
f 237/81/31 240/84/31 239/83/31
f 243/83/32 242/82/32 241/81/32
f 241/81/32 244/84/32 243/83/32
f 247/83/31 246/82/31 245/81/31
f 245/81/31 248/84/31 247/83/31
f 251/83/32 250/82/32 249/81/32
f 249/81/32 252/84/32 251/83/32
f 255/83/30 254/82/30 253/81/30
f 253/81/30 256/84/30 255/83/30
f 259/83/31 258/82/31 257/81/31
f 257/81/31 260/84/31 259/83/31
f 263/83/32 262/82/32 261/81/32
f 261/81/32 264/84/32 263/83/32
f 267/83/33 266/82/33 265/81/33
f 265/81/33 268/84/30 267/83/33
f 271/83/31 270/82/31 269/81/31
f 269/81/31 272/84/31 271/83/31
f 275/83/34 274/82/34 273/81/34
f 273/81/34 276/84/34 275/83/34
f 279/83/32 278/82/32 277/81/32
f 277/81/32 280/84/32 279/83/32
f 283/83/34 282/82/34 281/81/34
f 281/81/34 284/84/34 283/83/34
f 285/77/35 287/79/28 286/78/35
f 286/78/35 288/80/36 285/77/35
f 290/79/39 289/78/38 288/80/37
f 288/80/37 285/77/38 290/79/39
f 291/78/40 292/79/41 173/77/40
f 173/77/40 176/80/42 291/78/40

