# ProBuilder 5.2.2
# https://unity3d.com/unity/features/worldbuilding/probuilder
# 15.10.2024 19.37.27

mtllib ./VendingLiquid.mtl
o VendingLiquid

g VendingLiquid
v 110.8282 9.221026 -55.0636 1 1 1
v 110.6554 8.616017 -55.58218 1 1 1
v 110.8282 8.529588 -55.0636 1 1 1
v 110.6554 9.134597 -55.58218 1 1 1
v 108.4946 8.616016 -55.58217 1 1 1
v 108.3218 8.529587 -55.06359 1 1 1
v 109.6182 8.529587 -55.0636 1 1 1
v 108.4946 9.134596 -55.58217 1 1 1
v 108.3218 9.221026 -55.06359 1 1 1
v 109.2725 8.011006 -55.06359 1 1 1
v 109.2725 8.011006 -54.80431 1 1 1
v 109.2725 6.628127 -54.80431 1 1 1
v 109.2725 6.628127 -55.06359 1 1 1
v 108.6675 8.011006 -55.06359 1 1 1
v 108.6675 8.011006 -54.80431 1 1 1
v 108.6675 6.628126 -54.80431 1 1 1
v 108.6675 6.628126 -55.06359 1 1 1
v 108.3218 9.221026 -53.59428 1 1 1
v 108.3218 4.899526 -53.59428 0.05672634 0.05672634 0.05672634
v 108.3218 4.899526 -55.06359 0.05672634 0.05672634 0.05672634
v 110.8282 9.221026 -53.59429 1 1 1
v 110.8282 4.899527 -55.0636 0.05672634 0.05672634 0.05672634
v 110.8282 4.899527 -53.59429 0.05672634 0.05672634 0.05672634
v 110.8282 5.504537 -55.0636 1 1 1
v 110.5689 5.504537 -55.49575 1 1 1
v 110.8282 6.109547 -55.0636 1 1 1
v 109.6182 6.109547 -55.0636 1 1 1
v 108.4946 5.504536 -55.49574 1 1 1
v 108.3218 6.109546 -55.06359 1 1 1
v 108.3218 5.504536 -55.06359 1 1 1
v 108.4946 6.455266 -55.23645 1 1 1
v 108.4946 8.183867 -55.23645 1 1 1
v 109.4454 6.455266 -55.23646 1 1 1
v 109.4454 8.183867 -55.23646 1 1 1
v 110.6554 8.356727 -55.40932 1 1 1
v 109.7911 8.356727 -55.40932 1 1 1
v 110.6554 6.282407 -55.40932 1 1 1
v 109.7911 6.282406 -55.40932 1 1 1

vt 0 0.9296875
vt 0.078125 0.84375
vt 0 0.84375
vt 0.078125 0.9296875
vt 0.390625 0.84375
vt 0.390625 0.78125
vt 0.234375 0.78125
vt 0.078125 0.78125
vt 0.390625 0.9296875
vt 0.46875 0.84375
vt 0.46875 0.9296875
vt 0.390625 1
vt 0.078125 1
vt 0.6328125 0.765625
vt 0.6328125 0.71875
vt 0.40625 0.71875
vt 0.40625 0.765625
vt 0.671875 0.625
vt 0.6328125 0.625
vt 0.671875 0.71875
vt 0.3671875 0.71875
vt 0.40625 0.625
vt 0.3671875 0.625
vt 0.40625 0.578125
vt 0.6328125 0.578125
vt 0.671875 0
vt 0.484375 0
vt 0.484375 0.5703125
vt 0.671875 0.5703125
vt 1 0
vt 1 0.5703125
vt 1 0.765625
vt 0.671875 0.765625
vt 0 0.1328125
vt 0.078125 0.1328125
vt 0 0
vt 0 0.2734375
vt 0.2421875 0.2734375
vt 0.40625 0.1328125
vt 0.4765625 0
vt 0.4765625 0.2734375
vt 0.4765625 0.1328125
vt 0.9375 0.9609375
vt 0.6875 0.9296875
vt 0.65625 0.9609375
vt 0.8984375 0.9296875
vt 0.6875 0.84375
vt 0.9375 0.8125
vt 0.65625 0.8125
vt 0.8984375 0.84375
vt 1 0.7734375
vt 1 1
vt 0.59375 0.7734375
vt 0.59375 1
vt 0.2421875 0.7109375
vt 0.0546875 0.6640625
vt 0 0.7109375
vt 0.1875 0.6640625
vt 0.0546875 0.328125
vt 0.1875 0.328125

vn 0.2923351 -3.762818E-08 -0.0974404
vn -9.078717E-07 -1.719677E-15 -0.3081468
vn -1.229394E-07 -0.3039541 -0.05065921
vn -0.2923352 1.692035E-08 -0.09744014
vn -2.000677E-07 0.3039541 -0.05065897
vn -0.3081468 3.693479E-08 1.422796E-08
vn 2.755047E-08 -0.3081468 0
vn -2.755047E-08 0.3081468 0
vn 0.3081468 -4.512021E-08 -3.605431E-08
vn -0.2178927 0.2178927 1.096755E-08
vn 8.551235E-07 8.585972E-15 0.3081468
vn 0.2642321 -3.26739E-08 -0.1585429
vn -8.024541E-07 0.1791066 -0.2507494
vn -6.902853E-07 -0.1791066 -0.2507494
vn -0.2861091 3.537902E-08 -0.1144379
vn 0.1257984 0.1258003 -0.2516018
vn 0.2178902 -2.611663E-08 -0.2178952
vn -6.058346E-07 -0.217893 -0.2178924
vn -6.95311E-07 0.2178928 -0.2178926
vn -0.2178983 2.611745E-08 -0.2178871
vn -7.771282E-07 -0.1378072 -0.275615
vn -8.337175E-07 0.1378073 -0.275615
vn -5.50808E-07 0.2756147 -0.1378078
vn -0.2756177 3.277431E-08 -0.1378019
vn 0.2756175 -3.477904E-08 -0.1378022
vn -2.990377E-07 -0.2756149 -0.1378075

usemtl VendingLiquids
f 2/2/3 3/8/3 7/7/3
f 4/4/5 8/9/5 9/12/5
f 1/13/5 4/4/5 9/12/5
f 27/38/13 26/37/13 25/35/13
f 1/1/1 3/3/1 2/2/1
f 2/2/1 4/4/1 1/1/1
f 4/4/2 2/2/2 5/5/2
f 5/5/2 8/9/2 4/4/2
f 6/6/3 5/5/3 2/2/3
f 2/2/3 7/7/3 6/6/3
f 8/9/4 5/5/4 6/10/4
f 6/10/4 9/11/4 8/9/4
f 12/16/6 11/15/6 10/14/6
f 10/14/6 13/17/6 12/16/6
f 11/15/7 15/19/7 14/18/7
f 14/18/7 10/20/7 11/15/7
f 16/22/8 12/16/8 13/21/8
f 13/21/8 17/23/8 16/22/8
f 15/19/9 16/22/9 17/24/9
f 17/24/9 14/25/9 15/19/9
f 19/28/6 18/27/10 9/26/10
f 9/26/10 20/29/6 19/28/6
f 22/28/9 1/27/9 21/26/9
f 21/26/9 23/29/9 22/28/9
f 18/29/11 19/26/11 23/30/11
f 23/30/11 21/31/11 18/29/11
f 18/29/10 21/31/8 1/32/8
f 1/32/8 9/33/10 18/29/10
f 15/16/2 11/22/2 12/19/2
f 12/19/2 16/15/2 15/16/2
f 24/34/12 22/36/12 25/35/12
f 25/35/12 26/37/12 24/34/12
f 28/39/14 25/35/14 22/36/14
f 22/36/14 20/40/14 28/39/14
f 27/38/13 25/35/13 28/39/13
f 28/39/13 29/41/13 27/38/13
f 29/41/15 28/39/15 20/40/15
f 20/40/15 30/42/15 29/41/15
f 31/43/16 32/45/17 14/44/17
f 14/44/17 17/46/16 31/43/16
f 10/47/18 14/44/18 32/45/18
f 32/45/18 34/49/18 10/47/18
f 33/48/19 31/43/16 17/46/16
f 17/46/16 13/50/19 33/48/19
f 13/50/20 10/47/20 34/49/20
f 34/49/20 33/48/20 13/50/20
f 31/43/21 33/48/21 27/51/21
f 27/51/21 29/52/21 31/43/21
f 7/53/17 27/51/17 33/48/17
f 33/48/17 34/49/17 7/53/17
f 32/45/20 31/43/20 29/52/20
f 29/52/20 6/54/20 32/45/20
f 6/54/22 7/53/22 34/49/22
f 34/49/22 32/45/22 6/54/22
f 7/55/23 3/57/23 35/56/23
f 35/56/23 36/58/23 7/55/23
f 27/38/24 7/55/24 36/58/24
f 36/58/24 38/60/24 27/38/24
f 37/59/25 35/56/25 3/57/25
f 3/57/25 26/37/25 37/59/25
f 36/58/2 35/56/2 37/59/2
f 37/59/2 38/60/2 36/58/2
f 26/37/26 27/38/26 38/60/26
f 38/60/26 37/59/26 26/37/26

