# ProBuilder 5.2.2
# https://unity3d.com/unity/features/worldbuilding/probuilder
# 15.10.2024 19.37.57

mtllib ./VendingMachine2.mtl
o VendingMachine2

g VendingMachine2
v 108.3218 4.899526 -53.06079 0.05672634 0.05672634 0.05672634
v 105.5299 4.899526 -53.06079 0.05672634 0.05672634 0.05672634
v 105.5299 9.136151 -53.06079 1 1 1
v 108.3218 9.136151 -53.06079 1 1 1
v 105.5299 4.899526 -55.06359 0.05672634 0.05672634 0.05672634
v 105.5299 9.136151 -55.0636 1 1 1
v 108.3218 4.899526 -55.06359 0.05672634 0.05672634 0.05672634
v 108.3218 9.136151 -55.06359 1 1 1

vt 1 0
vt 0.640625 0
vt 0.640625 1
vt 1 1
vt 0 0
vt 0 1
vt 0.640625 0.3359375
vt 0.640625 0.7890625
vt 1 0.7890625
vt 1 0.3359375

vn 4.233639E-07 6.541048E-14 0.3201247
vn -0.3201247 3.681065E-08 -3.410857E-08
vn -2.079756E-08 -1.292011E-13 -0.3201247
vn 0.3201247 -3.681066E-08 3.411017E-08
vn 3.500578E-08 0.3201247 -3.816183E-08

usemtl VendingMachine2
f 4/4/1 3/3/1 2/2/1 1/1/1
f 3/3/2 6/4/2 5/1/2 2/2/2
f 6/3/3 8/6/3 7/5/3 5/2/3
f 8/3/4 4/4/4 1/1/4 7/2/4
f 3/10/5 4/9/5 8/8/5 6/7/5

