# ProBuilder 5.2.2
# https://unity3d.com/unity/features/worldbuilding/probuilder
# 16.10.2024 12.29.54

mtllib ./Burger.mtl
o Burger

g Cylinder001
v 0.5570315 4.538589E-08 -0.7614488
v 1.122784 0.122252 -0.02715749
v 0.7026536 0.1222521 -0.8855709
v 0.9505001 1.025498E-10 -0.0017205
v -0.2156181 5.22484E-08 -0.8765827
v -0.2582717 0.1222521 -1.098941
v -0.7601181 2.230575E-08 -0.3742283
v -0.9948348 0.122252 -0.4977717
v -0.8120748 -2.159119E-08 0.3622401
v -1.023075 0.122252 0.4699016
v 0.5673504 -4.112064E-08 0.6898898
v -0.2477008 0.1222519 1.080669
v 0.7222559 0.122252 0.8457009
v -0.1759331 -5.207334E-08 0.8736457
v 0.6934094 0.2570828 -0.8535197
v 1.188035 0.3924882 -0.006102377
v 0.7264645 0.3924883 -0.9415787
v 1.077626 0.2570827 0.003807116
v -0.2269646 0.2570828 -1.077941
v -0.2558858 0.3924883 -1.148594
v -0.9629529 0.2570827 -0.4969488
v -1.044146 0.3924882 -0.5035079
v -0.2293937 0.2570826 1.011492
v -1.057201 0.4056142 0.4909568
v -0.2620669 0.3725275 1.121441
v -0.9770671 0.2570827 0.4713544
v 0.6766024 0.2570826 0.8516772
v 0.7494214 0.3924882 0.8865787
v 0.7202638 0.6947521 -0.9170591
v 0.9250472 0.9493976 -0.01316534
v 0.5793661 0.9800788 -0.7309724
v 1.155079 0.7285118 -0.01866926
v -0.2584409 0.7010316 -1.152055
v -0.1973661 0.9515119 -0.9082559
v -1.030984 0.7200395 -0.513
v -0.8202559 0.9856537 -0.4115197
v -1.030984 0.7184843 0.4866732
v -0.8202559 0.9375591 0.3851891
v -0.262248 0.7285118 1.142224
v -0.1973661 0.9290709 0.8819292
v 0.7568937 0.7285118 0.8895985
v 0.5793661 0.9874016 0.7046458
v 0.689378 0.6724568 -0.8265827
v 1.017795 0.5630079 -0.02151567
v 1.090595 0.6724567 1.574008E-05
v 0.7048898 0.563008 -0.8668504
v -0.2342047 0.6724568 -1.069658
v -0.2257795 0.563008 -1.101303
v -0.9603307 0.6724567 -0.4861417
v -0.9845039 0.563008 -0.5210432
v -0.9694095 0.6850472 0.4570198
v -1.068118 0.5630078 0.5536891
v -0.2290827 0.6724567 1.00524
v -0.2345039 0.5630078 1.032811
v 0.6825867 0.6724567 0.816815
v 0.6852913 0.5630078 0.8587914
v 0.006933101 1.100953 -0.01316534

vt 0.6935 0.0377
vt 0.5637 0.1239
vt 0.6997 0.1371
vt 0.5505 0.0348
vt 0.87 0.0372
vt 0.855 0.144
vt 0.9709 0.0226
vt 0.9847 0.1484
vt 0.1374 0.0385
vt 0.0072 0.1582
vt 0.1384 0.1469
vt 0.0222 0.042
vt 0.4408 0.0117
vt 0.2874 0.1272
vt 0.4302 0.1237
vt 0.3041 0.0306
vt 0.6964 0.1994
vt 0.5651 0.2586
vt 0.7051 0.2705
vt 0.5571 0.1884
vt 0.8533 0.2078
vt 0.8503 0.2783
vt 0.9812 0.2108
vt 0.9892 0.2781
vt 0.2911 0.1939
vt 0.1388 0.2818
vt 0.2839 0.262
vt 0.141 0.2085
vt 0.4268 0.1896
vt 0.4268 0.266
vt 0.0975 0.5294
vt 0.0737 0.7233
vt 0.1428 0.5821
vt 0.0117 0.7251
vt 0.308 0.4756
vt 0.296 0.5435
vt 0.4772 0.6087
vt 0.4185 0.6419
vt 0.4812 0.8238
vt 0.423 0.8
vt 0.3189 0.9639
vt 0.3 0.9011
vt 0.1022 0.9178
vt 0.1456 0.8644
vt 0.6939 0.4026
vt 0.5577 0.3592
vt 0.5587 0.4162
vt 0.6975 0.3512
vt 0.8548 0.4114
vt 0.8512 0.3605
vt 0.9818 0.4109
vt 0.9814 0.3571
vt 0.1391 0.4269
vt 0.0037 0.3645
vt 0.008 0.4162
vt 0.1439 0.3546
vt 0.292 0.4034
vt 0.2903 0.3536
vt 0.4319 0.4145
vt 0.427 0.3585
vt 0.0065 0.2867
vt 0.0072 0.2187
vt 0.7035 0.4324
vt 0.5651 0.4503
vt 0.8503 0.45
vt 0.987 0.4479
vt 0.1391 0.4579
vt 0.0044 0.4531
vt 0.2843 0.4658
vt 0.4273 0.4676
vt 0.2566 0.7222
vt 0.6809 0.9633
vt 0.5222 0.6242
vt 0.5081 0.8243
vt 0.9869 0.7254
vt 0.8828 0.9133
vt 0.88 0.519
vt 0.6701 0.4878

vn 0.511905 -0.8188628 -0.258077
vn 0.4945201 -0.8347879 -0.2420311
vn 0.5292898 -0.8029377 -0.2741229
vn 0.1026023 -0.812382 -0.5672522
vn 0.1099064 -0.861931 -0.4949703
vn 0.09529816 -0.762833 -0.6395342
vn -0.3234266 -0.8690578 -0.370567
vn -0.2831287 -0.8941491 -0.3468943
vn -0.3637245 -0.8439665 -0.3942398
vn -0.4777362 -0.8775315 -0.02321943
vn -0.5069109 -0.8618715 -0.01479348
vn -0.4485616 -0.8931915 -0.03164538
vn 0.1306678 -0.8353873 0.5338783
vn 0.1283959 -0.8382072 0.5300218
vn 0.1329398 -0.8325675 0.5377346
vn 0.5110345 -0.8159615 0.2553553
vn 0.5835537 -0.7666563 0.2677746
vn 0.4385155 -0.8652666 0.242936
vn 0.760795 -0.5320312 -0.3590546
vn 0.7999552 -0.4519741 -0.3947038
vn 0.7216349 -0.6120883 -0.3234054
vn 0.190943 -0.4952599 -0.8432665
vn 0.18687 -0.4227873 -0.8867528
vn 0.195016 -0.5677326 -0.7997804
vn -0.5646257 -0.4307569 -0.7021532
vn -0.5844865 -0.3850707 -0.71421
vn -0.544765 -0.4764431 -0.6900964
vn -0.5078551 -0.5314205 0.6560041
vn -0.4763615 -0.6733287 0.5654274
vn -0.5393487 -0.3895124 0.746581
vn 0.1740666 -0.5081517 0.8231441
vn 0.2182879 -0.3519984 0.910191
vn 0.1298453 -0.664305 0.7360973
vn 0.755915 -0.5427058 0.3642846
vn 0.735424 -0.5732191 0.3613466
vn 0.7764061 -0.5121925 0.3672227
vn 0.6944728 0.6327446 -0.3355949
vn 0.7415635 0.5828557 -0.3322089
vn 0.6473821 0.6826334 -0.3389809
vn 0.1656948 0.6365694 -0.7515224
vn 0.1410582 0.6726356 -0.7264049
vn 0.1903314 0.6005034 -0.7766399
vn -0.4657811 0.6446263 -0.6048497
vn -0.4707048 0.6151013 -0.6325247
vn -0.4608574 0.6741512 -0.5771747
vn -0.7468704 0.6620255 0.02169486
vn -0.7101626 0.7027585 0.04242316
vn -0.7835783 0.6212924 0.0009665524
vn -0.4282973 0.7372529 0.5192811
vn -0.3880787 0.7742935 0.4998644
vn -0.468516 0.7002124 0.5386977
vn 0.1411251 0.6980656 0.6954312
vn 0.1268421 0.6327262 0.7639167
vn 0.155408 0.7634051 0.6269458
vn 0.6715841 0.6814869 0.2906195
vn 0.6674371 0.6879708 0.284998
vn 0.675731 0.675003 0.2962409
vn 0.8006139 -0.4560748 -0.3886041
vn 0.9074984 0.2522046 -0.3359158
vn 0.2355052 0.3257415 -0.9147093
vn 0.236974 0.3648556 -0.900402
vn 0.2340363 0.2866273 -0.9290166
vn -0.5916269 0.2678713 -0.7541085
vn -0.6168006 0.1744444 -0.7675455
vn -0.5664533 0.3612981 -0.7406716
vn -0.9755588 0.2193933 -0.01231931
vn -0.8716164 0.4599653 -0.06781182
vn -0.7995238 0.5974048 -0.062203
vn -0.3891009 0.7444754 0.5425466
vn -0.4842092 0.2362061 0.8424655
vn 0.1853263 0.2933467 0.9355144
vn 0.1969628 0.2303048 0.9529771
vn 0.8783081 0.1899699 0.4387327
vn 0.7693552 -0.5688995 0.2905959
vn 0.7762875 0.4823888 -0.3401729
vn 0.8571996 0.2938083 -0.4229486
vn 0.6953754 0.6709692 -0.2573972
vn 0.211509 0.3217705 -0.9174553
vn 0.2007391 0.22874 -0.952566
vn 0.2222788 0.4148011 -0.8823447
vn -0.6270398 0.1405233 -0.7662078
vn -0.577308 0.3112792 -0.7548648
vn -0.9978534 -0.06433146 -0.01225058
vn -0.9437089 0.3225259 -0.07342064
vn -0.5543997 0.4157002 0.7209953
vn -0.4657928 -0.3553189 0.8104231
vn 0.2154081 0.2354486 0.9477148
vn 0.7605187 0.5311013 0.324489
vn 0.6552911 0.6833202 0.3219738
vn 0.8657462 0.3788823 0.3270042
vn 0.8667346 0.2674346 -0.4067163
vn 0.8860571 0.1638366 -0.4336594
vn 0.847412 0.3710326 -0.3797731
vn 0.2228142 0.1705804 -0.9571799
vn 0.2156542 0.1011935 -0.9712122
vn 0.2299743 0.2399673 -0.9431477
vn -0.6118448 0.2048057 -0.7620858
vn -0.6249191 0.1524408 -0.7656618
vn -0.5987706 0.2571707 -0.7585098
vn -0.9595066 0.2766293 -0.02089496
vn -0.9459667 0.3230864 -0.02760659
vn -0.9730465 0.2301722 -0.01418333
vn -0.565751 0.312788 0.751218
vn -0.5563108 0.4378842 0.7062406
vn -0.5751912 0.1876918 0.7961953
vn 0.1958921 0.2352879 0.9292359
vn 0.2352789 0.03661493 0.971238
vn 0.1565053 0.4339609 0.8872339
vn 0.8793002 0.2401054 0.4096129
vn 0.8897246 0.2042261 0.408267
vn 0.8688759 0.2759846 0.4109589
vn 0.4367235 -0.8571256 -0.1971944
vn 0.5905122 -0.7649947 -0.2570571
vn 0.2829347 -0.9492565 -0.1373317
vn 0.06983623 -0.9527857 -0.2870219
vn 0.04746379 -0.9735041 -0.2236894
vn 0.09220866 -0.9320673 -0.3503544
vn -0.3020988 -0.8727083 -0.3578148
vn -0.2349059 -0.9376782 -0.2560838
vn -0.3692917 -0.8077384 -0.4595459
vn -0.5163927 -0.8549388 0.002945832
vn -0.5582602 -0.8296649 -0.00129072
vn -0.4745252 -0.8802127 0.007182384
vn -0.2749543 -0.8981112 0.3407348
vn -0.3013097 -0.8801553 0.3667958
vn -0.2485988 -0.9160672 0.3146738
vn 0.1043493 -0.8755499 0.4652894
vn 0.09846141 -0.9124296 0.3972121
vn 0.1102371 -0.8386702 0.5333667
vn 0.5643983 -0.7635704 0.2679544
vn 0.4572644 -0.8664427 0.2004649
vn 0.6715322 -0.6606981 0.335444
vn 0.1627868 0.9861546 -0.005025421
vn 0.1627613 0.9859998 -0.03623805
vn 0.001382061 0.9862953 -0.1649837
vn -0.03199774 0.9864247 -0.1573865
vn -0.06537754 0.986554 -0.1497894
vn -0.1658237 0.9843635 0.0594227
vn -0.1156687 0.9800228 0.1617899
vn -0.07404581 0.9814544 0.1715649
vn -0.03242288 0.9828858 0.1813399
vn 0.1628124 0.9863095 0.02618721
vn 0 -1 -5.960464E-08
vn -0.3115613 -0.8657377 0.3915807
vn -0.3146271 -0.861088 0.3994212
vn -0.3084955 -0.8703873 0.3837401
vn -0.868833 -0.4944654 -0.008896864
vn -0.8803662 -0.4742649 -0.005297504
vn -0.8572998 -0.5146658 -0.01249622
vn 0.1736898 0.3563886 0.9180517
vn 0.1707593 0.3952503 0.9025621

usemtl burg
f 45/47/58 44/46/58 43/45/58
f 46/48/59 43/45/59 44/46/59
f 49/55/66 50/54/66 51/53/66
f 51/53/69 52/56/69 53/57/69
f 54/58/70 53/57/70 52/56/70
f 55/59/73 56/60/73 45/47/73
f 44/46/74 45/47/74 56/60/74
f 22/24/81 50/52/81 20/22/81
f 48/50/82 20/22/82 50/52/82
f 24/26/83 52/56/83 22/61/83
f 25/27/85 54/58/85 24/26/85
f 52/56/86 24/26/86 54/58/86
f 28/30/87 56/60/87 25/27/87
f 38/40/138 57/71/138 36/38/138
f 9/74/143 7/73/143 14/72/143
f 14/72/143 4/75/143 11/76/143
f 5/78/143 1/77/143 7/73/143
f 54/58/151 25/27/151 56/60/151
f 1/1/1 3/3/2 2/2/1
f 2/2/1 4/4/3 1/1/1
f 5/5/4 6/6/5 3/3/4
f 3/3/4 1/1/6 5/5/4
f 7/7/7 8/8/8 6/6/7
f 6/6/7 5/5/9 7/7/7
f 9/9/10 10/11/11 8/10/10
f 8/10/10 7/12/12 9/9/10
f 11/13/13 13/15/14 12/14/13
f 12/14/13 14/16/15 11/13/13
f 4/4/16 2/2/17 13/15/16
f 13/15/16 11/13/18 4/4/16
f 15/17/19 17/19/20 16/18/19
f 16/18/19 18/20/21 15/17/19
f 19/21/22 20/22/23 17/19/22
f 17/19/22 15/17/24 19/21/22
f 21/23/25 22/24/26 20/22/25
f 20/22/25 19/21/27 21/23/25
f 23/25/28 25/27/29 24/26/28
f 24/26/28 26/28/30 23/25/28
f 27/29/31 28/30/32 25/27/31
f 25/27/31 23/25/33 27/29/31
f 18/20/34 16/18/35 28/30/34
f 28/30/34 27/29/36 18/20/34
f 29/31/37 31/33/38 30/32/37
f 30/32/37 32/34/39 29/31/37
f 33/35/40 34/36/41 31/33/40
f 31/33/40 29/31/42 33/35/40
f 35/37/43 36/38/44 34/36/43
f 34/36/43 33/35/45 35/37/43
f 37/39/46 38/40/47 36/38/46
f 36/38/46 35/37/48 37/39/46
f 39/41/49 40/42/50 38/40/49
f 38/40/49 37/39/51 39/41/49
f 41/43/52 42/44/53 40/42/52
f 40/42/52 39/41/54 41/43/52
f 32/34/55 30/32/56 42/44/55
f 42/44/55 41/43/57 32/34/55
f 47/49/60 43/45/61 46/48/60
f 46/48/60 48/50/62 47/49/60
f 49/51/63 47/49/64 48/50/63
f 48/50/63 50/52/65 49/51/63
f 52/56/67 51/53/68 50/54/67
f 50/54/67 22/61/84 52/56/67
f 55/59/71 53/57/72 54/58/71
f 54/58/71 56/60/150 55/59/71
f 16/18/75 17/19/76 46/48/75
f 46/48/75 44/46/77 16/18/75
f 17/19/78 20/22/79 48/50/78
f 48/50/78 46/48/80 17/19/78
f 28/30/88 16/18/89 44/46/88
f 44/46/88 56/60/90 28/30/88
f 2/2/91 3/3/92 15/17/91
f 15/17/91 18/20/93 2/2/91
f 3/3/94 6/6/95 19/21/94
f 19/21/94 15/17/96 3/3/94
f 6/6/97 8/8/98 21/23/97
f 21/23/97 19/21/99 6/6/97
f 8/10/100 10/11/101 26/28/100
f 26/28/100 21/62/102 8/10/100
f 10/11/103 12/14/104 23/25/103
f 23/25/103 26/28/105 10/11/103
f 12/14/106 13/15/107 27/29/106
f 27/29/106 23/25/108 12/14/106
f 13/15/109 2/2/110 18/20/109
f 18/20/109 27/29/111 13/15/109
f 29/63/112 32/64/113 45/47/112
f 45/47/112 43/45/114 29/63/112
f 33/65/115 29/63/116 43/45/115
f 43/45/115 47/49/117 33/65/115
f 35/66/118 33/65/119 47/49/118
f 47/49/118 49/51/120 35/66/118
f 37/67/121 35/68/122 49/55/121
f 49/55/121 51/53/123 37/67/121
f 39/69/124 37/67/125 51/53/124
f 51/53/124 53/57/126 39/69/124
f 41/70/127 39/69/128 53/57/127
f 53/57/127 55/59/129 41/70/127
f 32/64/130 41/70/131 55/59/130
f 55/59/130 45/47/132 32/64/130
f 30/32/133 31/33/134 57/71/133
f 57/71/133 42/44/142 30/32/133
f 36/38/137 57/71/136 31/33/135
f 31/33/135 34/36/136 36/38/137
f 42/44/141 57/71/140 38/40/139
f 38/40/139 40/42/140 42/44/141
f 1/77/143 4/75/143 14/72/143
f 14/72/143 7/73/143 1/77/143
f 14/16/144 12/14/145 10/11/144
f 10/11/144 9/9/146 14/16/144
f 26/28/147 24/26/148 22/61/147
f 22/61/147 21/62/149 26/28/147

