# ProBuilder 5.2.2
# https://unity3d.com/unity/features/worldbuilding/probuilder
# 15.10.2024 12.21.43

mtllib ./Car_-_Renault.mtl
o Car - Renault

g Car - Renault
v -31.64219 4.472042 -28.96283
v -31.42919 4.435256 -28.87467
v -31.32433 4.479155 -28.99607
v -31.40862 4.515656 -28.89548
v -31.64219 4.469432 -27.02296
v -31.32067 4.479758 -26.98994
v -31.42887 4.436507 -27.11037
v -31.41109 4.506044 -27.09236
v -36.29042 4.435787 -28.91796
v -36.58784 4.488617 -28.91537
v -36.64112 4.448633 -29.02989
v -36.54142 4.404521 -28.87932
v -36.33202 4.445135 -27.0726
v -36.64499 4.455644 -26.95246
v -36.5909 4.494164 -27.0676
v -36.54529 4.411529 -27.10303
v -31.38497 4.413905 -28.33498
v -31.16794 4.48727 -28.36667
v -31.33391 4.587083 -28.3481
v -31.15384 4.48727 -28.31307
v -31.37989 4.413905 -28.28046
v -31.32945 4.583912 -28.28494
v -36.6156 4.386914 -28.24615
v -36.80705 4.451078 -28.27991
v -36.70243 4.552886 -28.25911
v -36.80197 4.451078 -28.3351
v -36.60776 4.386914 -28.30461
v -36.69777 4.554428 -28.32124
v -31.38473 4.413905 -27.6529
v -31.33459 4.5857 -27.63559
v -31.16763 4.48727 -27.61809
v -31.15353 4.48727 -27.6717
v -31.32816 4.587506 -27.69943
v -31.37919 4.413905 -27.71245
v -36.61523 4.386914 -27.73644
v -36.70012 4.548536 -27.72248
v -36.79524 4.454258 -27.69237
v -36.79016 4.454258 -27.63717
v -36.69448 4.547738 -27.66144
v -36.60738 4.386914 -27.67789
v -35.49971 5.198066 -28.88313
v -36.72181 5.012879 -28.87178
v -36.70731 4.705034 -29.00814
v -36.02606 4.744094 -29.00814
v -36.5317 4.386914 -28.87178
v -36.02606 4.329938 -28.94379
v -34.97214 4.294019 -28.94379
v -34.97214 4.744094 -29.00814
v -32.63178 4.744094 -29.00814
v -32.63178 4.294019 -28.94379
v -31.64219 4.744094 -29.00814
v -31.64219 4.357685 -28.94379
v -32.76547 5.179757 -28.88313
v -33.52472 5.808728 -28.67821
v -34.76146 5.841241 -28.67821
v -32.1189 5.136731 -28.865
v -31.63327 5.072066 -28.865
v -31.27561 4.972391 -28.83964
v -31.289 4.744094 -28.92434
v -31.40413 4.533218 -28.90003
v -31.43465 4.413905 -28.86914
v -34.97214 4.294019 -28.61503
v -34.97214 4.608347 -28.61503
v -35.49971 5.198066 -28.61503
v -36.02606 4.329938 -28.61503
v -36.02606 4.608347 -28.61503
v -32.63178 4.294019 -28.61503
v -34.97214 4.294019 -27.99268
v -32.63178 4.325852 -27.99268
v -31.64219 4.357685 -28.61503
v -36.64959 4.386914 -27.99268
v -36.02606 4.329938 -27.37033
v -36.5317 4.386914 -27.11358
v -36.02606 4.329938 -27.04157
v -34.97214 4.294019 -27.37033
v -32.63178 4.294019 -27.37033
v -34.97214 4.294019 -27.04157
v -32.63178 4.294019 -27.04157
v -31.64219 4.357685 -27.37033
v -31.35312 4.413905 -27.99268
v -31.43465 4.413905 -27.11622
v -31.64219 4.357685 -27.04157
v -32.63178 4.608347 -28.61503
v -32.1189 5.105177 -28.61503
v -31.64219 4.608347 -28.61503
v -34.97214 4.744094 -26.97721
v -34.97214 4.608347 -27.37033
v -35.49971 5.198066 -27.10223
v -35.49971 5.198066 -27.37033
v -36.02606 4.744094 -26.97721
v -36.02606 4.608347 -27.37033
v -32.63178 4.744094 -26.97721
v -32.63178 4.608347 -27.37033
v -32.1189 5.136731 -27.12036
v -32.1189 5.105177 -27.37033
v -31.64219 4.744094 -26.97721
v -31.64219 4.608347 -27.37033
v -36.79493 4.705034 -27.99268
v -36.8397 5.007539 -27.99268
v -36.70731 4.705034 -26.97721
v -36.72181 5.012879 -27.11358
v -35.79787 5.228564 -28.43045
v -35.86924 5.241722 -27.99268
v -35.79787 5.228564 -27.5549
v -35.03885 5.836253 -27.99268
v -34.76146 5.841241 -27.30714
v -33.40825 5.803739 -27.99268
v -33.52472 5.808728 -27.30714
v -32.71764 5.216657 -27.99268
v -31.50157 5.086889 -27.99268
v -31.22499 5.008685 -27.99268
v -31.27561 4.972391 -27.14571
v -31.63327 5.072066 -27.12036
v -32.76547 5.179757 -27.10223
v -32.99253 5.216684 -28.8715
v -32.99253 5.226917 -29.02545
v -32.96608 5.356625 -28.99986
v -32.96608 5.349539 -28.8278
v -31.34751 4.435853 -27.99268
v -31.1608 4.492658 -27.99291
v -31.31912 4.542323 -27.99268
v -36.70684 4.512212 -27.99268
v -36.81656 4.464914 -27.99268
v -36.65684 4.402781 -27.99268
v -31.289 4.744094 -27.06102
v -31.40413 4.533218 -27.08533
v -32.99253 5.216684 -27.11386
v -32.96608 5.349539 -27.15755
v -32.96608 5.356625 -26.9855
v -32.99253 5.226917 -26.95991
v -36.77951 4.612193 -27.68895
v -36.80977 4.805326 -27.99268
v -36.78795 4.804801 -27.68895
v -36.80514 4.610579 -27.99268
v -36.77951 4.612193 -28.29399
v -36.78883 4.805006 -28.29399
v -31.34375 4.277165 -27.78263
v -31.36639 4.435991 -27.78792
v -31.32603 4.277366 -27.99364
v -31.34375 4.277165 -28.20464
v -31.36736 4.435673 -28.20701
v -32.8886 5.26196 -27.04619
v -32.8886 5.26196 -28.93917
v -31.32261 4.533218 -27.99268
v -31.24181 4.744094 -27.99268

vt 0.4375 1
vt 0.40625 0.9375
vt 0.4375 0.9375
vt 0.515625 0.90625
vt 0.546875 0.96875
vt 0.578125 0.90625
vt 0.882812 0.226562
vt 0.84375 0
vt 0.78125 0.007812
vt 0.789062 0.132812
vt 0.71875 0.039062
vt 0.710938 0.132812
vt 0.710938 0.320312
vt 0.796875 0.320312
vt 0.804688 0.75
vt 0.710938 0.75
vt 0.804688 0.929688
vt 0.734375 0.929688
vt 0.882812 0.726562
vt 1 0.585938
vt 1 0.359375
vt 0.882812 0.84375
vt 0.867188 0.9375
vt 0.851562 1
vt 0.804688 1
vt 0.765625 0.992188
vt 0.742188 0.984375
vt 0.640625 0.3125
vt 0.648438 0.3125
vt 0.640625 0.320312
vt 0.648438 0.320312
vt 0.671875 0.390625
vt 0.632812 0.632812
vt 0.671875 0.632812
vt 0.632812 0.390625
vt 0.570312 0.390625
vt 0.632812 0.296875
vt 0.570312 0.632812
vt 0.632812 0.726562
vt 0.570312 0.226562
vt 0.664062 0.226562
vt 0.664062 0.296875
vt 0.515625 0.296875
vt 0.484375 0.226562
vt 0.484375 0.296875
vt 0.515625 0.390625
vt 0.515625 0.632812
vt 0.476562 0.390625
vt 0.476562 0.632812
vt 0.515625 0.726562
vt 0.570312 0.757812
vt 0.664062 0.75
vt 0.664062 0.726562
vt 0.476562 0.75
vt 0.476562 0.726562
vt 0.390625 0.15625
vt 0.546875 0.101562
vt 0.40625 0.101562
vt 0.546875 0.15625
vt 0.546875 0.203125
vt 0.40625 0.203125
vt 0.703125 0.15625
vt 0.6875 0.101562
vt 0.6875 0.203125
vt 0.28125 0.804688
vt 0.203125 0.84375
vt 0.28125 1
vt 0.140625 1
vt 0.140625 0.851562
vt 0.078125 0.84375
vt 0 1
vt 0 0.804688
vt 0.296875 0.789062
vt 0.296875 0.664062
vt 0.148438 0.679688
vt 0.21875 0.820312
vt 0.148438 0.820312
vt 0.078125 0.820312
vt 0 0.789062
vt 0 0.664062
vt 0.234375 0.625
vt 0.234375 0.414062
vt 0.140625 0.398438
vt 0.140625 0.664062
vt 0.046875 0.625
vt 0.046875 0.414062
vt 0.28125 0.398438
vt 0.28125 0.234375
vt 0.140625 0.234375
vt 0.140625 0.039062
vt 0.28125 0.140625
vt 0.28125 0.0625
vt 0.28125 0
vt 0.140625 0
vt 0 0
vt 0 0.0625
vt 0 0.132812
vt 0 0.234375
vt 0 0.398438
vt 0.453125 0.875
vt 0.515625 0.875
vt 0.515625 0.929688
vt 0.4375 0.929688
vt 0.40625 0.90625
vt 0.40625 0.609375
vt 0.4375 0.609375
vt 0.515625 0.882812
vt 0.578125 0.882812
vt 0.632812 0.90625
vt 0.632812 0.882812
vt 0.695312 0.8125
vt 0.609375 0.882812
vt 0.695312 0.882812
vt 0.609375 0.8125
vt 0.515625 0.8125
vt 0.476562 0.84375
vt 0.4375 0.875
vt 0.4375 0.8125
vt 0.398438 0
vt 0.398438 0.023438
vt 0.539062 0.023438
vt 0.539062 0.0625
vt 0.539062 0
vt 0.679688 0
vt 0.679688 0.023438
vt 0.398438 0.0625
vt 0.679688 0.0625
vt 0.671875 0.101562
vt 0.539062 0.101562

vn -0.3105599 -0.06066959 -2.983265
vn 0.4640152 -2.903266 -0.5964329
vn 1.707313 -0.02054161 -2.46671
vn 0.4245692 2.888004 -0.6922212
vn -0.3083181 0.0592939 2.983525
vn 1.725006 0.1117104 2.451913
vn 0.4710993 -2.905774 0.5783972
vn 0.2332421 2.940166 0.5486515
vn 0.9060965 -0.1492947 -2.855994
vn -0.4314549 2.871772 -0.7528424
vn -1.704614 -0.2600835 -2.454923
vn -0.4277624 -2.914033 -0.5704657
vn 1.070822 -0.1181161 2.799891
vn -1.562146 -0.2347645 2.550409
vn -0.392687 2.881495 0.736736
vn -0.3713472 -2.914194 0.6079271
vn 0.361123 -2.043353 -2.166632
vn 1.517497 -0.265682 -2.574221
vn 0.8600931 1.840839 -2.207159
vn 2.241637 -0.22003 1.981578
vn 0.9455596 -2.023153 2.003189
vn 1.35536 1.803489 1.97748
vn -1.019563 -2.013915 1.976015
vn -2.353273 -0.4950623 1.793605
vn -1.782505 1.435523 1.939574
vn -1.828911 -0.5428029 -2.315264
vn -0.3338457 -2.042464 -2.171839
vn -1.201335 1.534559 -2.280772
vn 0.3437693 -2.072265 2.141854
vn 0.7866312 1.74498 2.310034
vn 1.463645 -0.314758 2.599744
vn 2.291645 -0.1376947 -1.931166
vn 1.3964 1.882531 -1.872469
vn 1.006136 -1.967949 -2.028513
vn -1.205546 -2.00545 -1.877453
vn -1.940079 1.372704 -1.830786
vn -2.453809 -0.5114155 -1.648416
vn -1.777032 -0.432022 2.378132
vn -1.023353 1.637149 2.296191
vn -0.2426361 -2.001482 2.22153
vn -0.4844177 0.9657024 -2.798706
vn -1.414936 2.345483 -1.223383
vn -1.982555 -0.6032216 -2.169239
vn 1.113231 -0.3954749 -2.757592
vn -1.326929 -2.305346 -1.387313
vn 0.8846483 -1.581244 -2.391038
vn -1.172286 -1.507262 -2.313851
vn -0.9276305 -0.100494 -2.851211
vn 1.11114 -0.2627152 -2.774229
vn 1.174005 -1.511732 -2.31006
vn -0.6986785 0.02319157 -2.917415
vn -0.03891642 -1.499941 -2.597818
vn 0.7024456 2.208165 -1.905407
vn 0.6171985 2.249171 -1.886875
vn -0.6989458 2.529488 -1.453672
vn 0.2669295 1.327278 -2.67714
vn 0.5553458 2.41661 -1.688664
vn 2.005356 1.736794 -1.400748
vn 2.267264 -0.4171468 -1.919766
vn 2.215784 -1.061847 -1.721273
vn 1.985184 -1.913142 -1.182764
vn -0.9325587 -2.704998 -0.9018407
vn -2.375551 -0.95609 -1.562897
vn -0.06574221 -1.632074 -2.516349
vn 0.6556008 -2.444513 -1.610759
vn 2.340089 -0.8792856 -1.658565
vn 0.8641406 -2.417488 -1.552099
vn -0.0659254 -2.999275 -1.286133E-07
vn 0.1201129 -2.997594 -3.862438E-07
vn -0.8971615 -2.573898 -1.253056
vn -1.374866 -2.66641 -6.591761E-08
vn 0.6556009 -2.444513 1.610759
vn -1.326928 -2.305346 1.387313
vn 0.8846483 -1.581244 2.391038
vn -0.9325587 -2.704998 0.9018407
vn 0.8641406 -2.417488 1.552099
vn -1.172286 -1.507262 2.313851
vn 1.174005 -1.511732 2.31006
vn -0.8971617 -2.573898 1.253056
vn 1.492391 -2.602454 -1.751416E-07
vn 1.985184 -1.913142 1.182764
vn -0.03891639 -1.499941 2.597818
vn 2.310048 -1.006219 -1.62825
vn 0.02709444 -2.25474 -1.97874
vn -1.768514 -0.6997728 -2.320059
vn -0.9276323 -0.1004839 2.85121
vn -2.375552 -0.9560899 1.562896
vn -0.4844166 0.9657099 2.798704
vn -0.06574201 -1.632075 2.516348
vn 1.113232 -0.395467 2.757593
vn 2.34009 -0.8792861 1.658564
vn 1.111142 -0.2627069 2.774229
vn 2.310049 -1.006219 1.628249
vn 0.2669306 1.327294 2.677132
vn 0.02709398 -2.254741 1.978739
vn -0.6986808 0.02320207 2.917414
vn -1.768515 -0.6997734 2.320058
vn -2.876624 -0.8514887 0
vn -2.404043 1.794597 0
vn -1.982556 -0.6032186 2.16924
vn -1.414933 2.345483 1.223384
vn -1.080559 2.749227 -0.5235869
vn -1.246813 2.728637 0
vn -1.080558 2.749227 0.5235888
vn -1.15509 2.768712 6.62837E-07
vn -0.6989455 2.529488 1.453673
vn 1.042306 2.813112 2.309824E-07
vn 0.6171985 2.24917 1.886875
vn 1.182765 2.757003 2.987187E-07
vn 0.4917705 2.959419 1.281394E-07
vn 2.44883 1.732983 0
vn 2.005352 1.7368 1.400746
vn 0.5553399 2.416617 1.688656
vn 0.7024445 2.20817 1.905402
vn -0.005914069 -2.57106 1.545837
vn 0.05026986 -1.958896 -2.271607
vn 1.039008 2.139775 -1.828066
vn 1.231826 1.492442 2.292427
vn 0.8731785 -2.870114 0.001870241
vn 2.999932 0.01942485 -0.005551243
vn 0.8621222 2.873455 -0.001056147
vn -1.187594 2.754906 -0.01045821
vn -2.997706 -0.1171065 -0.006324957
vn -1.056221 -2.807907 0.007297078
vn 2.267264 -0.4171468 1.919767
vn 2.215784 -1.061847 1.721273
vn -0.005915761 -2.571062 -1.545835
vn 1.231826 1.492442 -2.292427
vn 1.03899 2.139755 1.828099
vn 0.05023945 -1.958905 2.2716
vn -2.989183 -0.1011073 0.2335815
vn -2.998168 -0.1048053 0.001239167
vn -2.989446 -0.1310735 0.214553
vn -2.99915 -0.07138029 -0.001012312
vn -2.989138 -0.1078738 -0.2311189
vn -2.989313 -0.1446019 -0.2075943
vn 2.959637 0.4153689 0.2607999
vn 2.956423 0.4305715 0.272343
vn 2.970583 0.4190857 -0.0004204557
vn 2.972806 0.4030202 1.538649E-05
vn 2.958963 0.4196188 -0.2616386
vn 2.955453 0.4361122 -0.274049
vn 2.901278 -0.7529019 0.1253871
vn 2.901284 -0.7528828 -0.1253748
vn 2.853702 -0.9254098 -5.616485E-09
vn 2.911789 -0.722139 -2.854902E-09

usemtl Car_-_RegularWhite
f 3/3/3 2/2/2 1/1/1
f 4/2/4 3/3/3 1/1/1
f 7/2/7 6/3/6 5/1/5
f 6/3/6 8/2/8 5/1/5
f 11/3/11 10/2/10 9/1/9
f 12/2/12 11/3/11 9/1/9
f 15/2/15 14/3/14 13/1/13
f 14/3/14 16/2/16 13/1/13
f 19/6/19 18/5/18 17/4/17
f 22/4/22 21/6/21 20/5/20
f 25/6/25 24/5/24 23/4/23
f 28/4/28 27/6/27 26/5/26
f 31/5/31 30/4/30 29/6/29
f 34/4/34 33/6/33 32/5/32
f 37/5/37 36/4/36 35/6/35
f 40/4/40 39/6/39 38/5/38
f 44/10/44 41/7/41 48/14/48
f 55/21/55 54/20/54 41/7/41
f 49/15/49 56/22/56 51/17/51
f 57/23/57 51/17/51 56/22/56
f 61/27/61 52/18/52 60/26/60
f 65/31/65 66/31/66 64/30/64
f 65/37/65 62/35/62 68/36/68
f 75/46/75 72/43/72 68/36/68
f 70/29/70 67/29/67 85/28/85
f 91/28/91 72/29/72 89/28/89
f 76/29/76 79/31/79 97/31/97
f 42/67/42 102/66/102 41/65/41
f 104/70/104 101/71/101 88/72/88
f 103/77/103 105/75/105 102/76/102
f 105/75/105 103/77/103 104/78/104
f 57/92/57 56/91/56 110/90/110
f 94/97/94 113/96/113 110/90/110
f 88/7/88 90/10/90 86/14/86
f 108/20/108 106/21/106 88/7/88
f 94/22/94 92/15/92 96/17/96
f 96/17/96 113/23/113 94/22/94
f 82/18/82 81/27/81 126/26/126
f 127/118/127 128/117/128 142/116/143
f 127/118/127 142/116/143 130/115/130
f 128/117/128 129/101/129 142/116/143
f 142/116/143 129/101/129 130/115/130
f 118/117/118 115/118/115 143/116/144
f 143/116/144 115/118/115 116/115/116
f 117/101/117 118/117/118 143/116/144
f 117/101/117 143/116/144 116/115/116
f 43/9/43 42/8/42 41/7/41
f 41/7/41 44/10/44 43/9/43
f 45/11/45 43/9/43 44/10/44
f 44/10/44 46/12/46 45/11/45
f 47/13/47 46/12/46 44/10/44
f 44/10/44 48/14/48 47/13/47
f 47/13/47 48/14/48 49/15/49
f 49/15/49 50/16/50 47/13/47
f 50/16/50 49/15/49 51/17/51
f 51/17/51 52/18/52 50/16/50
f 54/20/54 53/19/53 48/14/48
f 48/14/48 41/7/41 54/20/54
f 56/22/56 49/15/49 48/14/48
f 48/14/48 53/19/53 56/22/56
f 51/17/51 57/23/57 58/24/58
f 58/24/58 59/25/59 51/17/51
f 51/17/51 59/25/59 60/26/60
f 60/26/60 52/18/52 51/17/51
f 48/28/48 47/28/47 62/29/62
f 62/29/62 63/28/63 48/28/48
f 41/30/41 48/28/48 63/28/63
f 63/28/63 64/30/64 41/30/41
f 64/30/64 63/28/63 62/29/62
f 62/29/62 65/31/65 64/30/64
f 44/30/44 41/30/41 64/30/64
f 64/30/64 66/31/66 44/30/44
f 66/31/66 65/31/65 46/31/46
f 46/31/46 44/30/44 66/31/66
f 47/32/47 50/34/50 67/33/67
f 67/33/67 62/35/62 47/32/47
f 68/36/68 62/35/62 67/33/67
f 67/33/67 69/38/69 68/36/68
f 69/38/69 67/33/67 70/39/70
f 70/39/70 80/51/80 69/38/69
f 71/40/71 65/37/65 68/36/68
f 68/36/68 72/43/72 71/40/71
f 65/37/65 71/40/71 45/41/45
f 45/41/45 46/42/46 65/37/65
f 73/44/73 71/40/71 72/43/72
f 72/43/72 74/45/74 73/44/73
f 76/47/76 75/46/75 68/36/68
f 68/36/68 69/38/69 76/47/76
f 77/48/77 75/46/75 76/47/76
f 76/47/76 78/49/78 77/48/77
f 79/50/79 76/47/76 69/38/69
f 69/38/69 80/51/80 79/50/79
f 61/52/61 80/51/80 70/39/70
f 70/39/70 52/53/52 61/52/61
f 79/50/79 80/51/80 81/54/81
f 81/54/81 82/55/82 79/50/79
f 67/31/67 50/31/50 49/30/49
f 49/30/49 83/31/83 67/31/67
f 83/31/83 49/30/49 56/28/56
f 56/28/56 84/28/84 83/31/83
f 67/31/67 83/31/83 84/28/84
f 84/28/84 85/28/85 67/31/67
f 84/28/84 56/28/56 51/28/51
f 51/28/51 85/28/85 84/28/84
f 85/28/85 51/28/51 52/28/52
f 52/28/52 70/29/70 85/28/85
f 75/31/75 77/31/77 86/30/86
f 86/30/86 87/31/87 75/31/75
f 87/31/87 86/30/86 88/28/88
f 88/28/88 89/28/89 87/31/87
f 75/31/75 87/31/87 89/28/89
f 89/28/89 72/29/72 75/31/75
f 89/28/89 88/28/88 90/28/90
f 90/28/90 91/28/91 89/28/89
f 91/28/91 90/28/90 74/28/74
f 74/28/74 72/29/72 91/28/91
f 92/28/92 78/28/78 76/29/76
f 76/29/76 93/28/93 92/28/92
f 94/30/94 92/28/92 93/28/93
f 93/28/93 95/30/95 94/30/94
f 95/30/95 93/28/93 76/29/76
f 76/29/76 97/31/97 95/30/95
f 96/30/96 94/30/94 95/30/95
f 95/30/95 97/31/97 96/30/96
f 82/31/82 96/30/96 97/31/97
f 97/31/97 79/31/79 82/31/82
f 43/56/43 45/58/45 71/57/71
f 71/57/71 98/59/98 43/56/43
f 43/56/43 98/59/98 99/60/99
f 99/60/99 42/61/42 43/56/43
f 100/62/100 98/59/98 71/57/71
f 71/57/71 73/63/73 100/62/100
f 99/60/99 98/59/98 100/62/100
f 100/62/100 101/64/101 99/60/99
f 102/66/102 42/67/42 99/68/99
f 99/68/99 103/69/103 102/66/102
f 104/70/104 103/69/103 99/68/99
f 99/68/99 101/71/101 104/70/104
f 105/75/105 55/74/55 41/73/41
f 41/73/41 102/76/102 105/75/105
f 105/75/105 104/78/104 88/79/88
f 88/79/88 106/80/106 105/75/105
f 107/83/107 54/82/54 55/81/55
f 55/81/55 105/84/105 107/83/107
f 107/83/107 105/84/105 106/85/106
f 106/85/106 108/86/108 107/83/107
f 109/89/109 53/88/53 54/87/54
f 54/87/54 107/83/107 109/89/109
f 53/88/53 109/89/109 110/90/110
f 110/90/110 56/91/56 53/88/53
f 58/93/58 57/92/57 110/90/110
f 110/90/110 111/94/111 58/93/58
f 112/95/112 111/94/111 110/90/110
f 110/90/110 113/96/113 112/95/112
f 114/98/114 94/97/94 110/90/110
f 110/90/110 109/89/109 114/98/114
f 114/98/114 109/89/109 107/83/107
f 107/83/107 108/99/108 114/98/114
f 117/102/117 116/101/116 115/100/115
f 115/100/115 118/103/118 117/102/117
f 120/106/120 119/105/119 2/104/2
f 2/104/2 3/3/3 120/106/120
f 121/105/121 120/106/120 3/3/3
f 3/3/3 4/104/4 121/105/121
f 120/106/120 6/3/6 7/104/7
f 7/104/7 119/105/119 120/106/120
f 121/105/121 8/104/8 6/3/6
f 6/3/6 120/106/120 121/105/121
f 123/106/123 122/105/122 10/104/10
f 10/104/10 11/3/11 123/106/123
f 124/105/124 123/106/123 11/3/11
f 11/3/11 12/104/12 124/105/124
f 123/106/123 14/3/14 15/104/15
f 15/104/15 122/105/122 123/106/123
f 124/105/124 16/104/16 14/3/14
f 14/3/14 123/106/123 124/105/124
f 20/6/20 21/4/21 17/107/17
f 17/107/17 18/108/18 20/6/20
f 22/109/22 20/6/20 18/108/18
f 18/108/18 19/110/19 22/109/22
f 26/6/26 27/4/27 23/107/23
f 23/107/23 24/108/24 26/6/26
f 28/109/28 26/6/26 24/108/24
f 24/108/24 25/110/25 28/109/28
f 88/7/88 101/8/101 100/9/100
f 100/9/100 90/10/90 88/7/88
f 90/10/90 100/9/100 73/11/73
f 73/11/73 74/12/74 90/10/90
f 90/10/90 74/12/74 77/13/77
f 77/13/77 86/14/86 90/10/90
f 92/15/92 86/14/86 77/13/77
f 77/13/77 78/16/78 92/15/92
f 96/17/96 92/15/92 78/16/78
f 78/16/78 82/18/82 96/17/96
f 108/20/108 88/7/88 86/14/86
f 86/14/86 114/19/114 108/20/108
f 94/22/94 114/19/114 86/14/86
f 86/14/86 92/15/92 94/22/94
f 112/24/112 113/23/113 96/17/96
f 96/17/96 125/25/125 112/24/112
f 126/26/126 125/25/125 96/17/96
f 96/17/96 82/18/82 126/26/126
f 129/102/129 128/103/128 127/100/127
f 127/100/127 130/101/130 129/102/129
f 29/110/29 34/109/34 32/6/32
f 32/6/32 31/108/31 29/110/29
f 31/108/31 32/6/32 33/4/33
f 33/4/33 30/107/30 31/108/31
f 35/110/35 40/109/40 38/6/38
f 38/6/38 37/108/37 35/110/35
f 37/108/37 38/6/38 39/4/39
f 39/4/39 36/107/36 37/108/37
f 131/111/131 133/113/133 132/112/132
f 132/112/132 134/114/134 131/111/131
f 135/115/135 134/114/134 132/112/132
f 132/112/132 136/107/136 135/115/135
f 119/112/139 138/107/138 137/115/137
f 137/115/137 139/114/140 119/112/139
f 119/112/139 139/114/140 140/111/141
f 140/111/141 141/113/142 119/112/139
f 144/121/145 126/120/126 81/119/81
f 81/119/81 80/123/80 144/121/145
f 126/120/126 144/121/145 145/122/146
f 145/122/146 125/126/125 126/120/126
f 144/121/145 80/123/80 61/124/61
f 61/124/61 60/125/60 144/121/145
f 145/122/146 144/121/145 60/125/60
f 60/125/60 59/127/59 145/122/146
f 112/58/112 125/126/125 145/122/146
f 145/122/146 111/129/111 112/58/112
f 145/122/146 59/127/59 58/128/58
f 58/128/58 111/129/111 145/122/146

g Tire_01
v -31.70501 4.2838 -27.10284 0.2288839 0.2288839 0.2288839
v -32.00015 4.690078 -27.10284 0.2288839 0.2288839 0.2288839
v -31.78656 4.534889 -27.10284 0.2288839 0.2288839 0.2288839
v -32.00015 3.877527 -27.10284 0.2288839 0.2288839 0.2288839
v -32.47778 4.534889 -27.10284 0.2288839 0.2288839 0.2288839
v -32.26419 4.690078 -27.10284 0.2288839 0.2288839 0.2288839
v -32.47778 4.032711 -27.10284 0.2288839 0.2288839 0.2288839
v -32.26419 3.877527 -27.10284 0.2288839 0.2288839 0.2288839
v -32.55938 4.2838 -27.10284 0.2288839 0.2288839 0.2288839
v -31.78656 4.032711 -27.10284 0.2288839 0.2288839 0.2288839
v -32.47778 4.534888 -27.2723 0.03155867 0.03155867 0.03155867
v -31.70501 4.283799 -27.2723 0.03155867 0.03155867 0.03155867
v -32.00015 4.690077 -27.2723 0.03155867 0.03155867 0.03155867
v -32.00015 3.877527 -27.2723 0.03155867 0.03155867 0.03155867
v -32.47778 4.03271 -27.2723 0.03155867 0.03155867 0.03155867
v -32.26419 4.690077 -27.2723 0.03155867 0.03155867 0.03155867
v -32.55938 4.283799 -27.2723 0.03155867 0.03155867 0.03155867
v -32.26419 3.877527 -27.2723 0.03155867 0.03155867 0.03155867
v -31.78656 4.03271 -27.2723 0.03155867 0.03155867 0.03155867
v -31.78656 4.534888 -27.2723 0.03155867 0.03155867 0.03155867

vt 0.703125 0.816327
vt 0.40625 0.530612
vt 0.515625 0.734694
vt 1 0.530612
vt 0.515625 0.081633
vt 0.40625 0.285714
vt 0.890625 0.081633
vt 1 0.285714
vt 0.703125 0
vt 0.890625 0.755102
vt 0.4596778 0.1861205
vt 0.9963036 0.4178925
vt 0.791352 0.04287067
vt 0.791352 0.7929087
vt 0.4596778 0.649664
vt -0.4138224 0.8161931
vt -0.1282292 0.9995013
vt -0.1282292 0.8161925
vt -0.4138224 0.9995013
vt -0.6994137 0.8161931
vt -0.6994137 0.9995012
vt -0.9850045 0.8161931
vt -0.9850045 0.9995012
vt -1.270594 0.8161931
vt -1.270594 0.9995012
vt -1.556211 0.8161931
vt -1.556211 0.9995012
vt -1.8418 0.8161931
vt -1.8418 0.9995012
vt -2.127375 0.8161931
vt -2.127375 0.9995012
vt -2.412951 0.8161931
vt -2.412951 0.9995012
vt -2.698543 0.8161925
vt -2.698543 0.9995012
vt 0.1573877 0.9995013
vt 0.1573877 0.8161925
vt 0.9396729 0.649664
vt 0.6079991 0.7929087
vt 0.9396729 0.1861205
vt 0.403015 0.4178925
vt 0.6079991 0.04287067

vn 1.658524E-06 3.611025E-06 0.5206621
vn 0 -3.072354E-06 -0.5206621
vn -0.3060452 0.4212189 -2.485553E-06
vn -0.4951711 0.1609181 -9.495547E-07
vn -0.495171 -0.1609184 9.495566E-07
vn -0.3060378 -0.4212243 2.485585E-06
vn 0 -0.5206621 3.072354E-06
vn 0.3060383 -0.4212239 2.485583E-06
vn 0.4951979 -0.1608357 9.490685E-07
vn 0.4212454 0.3060087 -1.805714E-06
vn 0.495198 0.1608354 -9.490667E-07
vn 0.3060457 0.4212186 -2.485551E-06
vn 0 0.5206621 -3.072354E-06

usemtl tire1
f 148/132/147 147/131/147 146/130/147
f 151/135/147 150/134/147 147/131/147
f 149/133/147 152/136/147 153/137/147
f 154/138/147 152/136/147 150/134/147
f 158/142/148 157/141/148 156/140/148
f 164/167/148 159/143/148 157/141/148
f 163/168/148 160/144/148 159/143/148
f 165/169/148 157/141/148 158/142/148
f 160/144/148 162/170/148 156/140/148
f 156/140/148 161/171/148 158/142/148
f 155/139/147 146/130/147 147/131/147
f 147/131/147 149/133/147 155/139/147
f 149/133/147 147/131/147 150/134/147
f 150/134/147 152/136/147 149/133/147
f 156/140/148 157/141/148 159/143/148
f 159/143/148 160/144/148 156/140/148
f 150/145/149 151/147/149 161/146/149
f 161/146/149 156/148/149 150/145/149
f 154/149/150 150/145/150 156/148/150
f 156/148/150 162/150/150 154/149/150
f 152/151/151 154/149/151 162/150/151
f 162/150/151 160/152/151 152/151/151
f 153/153/152 152/151/152 160/152/152
f 160/152/152 163/154/152 153/153/152
f 149/155/153 153/153/153 163/154/153
f 163/154/153 159/156/153 149/155/153
f 155/157/154 149/155/154 159/156/154
f 159/156/154 164/158/154 155/157/154
f 146/159/155 155/157/155 164/158/155
f 164/158/155 157/160/155 146/159/155
f 148/161/156 146/159/157 157/160/157
f 157/160/157 165/162/156 148/161/156
f 147/163/158 148/161/156 165/162/156
f 165/162/156 158/164/158 147/163/158
f 151/147/159 147/166/159 158/165/159
f 158/165/159 161/146/159 151/147/159

g Tire_02
v -35.08601 4.2838 -27.10284 0.2288839 0.2288839 0.2288839
v -35.38115 4.690078 -27.10284 0.2288839 0.2288839 0.2288839
v -35.16756 4.534889 -27.10284 0.2288839 0.2288839 0.2288839
v -35.38115 3.877527 -27.10284 0.2288839 0.2288839 0.2288839
v -35.85878 4.534889 -27.10284 0.2288839 0.2288839 0.2288839
v -35.6452 4.690078 -27.10284 0.2288839 0.2288839 0.2288839
v -35.85878 4.032711 -27.10284 0.2288839 0.2288839 0.2288839
v -35.6452 3.877527 -27.10284 0.2288839 0.2288839 0.2288839
v -35.94038 4.2838 -27.10284 0.2288839 0.2288839 0.2288839
v -35.16756 4.032711 -27.10284 0.2288839 0.2288839 0.2288839
v -35.85878 4.534888 -27.2723 0.03155867 0.03155867 0.03155867
v -35.08601 4.283799 -27.2723 0.03155867 0.03155867 0.03155867
v -35.38115 4.690077 -27.2723 0.03155867 0.03155867 0.03155867
v -35.38115 3.877527 -27.2723 0.03155867 0.03155867 0.03155867
v -35.85878 4.03271 -27.2723 0.03155867 0.03155867 0.03155867
v -35.6452 4.690077 -27.2723 0.03155867 0.03155867 0.03155867
v -35.94038 4.283799 -27.2723 0.03155867 0.03155867 0.03155867
v -35.6452 3.877527 -27.2723 0.03155867 0.03155867 0.03155867
v -35.16756 4.03271 -27.2723 0.03155867 0.03155867 0.03155867
v -35.16756 4.534888 -27.2723 0.03155867 0.03155867 0.03155867

vt 0.703125 0.816327
vt 0.40625 0.530612
vt 0.515625 0.734694
vt 1 0.530612
vt 0.515625 0.081633
vt 0.40625 0.285714
vt 0.890625 0.081633
vt 1 0.285714
vt 0.703125 0
vt 0.890625 0.755102
vt 0.4596778 0.1861205
vt 0.9963036 0.4178925
vt 0.791352 0.04287067
vt 0.791352 0.7929087
vt 0.4596778 0.649664
vt -0.4138224 0.8161931
vt -0.1282292 0.9995013
vt -0.1282292 0.8161925
vt -0.4138224 0.9995013
vt -0.6994137 0.8161931
vt -0.6994137 0.9995012
vt -0.9850045 0.8161931
vt -0.9850045 0.9995012
vt -1.270594 0.8161931
vt -1.270594 0.9995012
vt -1.556211 0.8161931
vt -1.556211 0.9995012
vt -1.8418 0.8161931
vt -1.8418 0.9995012
vt -2.127375 0.8161931
vt -2.127375 0.9995012
vt -2.412951 0.8161931
vt -2.412951 0.9995012
vt -2.698543 0.8161925
vt -2.698543 0.9995012
vt 0.1573877 0.9995013
vt 0.1573877 0.8161925
vt 0.9396729 0.649664
vt 0.6079991 0.7929087
vt 0.9396729 0.1861205
vt 0.403015 0.4178925
vt 0.6079991 0.04287067

vn 1.658524E-06 3.611025E-06 0.5206621
vn 0 -3.072354E-06 -0.5206621
vn -0.3060452 0.4212189 -2.485553E-06
vn -0.4951711 0.1609181 -9.495547E-07
vn -0.495171 -0.1609184 9.495566E-07
vn -0.3060378 -0.4212243 2.485585E-06
vn 0 -0.5206621 3.072354E-06
vn 0.3060383 -0.4212239 2.485583E-06
vn 0.4951979 -0.1608357 9.490685E-07
vn 0.4212454 0.3060087 -1.805714E-06
vn 0.495198 0.1608354 -9.490667E-07
vn 0.3060457 0.4212186 -2.485551E-06
vn 0 0.5206621 -3.072354E-06

usemtl tire1
f 168/174/160 167/173/160 166/172/160
f 171/177/160 170/176/160 167/173/160
f 169/175/160 172/178/160 173/179/160
f 174/180/160 172/178/160 170/176/160
f 178/184/161 177/183/161 176/182/161
f 184/209/161 179/185/161 177/183/161
f 183/210/161 180/186/161 179/185/161
f 185/211/161 177/183/161 178/184/161
f 180/186/161 182/212/161 176/182/161
f 176/182/161 181/213/161 178/184/161
f 175/181/160 166/172/160 167/173/160
f 167/173/160 169/175/160 175/181/160
f 169/175/160 167/173/160 170/176/160
f 170/176/160 172/178/160 169/175/160
f 176/182/161 177/183/161 179/185/161
f 179/185/161 180/186/161 176/182/161
f 170/187/162 171/189/162 181/188/162
f 181/188/162 176/190/162 170/187/162
f 174/191/163 170/187/163 176/190/163
f 176/190/163 182/192/163 174/191/163
f 172/193/164 174/191/164 182/192/164
f 182/192/164 180/194/164 172/193/164
f 173/195/165 172/193/165 180/194/165
f 180/194/165 183/196/165 173/195/165
f 169/197/166 173/195/166 183/196/166
f 183/196/166 179/198/166 169/197/166
f 175/199/167 169/197/167 179/198/167
f 179/198/167 184/200/167 175/199/167
f 166/201/168 175/199/168 184/200/168
f 184/200/168 177/202/168 166/201/168
f 168/203/169 166/201/170 177/202/170
f 177/202/170 185/204/169 168/203/169
f 167/205/171 168/203/169 185/204/169
f 185/204/169 178/206/171 167/205/171
f 171/189/172 167/208/172 178/207/172
f 178/207/172 181/188/172 171/189/172

g Tire_03
v -35.94037 4.2838 -28.87042 0.2288839 0.2288839 0.2288839
v -35.64523 4.690078 -28.87042 0.2288839 0.2288839 0.2288839
v -35.85882 4.534889 -28.87042 0.2288839 0.2288839 0.2288839
v -35.64523 3.877527 -28.87042 0.2288839 0.2288839 0.2288839
v -35.1676 4.534889 -28.87042 0.2288839 0.2288839 0.2288839
v -35.38119 4.690078 -28.87042 0.2288839 0.2288839 0.2288839
v -35.1676 4.032711 -28.87042 0.2288839 0.2288839 0.2288839
v -35.38119 3.877527 -28.87042 0.2288839 0.2288839 0.2288839
v -35.086 4.2838 -28.87042 0.2288839 0.2288839 0.2288839
v -35.85882 4.032711 -28.87042 0.2288839 0.2288839 0.2288839
v -35.1676 4.534888 -28.70096 0.03155867 0.03155867 0.03155867
v -35.94037 4.283799 -28.70096 0.03155867 0.03155867 0.03155867
v -35.64523 4.690077 -28.70096 0.03155867 0.03155867 0.03155867
v -35.64523 3.877527 -28.70097 0.03155867 0.03155867 0.03155867
v -35.1676 4.03271 -28.70096 0.03155867 0.03155867 0.03155867
v -35.38119 4.690077 -28.70096 0.03155867 0.03155867 0.03155867
v -35.086 4.283799 -28.70096 0.03155867 0.03155867 0.03155867
v -35.38119 3.877527 -28.70096 0.03155867 0.03155867 0.03155867
v -35.85882 4.03271 -28.70097 0.03155867 0.03155867 0.03155867
v -35.85882 4.534888 -28.70096 0.03155867 0.03155867 0.03155867

vt 0.703125 0.816327
vt 0.40625 0.530612
vt 0.515625 0.734694
vt 1 0.530612
vt 0.515625 0.081633
vt 0.40625 0.285714
vt 0.890625 0.081633
vt 1 0.285714
vt 0.703125 0
vt 0.890625 0.755102
vt 0.4596778 0.1861205
vt 0.9963036 0.4178925
vt 0.791352 0.04287067
vt 0.791352 0.7929087
vt 0.4596778 0.649664
vt -0.4138224 0.8161931
vt -0.1282292 0.9995013
vt -0.1282292 0.8161925
vt -0.4138224 0.9995013
vt -0.6994137 0.8161931
vt -0.6994137 0.9995012
vt -0.9850045 0.8161931
vt -0.9850045 0.9995012
vt -1.270594 0.8161931
vt -1.270594 0.9995012
vt -1.556211 0.8161931
vt -1.556211 0.9995012
vt -1.8418 0.8161931
vt -1.8418 0.9995012
vt -2.127375 0.8161931
vt -2.127375 0.9995012
vt -2.412951 0.8161931
vt -2.412951 0.9995012
vt -2.698543 0.8161925
vt -2.698543 0.9995012
vt 0.1573877 0.9995013
vt 0.1573877 0.8161925
vt 0.9396729 0.649664
vt 0.6079991 0.7929087
vt 0.9396729 0.1861205
vt 0.403015 0.4178925
vt 0.6079991 0.04287067

vn 1.41383E-06 3.611025E-06 -0.5206621
vn -3.072354E-06 -3.072354E-06 0.5206621
vn 0.3060452 0.4212189 4.291483E-06
vn 0.4951711 0.1609181 3.871489E-06
vn 0.495171 -0.1609184 1.972377E-06
vn 0.3060378 -0.4212243 -6.796987E-07
vn 1.767726E-11 -0.5206621 -3.072354E-06
vn -0.3060383 -0.4212239 -4.291472E-06
vn -0.4951979 -0.1608357 -3.871161E-06
vn -0.4212454 0.3060087 -6.799955E-07
vn -0.495198 0.1608354 -1.973027E-06
vn -0.3060457 0.4212186 6.796189E-07
vn -1.767726E-11 0.5206621 3.072354E-06

usemtl tire1
f 188/216/173 187/215/173 186/214/173
f 191/219/173 190/218/173 187/215/173
f 189/217/173 192/220/173 193/221/173
f 194/222/173 192/220/173 190/218/173
f 198/226/174 197/225/174 196/224/174
f 204/251/174 199/227/174 197/225/174
f 203/252/174 200/228/174 199/227/174
f 205/253/174 197/225/174 198/226/174
f 200/228/174 202/254/174 196/224/174
f 196/224/174 201/255/174 198/226/174
f 195/223/173 186/214/173 187/215/173
f 187/215/173 189/217/173 195/223/173
f 189/217/173 187/215/173 190/218/173
f 190/218/173 192/220/173 189/217/173
f 196/224/174 197/225/174 199/227/174
f 199/227/174 200/228/174 196/224/174
f 190/229/175 191/231/175 201/230/175
f 201/230/175 196/232/175 190/229/175
f 194/233/176 190/229/176 196/232/176
f 196/232/176 202/234/176 194/233/176
f 192/235/177 194/233/177 202/234/177
f 202/234/177 200/236/177 192/235/177
f 193/237/178 192/235/178 200/236/178
f 200/236/178 203/238/178 193/237/178
f 189/239/179 193/237/179 203/238/179
f 203/238/179 199/240/179 189/239/179
f 195/241/180 189/239/180 199/240/180
f 199/240/180 204/242/180 195/241/180
f 186/243/181 195/241/181 204/242/181
f 204/242/181 197/244/181 186/243/181
f 188/245/182 186/243/183 197/244/183
f 197/244/183 205/246/182 188/245/182
f 187/247/184 188/245/182 205/246/182
f 205/246/182 198/248/184 187/247/184
f 191/231/185 187/250/185 198/249/185
f 198/249/185 201/230/185 191/231/185

g Tire_04
v -32.55937 4.2838 -28.87041 0.2288839 0.2288839 0.2288839
v -32.26423 4.690078 -28.87041 0.2288839 0.2288839 0.2288839
v -32.47782 4.534889 -28.87041 0.2288839 0.2288839 0.2288839
v -32.26423 3.877527 -28.87041 0.2288839 0.2288839 0.2288839
v -31.7866 4.534889 -28.87041 0.2288839 0.2288839 0.2288839
v -32.00019 4.690078 -28.87041 0.2288839 0.2288839 0.2288839
v -31.7866 4.032711 -28.87041 0.2288839 0.2288839 0.2288839
v -32.00019 3.877527 -28.87041 0.2288839 0.2288839 0.2288839
v -31.705 4.2838 -28.87041 0.2288839 0.2288839 0.2288839
v -32.47782 4.032711 -28.87041 0.2288839 0.2288839 0.2288839
v -31.7866 4.534888 -28.70094 0.03155867 0.03155867 0.03155867
v -32.55937 4.283799 -28.70095 0.03155867 0.03155867 0.03155867
v -32.26423 4.690077 -28.70095 0.03155867 0.03155867 0.03155867
v -32.26423 3.877527 -28.70095 0.03155867 0.03155867 0.03155867
v -31.7866 4.03271 -28.70095 0.03155867 0.03155867 0.03155867
v -32.00019 4.690077 -28.70094 0.03155867 0.03155867 0.03155867
v -31.705 4.283799 -28.70095 0.03155867 0.03155867 0.03155867
v -32.00019 3.877527 -28.70095 0.03155867 0.03155867 0.03155867
v -32.47782 4.03271 -28.70095 0.03155867 0.03155867 0.03155867
v -32.47782 4.534888 -28.70095 0.03155867 0.03155867 0.03155867

vt 0.703125 0.816327
vt 0.40625 0.530612
vt 0.515625 0.734694
vt 1 0.530612
vt 0.515625 0.081633
vt 0.40625 0.285714
vt 0.890625 0.081633
vt 1 0.285714
vt 0.703125 0
vt 0.890625 0.755102
vt 0.4596778 0.1861205
vt 0.9963036 0.4178925
vt 0.791352 0.04287067
vt 0.791352 0.7929087
vt 0.4596778 0.649664
vt -0.4138224 0.8161931
vt -0.1282292 0.9995013
vt -0.1282292 0.8161925
vt -0.4138224 0.9995013
vt -0.6994137 0.8161931
vt -0.6994137 0.9995012
vt -0.9850045 0.8161931
vt -0.9850045 0.9995012
vt -1.270594 0.8161931
vt -1.270594 0.9995012
vt -1.556211 0.8161931
vt -1.556211 0.9995012
vt -1.8418 0.8161931
vt -1.8418 0.9995012
vt -2.127375 0.8161931
vt -2.127375 0.9995012
vt -2.412951 0.8161931
vt -2.412951 0.9995012
vt -2.698543 0.8161925
vt -2.698543 0.9995012
vt 0.1573877 0.9995013
vt 0.1573877 0.8161925
vt 0.9396729 0.649664
vt 0.6079991 0.7929087
vt 0.9396729 0.1861205
vt 0.403015 0.4178925
vt 0.6079991 0.04287067

vn 1.41383E-06 3.611025E-06 -0.5206621
vn -3.072354E-06 -3.072354E-06 0.5206621
vn 0.3060452 0.4212189 4.291483E-06
vn 0.4951711 0.1609181 3.871489E-06
vn 0.495171 -0.1609184 1.972377E-06
vn 0.3060378 -0.4212243 -6.796987E-07
vn 1.767726E-11 -0.5206621 -3.072354E-06
vn -0.3060383 -0.4212239 -4.291472E-06
vn -0.4951979 -0.1608357 -3.871161E-06
vn -0.4212454 0.3060087 -6.799955E-07
vn -0.495198 0.1608354 -1.973027E-06
vn -0.3060457 0.4212186 6.796189E-07
vn -1.767726E-11 0.5206621 3.072354E-06

usemtl tire1
f 208/258/186 207/257/186 206/256/186
f 211/261/186 210/260/186 207/257/186
f 209/259/186 212/262/186 213/263/186
f 214/264/186 212/262/186 210/260/186
f 218/268/187 217/267/187 216/266/187
f 224/293/187 219/269/187 217/267/187
f 223/294/187 220/270/187 219/269/187
f 225/295/187 217/267/187 218/268/187
f 220/270/187 222/296/187 216/266/187
f 216/266/187 221/297/187 218/268/187
f 215/265/186 206/256/186 207/257/186
f 207/257/186 209/259/186 215/265/186
f 209/259/186 207/257/186 210/260/186
f 210/260/186 212/262/186 209/259/186
f 216/266/187 217/267/187 219/269/187
f 219/269/187 220/270/187 216/266/187
f 210/271/188 211/273/188 221/272/188
f 221/272/188 216/274/188 210/271/188
f 214/275/189 210/271/189 216/274/189
f 216/274/189 222/276/189 214/275/189
f 212/277/190 214/275/190 222/276/190
f 222/276/190 220/278/190 212/277/190
f 213/279/191 212/277/191 220/278/191
f 220/278/191 223/280/191 213/279/191
f 209/281/192 213/279/192 223/280/192
f 223/280/192 219/282/192 209/281/192
f 215/283/193 209/281/193 219/282/193
f 219/282/193 224/284/193 215/283/193
f 206/285/194 215/283/194 224/284/194
f 224/284/194 217/286/194 206/285/194
f 208/287/195 206/285/196 217/286/196
f 217/286/196 225/288/195 208/287/195
f 207/289/197 208/287/195 225/288/195
f 225/288/195 218/290/197 207/289/197
f 211/273/198 207/292/198 218/291/198
f 218/291/198 221/272/198 211/273/198

