# ProBuilder 5.2.2
# https://unity3d.com/unity/features/worldbuilding/probuilder
# 15.10.2024 12.22.43

mtllib ./Car_-_Caravan.mtl
o Car - Caravan

g CarCaravan
v -26.23122 3.997101 -45.19645
v -25.73886 3.997101 -44.78815
v -25.73886 4.418589 -45.22816
v -25.28121 3.997101 -45.19645
v -26.23127 3.571839 -44.78815
v -25.28127 3.571839 -44.78815
v -28.66694 4.418589 -45.22816
v -22.98401 4.418589 -45.22816
v -26.23122 3.997101 -42.7286
v -25.73886 4.418589 -42.67184
v -25.73886 3.997101 -43.11184
v -25.28121 3.997101 -42.7286
v -25.28127 3.571839 -43.11184
v -26.23127 3.571839 -43.11184
v -28.66694 4.418589 -42.67184
v -22.98401 4.418589 -42.67184
v -25.28121 3.571839 -45.1216
v -23.25764 3.572985 -43.95
v -23.31195 3.571839 -45.1216
v -25.75622 3.571839 -43.95
v -25.28121 3.571839 -42.7784
v -23.31195 3.571839 -42.7784
v -26.23122 3.571839 -45.1216
v -28.63895 3.574469 -43.95
v -28.58124 3.571839 -45.1216
v -28.70336 4.418589 -43.95
v -28.58124 3.571839 -42.7784
v -22.93246 4.418589 -43.95
v -28.56602 5.901146 -45.16447
v -28.60912 5.901146 -43.95
v -23.71967 5.901146 -43.95
v -23.78439 5.901146 -45.16447
v -28.30943 6.337454 -45.1216
v -24.25401 6.337454 -45.1216
v -24.18929 6.337454 -43.95
v -28.37026 6.337454 -43.95
v -26.23122 3.571839 -42.7784
v -28.56602 5.901146 -42.73553
v -23.78439 5.901146 -42.73553
v -28.30943 6.337454 -42.7784
v -24.25401 6.337454 -42.7784
v -23.31195 3.760579 -43.8455
v -21.4978 3.760579 -43.8455
v -21.67265 3.606003 -43.8455
v -23.31195 3.606003 -43.8455
v -21.4978 3.760579 -44.05449
v -21.67265 3.606003 -44.05449
v -23.31195 3.760579 -44.05449
v -23.31195 3.606003 -44.05449

vt 0.984375 0.960938
vt 0.972656 0.976562
vt 0.992188 0.976562
vt 0.980469 0.996094
vt 0.960938 0.957031
vt 0.960938 0.996094
vt 0.050781 0.371094
vt 0.097656 0.3125
vt 0.050781 0.257812
vt 0.097656 0
vt 0.097656 0.632812
vt 0.992188 0.957031
vt 0.976562 0.972656
vt 1 0.976562
vt 0.988281 0.992188
vt 0.976562 0.976562
vt 0.988281 0.996094
vt 0.414062 0.367188
vt 0.414062 0.257812
vt 0.460938 0.3125
vt 0.460938 0
vt 0.460938 0.632812
vt 0.96875 1
vt 1 0.34375
vt 0.875 0.558594
vt 1 0.558594
vt 0.964844 0.34375
vt 0.875 0.292969
vt 0.964844 0.242188
vt 0.785156 0.242188
vt 0.785156 0.34375
vt 0.75 0.34375
vt 0.75 0.558594
vt 0.972656 0.953125
vt 0.875 0.011719
vt 1 0.011719
vt 1 0.242188
vt 0.320312 0.789062
vt 0.453125 0.789062
vt 0.453125 0.691406
vt 0.320312 0.691406
vt 0.582031 0.789062
vt 0.582031 0.691406
vt 0.015625 1
vt 0.136719 0.902344
vt 0.003906 0.902344
vt 0.136719 1
vt 0.261719 1
vt 0.273438 0.902344
vt 0 0.371094
vt 0 0.257812
vt 0.324219 0.945312
vt 0.453125 0.945312
vt 0.136719 0.726562
vt 0.011719 0.722656
vt 0.636719 0.578125
vt 0.636719 0.996094
vt 0.761719 0.996094
vt 0.761719 0.578125
vt 0.324219 1
vt 0.453125 1
vt 0.015625 0.652344
vt 0.136719 0.652344
vt 0 0.59375
vt 0.265625 0.011719
vt 0.265625 0.542969
vt 0.320312 0.488281
vt 0.320312 0.042969
vt 0 0.011719
vt 0.96875 0.992188
vt 0.976562 1
vt 0.976562 0.953125
vt 0.96875 0.957031
vt 0.75 0.011719
vt 0.75 0.242188
vt 0.363281 0.367188
vt 0.363281 0.257812
vt 0.578125 0.945312
vt 0.265625 0.722656
vt 0.890625 0.578125
vt 0.890625 0.996094
vt 0.578125 1
vt 0.261719 0.652344
vt 0.363281 0.59375
vt 0.628906 0.011719
vt 0.683594 0.042969
vt 0.683594 0.488281
vt 0.628906 0.542969
vt 0.363281 0.011719
vt 0.949219 0.929688
vt 0.949219 0.699219
vt 0.933594 0.71875
vt 0.933594 0.929688
vt 0.976562 0.730469
vt 1 0.730469
vt 1 0.699219
vt 0.976562 0.699219
vt 0.976562 0.929688
vt 0.910156 0.71875
vt 0.910156 0.929688

vn 0.4975828 -0.6263931 -0.6000357
vn -0.5251894 -0.6145276 -0.5886694
vn -0.5331941 -0.5984352 -0.5976416
vn 0 0 -0.9999999
vn 0 -0.07501619 -0.9971822
vn 0 -0.01604806 -0.9981303
vn 0.4740828 -0.635827 0.6090725
vn -0.5012537 -0.624865 0.5985718
vn -0.5147441 -0.596629 0.6146814
vn 0 0 0.9999999
vn 0 -0.1334673 0.9910531
vn 0 -0.04527361 0.9950657
vn -0.5411989 -0.5823429 -0.6066139
vn -0.9999999 -2.81912E-05 -0.0001601647
vn 0.0002831562 -0.9999995 0.000489153
vn 0 -0.9999994 0.0009782152
vn 0.0005663125 -0.9999997 9.070329E-08
vn 0 -0.9999994 -0.0009782152
vn 0.6536169 -0.7568254 9.720877E-05
vn 0.6325504 -0.1342621 -0.7627932
vn -0.0009123253 -0.9999993 0.0005170928
vn -0.0001581534 -0.9999986 0.001114601
vn -0.0003163068 -0.9999974 0.002229202
vn -0.9949023 -0.09134472 -0.03854286
vn -0.9966989 -0.0760538 -0.02840512
vn -0.9931056 -0.1066356 -0.0486806
vn -0.9949023 -0.09134472 0.03854286
vn -0.9931056 -0.1066356 0.0486806
vn -0.9966989 -0.0760538 0.02840512
vn 0.9313783 -0.3618008 -0.04019618
vn 0.9302514 -0.3649991 -0.03751967
vn 0.9325052 -0.3586025 -0.0428727
vn 0.9313783 -0.3618008 0.04019618
vn 0.9325052 -0.3586025 0.0428727
vn 0.9302514 -0.3649991 0.03751967
vn 0 -0.173349 -0.9848604
vn -0.9972823 0.06625132 -0.03190978
vn -0.9972045 0.06910323 -0.02841953
vn -0.9973601 0.06339941 -0.03540004
vn 0.8805023 0.472192 -0.0412278
vn 0.8822378 0.4684506 -0.04701244
vn 0.8787668 0.4759333 -0.03544315
vn 0 0.9999999 0
vn -0.8679733 0.494819 -0.03786296
vn -0.8592165 0.5096636 -0.04460748
vn -0.8767302 0.4799744 -0.03111843
vn 0.6792965 0.7329361 -0.03686127
vn 0.6784277 0.733777 -0.03615186
vn 0.6801653 0.7320952 -0.03757067
vn 0.009104533 -0.1490905 -0.9884356
vn 0.01820907 -0.1733203 -0.984697
vn 0 -0.1248607 -0.9921741
vn 0 0.09778438 -0.9952075
vn 0 0.04292007 -0.9990784
vn -0.004422056 -0.149543 -0.9884422
vn -0.008844112 -0.1257369 -0.9920241
vn -0.5282346 -0.568393 0.6307911
vn 0.6116252 -0.09201258 0.7857786
vn -0.0009123253 -0.9999993 -0.0005170928
vn -0.0001581534 -0.9999986 -0.001114601
vn -0.0003163068 -0.9999974 -0.002229202
vn 0 -0.1163027 0.9932137
vn -0.9972823 0.06625132 0.03190978
vn -0.9973601 0.06339941 0.03540004
vn -0.9972045 0.06910323 0.02841953
vn 0.8805023 0.472192 0.0412278
vn 0.8787668 0.4759333 0.03544315
vn 0.8822378 0.4684506 0.04701244
vn -0.8679733 0.494819 0.03786296
vn -0.8767302 0.4799744 0.03111843
vn -0.8592165 0.5096636 0.04460748
vn 0.6792965 0.7329361 0.03686127
vn 0.6801653 0.7320952 0.03757067
vn 0.6784277 0.733777 0.03615186
vn -0.001601357 -0.1205814 0.9926914
vn 0 -0.1248607 0.9921741
vn -0.003202715 -0.1163021 0.9932086
vn 0 0.09778437 0.9952075
vn 0 0.04292007 0.9990784
vn 0.000771242 -0.1205048 0.992703
vn 0.001542484 -0.1247069 0.9921923
vn 0.6623269 -0.7492149 0

usemtl CarCaravan
f 3/3/1 2/2/1 1/1/1
f 6/6/4 5/5/4 2/2/4
f 1/9/5 3/8/5 4/7/5
f 11/14/7 10/13/7 9/12/7
f 14/12/10 13/17/10 11/16/10
f 10/20/11 9/19/11 12/18/11
f 17/23/14 6/6/14 4/4/14
f 5/29/15 6/27/15 20/28/15
f 13/31/15 14/30/15 20/28/15
f 2/2/19 5/5/19 23/34/19
f 1/1/20 2/2/20 23/34/20
f 5/29/21 20/28/21 24/35/21
f 3/8/54 29/65/54 32/66/54
f 13/17/14 21/71/14 12/70/14
f 11/16/58 9/73/58 37/72/58
f 14/12/19 11/16/19 37/72/19
f 20/28/59 14/30/59 24/35/59
f 41/87/78 40/86/78 38/85/78
f 39/88/78 41/87/78 38/85/78
f 39/88/79 38/85/79 10/20/79
f 6/6/13 2/2/3 3/3/2
f 3/3/2 4/4/3 6/6/13
f 3/8/6 1/9/5 7/10/6
f 7/10/6 29/65/54 3/8/6
f 8/11/6 4/7/5 3/8/6
f 3/8/6 32/66/54 8/11/6
f 13/17/57 12/15/9 10/13/8
f 10/13/8 11/14/9 13/17/57
f 15/21/12 9/19/11 10/20/12
f 10/20/12 38/85/79 15/21/12
f 10/20/12 12/18/11 16/22/12
f 16/22/12 39/88/79 10/20/12
f 17/24/15 19/26/16 18/25/15
f 18/25/15 6/27/17 17/24/15
f 20/28/15 6/27/15 18/25/15
f 18/25/15 13/31/15 20/28/15
f 21/32/15 13/31/17 18/25/15
f 18/25/15 22/33/18 21/32/15
f 5/29/22 24/35/23 25/36/22
f 25/36/22 23/37/15 5/29/22
f 24/40/24 26/39/25 7/38/24
f 7/38/24 25/41/26 24/40/24
f 24/40/27 27/43/28 15/42/27
f 15/42/27 26/39/29 24/40/27
f 19/44/30 8/46/31 28/45/30
f 28/45/30 18/47/32 19/44/30
f 22/48/33 18/47/34 28/45/33
f 28/45/33 16/49/35 22/48/33
f 1/9/36 4/7/36 17/50/36
f 17/50/36 23/51/36 1/9/36
f 29/52/37 7/38/38 26/39/37
f 26/39/37 30/53/39 29/52/37
f 32/55/40 31/54/41 28/45/40
f 28/45/40 8/46/42 32/55/40
f 35/58/43 34/57/43 33/56/43
f 33/56/43 36/59/43 35/58/43
f 36/61/44 33/60/45 29/52/44
f 29/52/44 30/53/46 36/61/44
f 31/54/47 32/55/48 34/62/47
f 34/62/47 35/63/49 31/54/47
f 17/50/50 4/7/51 8/11/50
f 8/11/50 19/64/52 17/50/50
f 34/67/53 32/66/53 29/65/53
f 29/65/53 33/68/53 34/67/53
f 1/9/55 23/51/36 25/69/55
f 25/69/55 7/10/56 1/9/55
f 27/74/60 24/35/61 14/30/60
f 14/30/60 37/75/15 27/74/60
f 9/19/62 37/77/62 21/76/62
f 21/76/62 12/18/62 9/19/62
f 38/78/63 30/53/64 26/39/63
f 26/39/63 15/42/65 38/78/63
f 39/79/66 16/49/67 28/45/66
f 28/45/66 31/54/68 39/79/66
f 35/58/43 36/59/43 40/80/43
f 40/80/43 41/81/43 35/58/43
f 36/61/69 30/53/70 38/78/69
f 38/78/69 40/82/71 36/61/69
f 31/54/72 35/63/73 41/83/72
f 41/83/72 39/79/74 31/54/72
f 21/76/75 22/84/76 16/22/75
f 16/22/75 12/18/77 21/76/75
f 9/19/80 15/21/81 27/89/80
f 27/89/80 37/77/62 9/19/80
f 44/92/10 43/91/10 42/90/10
f 42/90/10 45/93/10 44/92/10
f 47/96/82 46/95/82 43/94/82
f 43/94/82 44/97/82 47/96/82
f 49/93/4 48/90/4 46/91/4
f 46/91/4 47/92/4 49/93/4
f 46/97/43 48/98/43 42/90/43
f 42/90/43 43/91/43 46/97/43
f 49/100/15 47/99/15 44/92/15
f 44/92/15 45/93/15 49/100/15

g Tire_01
v -25.24301 3.553837 -42.85373 0.2288839 0.2288839 0.2288839
v -25.59647 4.040392 -42.85373 0.2288839 0.2288839 0.2288839
v -25.34068 3.854539 -42.85373 0.2288839 0.2288839 0.2288839
v -25.59647 3.067289 -42.85373 0.2288839 0.2288839 0.2288839
v -26.16847 3.854539 -42.85373 0.2288839 0.2288839 0.2288839
v -25.91268 4.040392 -42.85373 0.2288839 0.2288839 0.2288839
v -26.16847 3.253135 -42.85373 0.2288839 0.2288839 0.2288839
v -25.91268 3.067289 -42.85373 0.2288839 0.2288839 0.2288839
v -26.2662 3.553837 -42.85373 0.2288839 0.2288839 0.2288839
v -25.34068 3.253135 -42.85373 0.2288839 0.2288839 0.2288839
v -26.16847 3.854538 -43.05667 0.03155867 0.03155867 0.03155867
v -25.24301 3.553836 -43.05667 0.03155867 0.03155867 0.03155867
v -25.59647 4.040391 -43.05667 0.03155867 0.03155867 0.03155867
v -25.59647 3.067288 -43.05667 0.03155867 0.03155867 0.03155867
v -26.16847 3.253134 -43.05667 0.03155867 0.03155867 0.03155867
v -25.91268 4.040391 -43.05667 0.03155867 0.03155867 0.03155867
v -26.2662 3.553836 -43.05667 0.03155867 0.03155867 0.03155867
v -25.91268 3.067288 -43.05667 0.03155867 0.03155867 0.03155867
v -25.34068 3.253134 -43.05667 0.03155867 0.03155867 0.03155867
v -25.34068 3.854538 -43.05667 0.03155867 0.03155867 0.03155867

vt 0.703125 0.816327
vt 0.40625 0.530612
vt 0.515625 0.734694
vt 1 0.530612
vt 0.515625 0.081633
vt 0.40625 0.285714
vt 0.890625 0.081633
vt 1 0.285714
vt 0.703125 0
vt 0.890625 0.755102
vt 0.4596778 0.1861205
vt 0.9963036 0.4178925
vt 0.791352 0.04287067
vt 0.791352 0.7929087
vt 0.4596778 0.649664
vt -0.4138224 0.8161931
vt -0.1282292 0.9995013
vt -0.1282292 0.8161925
vt -0.4138224 0.9995013
vt -0.6994137 0.8161931
vt -0.6994137 0.9995012
vt -0.9850045 0.8161931
vt -0.9850045 0.9995012
vt -1.270594 0.8161931
vt -1.270594 0.9995012
vt -1.556211 0.8161931
vt -1.556211 0.9995012
vt -1.8418 0.8161931
vt -1.8418 0.9995012
vt -2.127375 0.8161931
vt -2.127375 0.9995012
vt -2.412951 0.8161931
vt -2.412951 0.9995012
vt -2.698543 0.8161925
vt -2.698543 0.9995012
vt 0.1573877 0.9995013
vt 0.1573877 0.8161925
vt 0.9396729 0.649664
vt 0.6079991 0.7929087
vt 0.9396729 0.1861205
vt 0.403015 0.4178925
vt 0.6079991 0.04287067

vn 1.986232E-06 4.32453E-06 0.6235399
vn 0 -3.679421E-06 -0.6235399
vn -0.3665168 0.5044477 -2.976675E-06
vn -0.5930122 0.1927139 -1.137178E-06
vn -0.593012 -0.1927143 1.13718E-06
vn -0.366508 -0.5044541 2.976712E-06
vn 0 -0.6235399 3.679421E-06
vn 0.3665086 -0.5044537 2.97671E-06
vn 0.5930442 -0.1926152 1.136595E-06
vn 0.5044795 0.3664731 -2.162506E-06
vn 0.5930443 0.1926149 -1.136593E-06
vn 0.3665174 0.5044473 -2.976672E-06
vn 0 0.6235399 -3.679421E-06

usemtl tire1
f 52/103/83 51/102/83 50/101/83
f 55/106/83 54/105/83 51/102/83
f 53/104/83 56/107/83 57/108/83
f 58/109/83 56/107/83 54/105/83
f 62/113/84 61/112/84 60/111/84
f 68/138/84 63/114/84 61/112/84
f 67/139/84 64/115/84 63/114/84
f 69/140/84 61/112/84 62/113/84
f 64/115/84 66/141/84 60/111/84
f 60/111/84 65/142/84 62/113/84
f 59/110/83 50/101/83 51/102/83
f 51/102/83 53/104/83 59/110/83
f 53/104/83 51/102/83 54/105/83
f 54/105/83 56/107/83 53/104/83
f 60/111/84 61/112/84 63/114/84
f 63/114/84 64/115/84 60/111/84
f 54/116/85 55/118/85 65/117/85
f 65/117/85 60/119/85 54/116/85
f 58/120/86 54/116/86 60/119/86
f 60/119/86 66/121/86 58/120/86
f 56/122/87 58/120/87 66/121/87
f 66/121/87 64/123/87 56/122/87
f 57/124/88 56/122/88 64/123/88
f 64/123/88 67/125/88 57/124/88
f 53/126/89 57/124/89 67/125/89
f 67/125/89 63/127/89 53/126/89
f 59/128/90 53/126/90 63/127/90
f 63/127/90 68/129/90 59/128/90
f 50/130/91 59/128/91 68/129/91
f 68/129/91 61/131/91 50/130/91
f 52/132/92 50/130/93 61/131/93
f 61/131/93 69/133/92 52/132/92
f 51/134/94 52/132/92 69/133/92
f 69/133/92 62/135/94 51/134/94
f 55/118/95 51/137/95 62/136/95
f 62/136/95 65/117/95 55/118/95

g Tire_02
v -26.26616 3.553837 -45.05727 0.2288839 0.2288839 0.2288839
v -25.9127 4.040392 -45.05726 0.2288839 0.2288839 0.2288839
v -26.16849 3.854539 -45.05727 0.2288839 0.2288839 0.2288839
v -25.9127 3.067289 -45.05727 0.2288839 0.2288839 0.2288839
v -25.34069 3.854539 -45.05726 0.2288839 0.2288839 0.2288839
v -25.59649 4.040392 -45.05726 0.2288839 0.2288839 0.2288839
v -25.34069 3.253135 -45.05726 0.2288839 0.2288839 0.2288839
v -25.59649 3.067289 -45.05727 0.2288839 0.2288839 0.2288839
v -25.24297 3.553837 -45.05726 0.2288839 0.2288839 0.2288839
v -26.16849 3.253135 -45.05727 0.2288839 0.2288839 0.2288839
v -25.34069 3.854538 -44.85432 0.03155867 0.03155867 0.03155867
v -26.26616 3.553836 -44.85432 0.03155867 0.03155867 0.03155867
v -25.9127 4.040391 -44.85432 0.03155867 0.03155867 0.03155867
v -25.9127 3.067288 -44.85432 0.03155867 0.03155867 0.03155867
v -25.34069 3.253134 -44.85432 0.03155867 0.03155867 0.03155867
v -25.59649 4.040391 -44.85432 0.03155867 0.03155867 0.03155867
v -25.24297 3.553836 -44.85432 0.03155867 0.03155867 0.03155867
v -25.59649 3.067288 -44.85432 0.03155867 0.03155867 0.03155867
v -26.16849 3.253134 -44.85432 0.03155867 0.03155867 0.03155867
v -26.16849 3.854538 -44.85432 0.03155867 0.03155867 0.03155867

vt 0.703125 0.816327
vt 0.40625 0.530612
vt 0.515625 0.734694
vt 1 0.530612
vt 0.515625 0.081633
vt 0.40625 0.285714
vt 0.890625 0.081633
vt 1 0.285714
vt 0.703125 0
vt 0.890625 0.755102
vt 0.4596778 0.1861205
vt 0.9963036 0.4178925
vt 0.791352 0.04287067
vt 0.791352 0.7929087
vt 0.4596778 0.649664
vt -0.4138224 0.8161931
vt -0.1282292 0.9995013
vt -0.1282292 0.8161925
vt -0.4138224 0.9995013
vt -0.6994137 0.8161931
vt -0.6994137 0.9995012
vt -0.9850045 0.8161931
vt -0.9850045 0.9995012
vt -1.270594 0.8161931
vt -1.270594 0.9995012
vt -1.556211 0.8161931
vt -1.556211 0.9995012
vt -1.8418 0.8161931
vt -1.8418 0.9995012
vt -2.127375 0.8161931
vt -2.127375 0.9995012
vt -2.412951 0.8161931
vt -2.412951 0.9995012
vt -2.698543 0.8161925
vt -2.698543 0.9995012
vt 0.1573877 0.9995013
vt 0.1573877 0.8161925
vt 0.9396729 0.649664
vt 0.6079991 0.7929087
vt 0.9396729 0.1861205
vt 0.403015 0.4178925
vt 0.6079991 0.04287067

vn 1.693189E-06 4.32453E-06 -0.6235399
vn -3.679421E-06 -3.679421E-06 0.6235399
vn 0.3665168 0.5044477 5.139439E-06
vn 0.5930122 0.1927139 4.636458E-06
vn 0.593012 -0.1927143 2.3621E-06
vn 0.366508 -0.5044541 -8.140008E-07
vn 2.120556E-11 -0.6235399 -3.679421E-06
vn -0.3665086 -0.5044537 -5.139425E-06
vn -0.5930442 -0.1926152 -4.636065E-06
vn -0.5044795 0.3664731 -8.14356E-07
vn -0.5930443 0.1926149 -2.362878E-06
vn -0.3665174 0.5044473 8.139052E-07
vn -2.120556E-11 0.6235399 3.679421E-06

usemtl tire1
f 72/145/96 71/144/96 70/143/96
f 75/148/96 74/147/96 71/144/96
f 73/146/96 76/149/96 77/150/96
f 78/151/96 76/149/96 74/147/96
f 82/155/97 81/154/97 80/153/97
f 88/180/97 83/156/97 81/154/97
f 87/181/97 84/157/97 83/156/97
f 89/182/97 81/154/97 82/155/97
f 84/157/97 86/183/97 80/153/97
f 80/153/97 85/184/97 82/155/97
f 79/152/96 70/143/96 71/144/96
f 71/144/96 73/146/96 79/152/96
f 73/146/96 71/144/96 74/147/96
f 74/147/96 76/149/96 73/146/96
f 80/153/97 81/154/97 83/156/97
f 83/156/97 84/157/97 80/153/97
f 74/158/98 75/160/98 85/159/98
f 85/159/98 80/161/98 74/158/98
f 78/162/99 74/158/99 80/161/99
f 80/161/99 86/163/99 78/162/99
f 76/164/100 78/162/100 86/163/100
f 86/163/100 84/165/100 76/164/100
f 77/166/101 76/164/101 84/165/101
f 84/165/101 87/167/101 77/166/101
f 73/168/102 77/166/102 87/167/102
f 87/167/102 83/169/102 73/168/102
f 79/170/103 73/168/103 83/169/103
f 83/169/103 88/171/103 79/170/103
f 70/172/104 79/170/104 88/171/104
f 88/171/104 81/173/104 70/172/104
f 72/174/105 70/172/106 81/173/106
f 81/173/106 89/175/105 72/174/105
f 71/176/107 72/174/105 89/175/105
f 89/175/105 82/177/107 71/176/107
f 75/160/108 71/179/108 82/178/108
f 82/178/108 85/159/108 75/160/108

