# ProBuilder 5.2.2
# https://unity3d.com/unity/features/worldbuilding/probuilder
# 15.10.2024 13.50.32

mtllib ./CassetteRecorder.mtl
o CassetteRecorder

g CassetteRecorderModel
v -23.20098 -0.06000005 -0.7973337
v -23.20098 -0.06000009 0.3333498
v -23.20098 0.0466666 0.3333498
v -23.20098 0.04666664 -0.7973337
v -23.84941 -0.05999998 0.3333497
v -23.84941 0.04666672 0.3333497
v -23.84941 -0.05999994 -0.7973338
v -23.84941 0.04666675 -0.7973338

vt 0.8571429 0
vt 0.8571429 0.7154471
vt 0.9831933 0.7154471
vt 0.9831933 0
vt 0.4537815 0.8536586
vt 0 0.8536586
vt 0 0.9268293
vt 0.4537815 0.9268293
vt 0.7478992 0.8536586
vt 0 0.7317073
vt 0.7478992 0.7317073
vt 0 1
vt 0.4537815 1
vt 0.4285714 0
vt 0.4285714 0.7073171
vt 0.8571429 0.7073171
vt 0 0
vt 0 0.7073171

vn 0.2 -3.576279E-08 3.371749E-08
vn -3.371749E-08 -6.983113E-09 0.2
vn -0.2 3.576279E-08 -3.371749E-08
vn 3.371749E-08 6.983113E-09 -0.2
vn -3.57628E-08 -0.2 4.07006E-08
vn 3.57628E-08 0.2 -4.07006E-08

usemtl CassetteRecorder
f 4/4/1 3/3/1 2/2/1 1/1/1
f 3/8/2 6/7/2 5/6/2 2/5/2
f 6/11/3 8/10/3 7/6/3 5/9/3
f 8/13/4 4/12/4 1/7/4 7/8/4
f 5/1/5 7/16/5 1/15/5 2/14/5
f 3/14/6 4/15/6 8/18/6 6/17/6

