# ProBuilder 5.2.2
# https://unity3d.com/unity/features/worldbuilding/probuilder
# 15.10.2024 19.40.03

mtllib ./Dirty_Dishes.mtl
o Dirty Dishes

g Dirty Dishes
v -49.56184 1.145503 -49.55013 0.08060668 0.08060668 0.08060668
v -49.22184 1.625151 -50.14513 1 1 1
v -49.56184 1.625151 -49.55013 1 1 1
v -49.22184 1.145503 -50.14513 0.08060668 0.08060668 0.08060668
v -48.54184 1.625151 -50.14513 1 1 1
v -48.54184 1.145503 -50.14513 0.08060668 0.08060668 0.08060668
v -48.20184 1.625151 -49.55013 1 1 1
v -48.20184 1.145503 -49.55013 0.08060668 0.08060668 0.08060668
v -48.54184 1.625151 -48.95512 1 1 1
v -48.54184 1.145503 -48.95512 0.08060668 0.08060668 0.08060668
v -49.22184 1.625151 -48.95512 1 1 1
v -49.22184 1.145503 -48.95512 0.08060668 0.08060668 0.08060668
v -46.92684 1.145503 -49.89013 0.08060668 0.08060668 0.08060668
v -46.75684 1.145503 -49.55013 0.08060668 0.08060668 0.08060668
v -46.75684 1.400503 -49.55013 1 1 1
v -46.92684 1.400503 -49.89013 1 1 1
v -47.35184 1.145503 -49.89013 0.08060668 0.08060668 0.08060668
v -47.01184 1.740503 -49.89013 1 1 1
v -46.84184 1.825503 -49.55013 1 1 1
v -47.43684 1.655503 -49.89013 1 1 1
v -47.35184 1.400503 -49.89013 1 1 1
v -47.52184 1.145503 -49.55013 0.08060668 0.08060668 0.08060668
v -47.60684 1.655503 -49.55013 1 1 1
v -47.52184 1.400503 -49.55013 1 1 1
v -47.35184 1.145503 -49.21012 0.08060668 0.08060668 0.08060668
v -47.35184 1.400503 -49.21012 1 1 1
v -46.92684 1.145503 -49.21012 0.08060668 0.08060668 0.08060668
v -47.43684 1.655503 -49.21012 1 1 1
v -47.01184 1.740503 -49.21012 1 1 1
v -46.92684 1.400503 -49.21012 1 1 1
v -50.7986 1.145503 -49.29512 0.08060668 0.08060668 0.08060668
v -50.9516 1.145503 -49.63512 0.08060668 0.08060668 0.08060668
v -50.9516 1.400503 -49.63512 1 1 1
v -50.7986 1.400503 -49.29512 1 1 1
v -50.4161 1.145503 -49.29512 0.08060668 0.08060668 0.08060668
v -50.7221 1.740503 -49.29512 1 1 1
v -50.8751 1.825503 -49.63512 1 1 1
v -50.4161 1.400503 -49.29512 1 1 1
v -50.2631 1.145503 -49.63512 0.08060668 0.08060668 0.08060668
v -50.2631 1.400503 -49.63512 1 1 1
v -50.1866 1.655503 -49.63512 1 1 1
v -50.3396 1.655503 -49.29512 1 1 1
v -49.9571 1.825503 -49.63512 1 1 1
v -50.1101 1.910503 -49.29512 1 1 1
v -50.5691 2.080503 -49.29512 1 1 1
v -50.7221 2.165503 -49.63512 1 1 1
v -50.4161 1.145503 -49.97512 0.08060668 0.08060668 0.08060668
v -50.4161 1.400503 -49.97512 1 1 1
v -50.7986 1.145503 -49.97512 0.08060668 0.08060668 0.08060668
v -50.3396 1.655503 -49.97512 1 1 1
v -50.7986 1.400503 -49.97512 1 1 1
v -50.7221 1.740503 -49.97512 1 1 1
v -50.5691 2.080503 -49.97512 1 1 1
v -50.1101 1.910503 -49.97512 1 1 1
v -48.03185 1.145503 -49.55013 0.08060668 0.08060668 0.08060668
v -47.94684 1.620847 -49.72012 1 1 1
v -48.03185 1.620847 -49.55013 1 1 1
v -47.94684 1.145503 -49.72012 0.08060668 0.08060668 0.08060668
v -47.77684 1.620847 -49.72012 1 1 1
v -47.77684 1.145503 -49.72012 0.08060668 0.08060668 0.08060668
v -47.69184 1.620847 -49.55013 1 1 1
v -47.69184 1.145503 -49.55013 0.08060668 0.08060668 0.08060668
v -47.77684 1.620847 -49.38012 1 1 1
v -47.77684 1.145503 -49.38012 0.08060668 0.08060668 0.08060668
v -47.94684 1.620847 -49.38012 1 1 1
v -47.94684 1.145503 -49.38012 0.08060668 0.08060668 0.08060668

vt 0.7890625 0.5
vt 0.6328125 0.877193
vt 0.7890625 0.877193
vt 0.6328125 0.5
vt 0.484375 0.877193
vt 0.484375 0.5
vt 0.3203125 0.877193
vt 0.3203125 0.5
vt 0 0.3596491
vt 0.1796875 0.4912281
vt 0.3671875 0.368421
vt 0.3671875 0.1403509
vt 0 0.1403509
vt 0.1875 0.00877193
vt 0.7578125 0.1403509
vt 0.5703125 0.01754386
vt 0.390625 0.131579
vt 0.390625 0.368421
vt 0.7578125 0.368421
vt 0.5625 0.4736842
vt 0.109375 0.5
vt 0 0.5
vt 0 0.7543859
vt 0.109375 0.7543859
vt 0.2109375 0.5
vt 0.109375 1
vt 0 1
vt 0.2109375 1
vt 0.2109375 0.7543859
vt 0.3203125 1
vt 0.3203125 0.7543859
vt 0.3203125 0.7456141
vt 0.2109375 0.7456141
vt 0.109375 0.7456141
vt 0 0.7456141
vt 0.8828125 0.2631579
vt 0.78125 0.3333333
vt 0.78125 0.4736842
vt 0.8828125 0.5263158
vt 0.9921875 0.3333333
vt 0.9921875 0.4736842
vt 0.984375 0.2105263
vt 0.984375 0.07017544
vt 0.8828125 0.01754386
vt 0.7890625 0.2105263
vt 0.7890625 0.07017544
vt 0 0.6666667
vt 0.109375 0.6666667
vt 0.109375 0.8333333
vt 0 0.8333333
vt 0.2109375 0.6666667
vt 0.3203125 0.6666667
vt 0.3203125 0.8333333
vt 0.2109375 0.8333333
vt 0.109375 0.7807018
vt 0 0.7807018
vt 0.2109375 0.7807018
vt 0.3203125 0.7807018
vt 0.8515625 0.9035088
vt 0.9140625 0.8684211
vt 0.9140625 0.7894737
vt 0.8515625 0.7543859
vt 0.796875 0.8684211
vt 0.796875 0.7894737
vt 0.8515625 0.6315789
vt 0.796875 0.6666667
vt 0.796875 0.7280702
vt 0.8515625 0.7631579
vt 0.90625 0.6666667
vt 0.90625 0.7280702

vn -55.72689 -64.18351 1.530254E-05
vn -36.93603 42.5411 -63.64742
vn -55.72689 64.1835 -1.530254E-05
vn -27.90945 -64.28947 -48.09297
vn 27.90944 64.28946 -48.093
vn 36.93602 -42.54111 -63.6474
vn 55.72689 64.18351 -1.85048E-05
vn 55.72689 -64.1835 1.530254E-05
vn 36.93603 42.54112 63.64739
vn 27.90945 -64.28945 48.093
vn -27.90944 64.28947 48.09297
vn -36.93602 -42.5411 63.64742
vn 38.52497 -43.07223 -62.33471
vn 56.66669 -63.35529 1.510508E-05
vn 84.53431 8.878291 -0.3664781
vn 44.32381 5.472888 -72.32188
vn -28.95444 -64.74409 -46.84924
vn 14.08718 65.80602 -51.92424
vn 42.17748 73.70238 3.745557
vn -45.21873 29.65754 -65.57976
vn -44.05732 -7.186593 -72.33473
vn -56.66669 -63.3553 1.510508E-05
vn -71.3176 46.09733 -3.720648
vn -83.89129 -13.68426 4.078203E-07
vn -38.52497 -43.07222 62.33472
vn -44.0573 -7.186579 72.33474
vn 28.95444 -64.74407 46.84927
vn -40.20721 52.52441 53.38139
vn 26.43324 47.55661 65.30437
vn 43.96051 4.856758 72.58714
vn -39.65549 -43.48565 61.33064
vn -57.27448 -62.80639 1.403832E-05
vn -84.62077 8.013013 0.3520631
vn -45.83281 5.10303 71.40252
vn 29.67982 -65.09291 45.90239
vn -42.69162 13.68932 72.21519
vn -81.07552 25.52751 0.3360802
vn 45.5962 -6.71602 71.42052
vn 57.27448 -62.80637 1.403832E-05
vn 84.09273 -12.38632 1.554231E-06
vn 70.53218 -47.36103 -2.67436
vn 38.93811 -24.6974 71.40638
vn 82.78225 18.76565 -4.467313
vn 49.48671 16.50032 67.11046
vn -1.918953 71.45883 45.9887
vn -27.20012 80.52419 -1.007821
vn 39.65549 -43.48566 -61.33063
vn 45.59618 -6.716035 -71.42052
vn -29.67982 -65.09293 -45.90237
vn 41.21598 -23.36638 -70.57097
vn -45.49043 4.535719 -71.6593
vn -42.14525 14.0459 -72.46723
vn -19.15444 53.53504 -63.18319
vn 51.12599 43.41744 -52.21177
vn -85.00005 -1.01328E-05 -8.496606E-06
vn -44.68718 -1.39466E-05 -72.30536
vn 44.68718 -3.292341E-06 -72.30535
vn 85.00005 1.013279E-05 -9.912706E-06
vn 44.68721 1.39466E-05 72.30534
vn -44.68717 3.292342E-06 72.30535

usemtl DirtyDishes
f 5/11/5 2/10/2 3/9/3
f 11/13/11 9/14/9 7/12/7
f 4/17/4 6/16/6 8/15/8
f 10/19/10 12/20/12 1/18/1
f 17/38/17 13/37/13 14/36/14
f 27/40/27 25/41/25 22/39/22
f 18/43/18 20/42/20 23/36/23
f 28/45/28 29/46/29 19/44/19
f 49/38/49 47/37/47 39/36/39
f 35/40/35 31/41/31 32/39/32
f 54/43/54 53/42/53 46/36/46
f 45/45/45 44/46/44 43/44/43
f 59/61/57 56/60/56 57/59/55
f 57/59/55 61/62/58 59/61/57
f 57/59/55 65/63/60 61/62/58
f 65/63/60 63/64/59 61/62/58
f 58/67/56 60/66/57 62/65/58
f 62/65/58 55/68/55 58/67/56
f 62/65/58 64/69/59 55/68/55
f 64/69/59 66/70/60 55/68/55
f 1/1/1 3/3/3 2/2/2
f 2/2/2 4/4/4 1/1/1
f 4/4/4 2/2/2 5/5/5
f 5/5/5 6/6/6 4/4/4
f 6/6/6 5/5/5 7/7/7
f 7/7/7 8/8/8 6/6/6
f 8/8/8 7/7/7 9/5/9
f 9/5/9 10/6/10 8/8/8
f 10/6/10 9/5/9 11/2/11
f 11/2/11 12/4/12 10/6/10
f 12/4/12 11/2/11 3/3/3
f 3/3/3 1/1/1 12/4/12
f 11/13/11 7/12/7 5/11/5
f 5/11/5 3/9/3 11/13/11
f 10/19/10 1/18/1 4/17/4
f 4/17/4 8/15/8 10/19/10
f 15/23/15 14/22/14 13/21/13
f 13/21/13 16/24/16 15/23/15
f 16/24/16 13/21/13 17/25/17
f 17/25/17 21/29/21 16/24/16
f 15/23/15 16/24/16 18/26/18
f 18/26/18 19/27/19 15/23/15
f 20/28/20 18/26/18 16/24/16
f 16/24/16 21/29/21 20/28/20
f 21/29/21 17/25/17 22/8/22
f 22/8/22 24/31/24 21/29/21
f 23/30/23 20/28/20 21/29/21
f 21/29/21 24/31/24 23/30/23
f 24/32/24 22/8/22 25/25/25
f 25/25/25 26/33/26 24/32/24
f 26/33/26 25/25/25 27/21/27
f 27/21/27 30/34/30 26/33/26
f 24/32/24 26/33/26 28/28/28
f 28/28/28 23/30/23 24/32/24
f 29/26/29 28/28/28 26/33/26
f 26/33/26 30/34/30 29/26/29
f 30/34/30 27/21/27 14/22/14
f 14/22/14 15/35/15 30/34/30
f 19/27/19 29/26/29 30/34/30
f 30/34/30 15/35/15 19/27/19
f 27/40/27 22/39/22 17/38/17
f 17/38/17 14/36/14 27/40/27
f 28/45/28 19/44/19 18/43/18
f 18/43/18 23/36/23 28/45/28
f 33/47/33 32/22/32 31/21/31
f 31/21/31 34/48/34 33/47/33
f 34/48/34 31/21/31 35/25/35
f 35/25/35 38/51/38 34/48/34
f 33/47/33 34/48/34 36/49/36
f 36/49/36 37/50/37 33/47/33
f 38/51/38 35/25/35 39/8/39
f 39/8/39 40/52/40 38/51/38
f 38/51/38 40/52/40 41/53/41
f 41/53/41 42/54/42 38/51/38
f 34/48/34 38/51/38 42/54/42
f 42/54/42 36/49/36 34/48/34
f 42/54/42 41/53/41 43/30/43
f 43/30/43 44/28/44 42/54/42
f 36/49/36 42/54/42 44/28/44
f 44/28/44 45/26/45 36/49/36
f 37/50/37 36/49/36 45/26/45
f 45/26/45 46/27/46 37/50/37
f 40/52/40 39/8/39 47/25/47
f 47/25/47 48/51/48 40/52/40
f 48/51/48 47/25/47 49/21/49
f 49/21/49 51/48/51 48/51/48
f 40/52/40 48/51/48 50/54/50
f 50/54/50 41/53/41 40/52/40
f 51/48/51 49/21/49 32/22/32
f 32/22/32 33/47/33 51/48/51
f 51/48/51 33/47/33 37/50/37
f 37/50/37 52/49/52 51/48/51
f 48/51/48 51/48/51 52/49/52
f 52/49/52 50/54/50 48/51/48
f 52/49/52 37/50/37 46/27/46
f 46/27/46 53/26/53 52/49/52
f 50/54/50 52/49/52 53/26/53
f 53/26/53 54/28/54 50/54/50
f 41/53/41 50/54/50 54/28/54
f 54/28/54 43/30/43 41/53/41
f 35/40/35 32/39/32 49/38/49
f 49/38/49 39/36/39 35/40/35
f 45/45/45 43/44/43 54/43/54
f 54/43/54 46/36/46 45/45/45
f 55/22/55 57/56/55 56/55/56
f 56/55/56 58/21/56 55/22/55
f 58/21/56 56/55/56 59/57/57
f 59/57/57 60/25/57 58/21/56
f 60/25/57 59/57/57 61/58/58
f 61/58/58 62/8/58 60/25/57
f 62/8/58 61/58/58 63/57/59
f 63/57/59 64/25/59 62/8/58
f 64/25/59 63/57/59 65/55/60
f 65/55/60 66/21/60 64/25/59
f 66/21/60 65/55/60 57/56/55
f 57/56/55 55/22/55 66/21/60

