# ProBuilder 5.2.2
# https://unity3d.com/unity/features/worldbuilding/probuilder
# 14.10.2024 20.48.09

mtllib ./IceBox.mtl
o IceBox

g IceBox
v -66.6063 3.462027 -8.424379
v -63.40629 5.062025 -8.424395
v -66.6063 5.062025 -8.424379
v -63.40629 3.462027 -8.424395
v -66.6063 2.262026 -8.424379
v -63.40629 2.262026 -8.424395
v -63.40629 5.062025 -6.924395
v -63.40629 3.462027 -6.424395
v -63.40629 2.262026 -6.424395
v -66.6063 5.062025 -6.924379
v -66.6063 3.462027 -6.424379
v -66.6063 2.262026 -6.424379
v -65.80628 5.062025 -8.424387
v -64.20631 5.062025 -8.424387
v -64.20631 5.862024 -8.424387
v -65.80628 5.862028 -8.424387
v -64.20631 5.062025 -7.424387
v -64.20631 5.862024 -7.424387
v -65.80628 5.062025 -7.424387
v -65.80628 5.862028 -7.424387

vt 0.5078125 0.5078125
vt 0.2421875 1
vt 0.2421875 0.5078125
vt 0.5078125 1
vt 0.6953125 0.5078125
vt 0.6953125 1
vt 1 0.2578125
vt 0.7734375 0.5
vt 1 0.5
vt 0.6953125 0.2578125
vt 1 0.0703125
vt 0.6953125 0.0703125
vt 0.2421875 0
vt 0.5078125 0
vt 0.6953125 0
vt 1 0.6953125
vt 0.6953125 0.9375
vt 0.921875 0.9375
vt 0.6953125 0.6953125
vt 1 0.5078125
vt 0.125 1
vt 0.125 0.7578125
vt 0 0.7578125
vt 0 1
vt 0 0.5
vt 0 0
vt 0.2421875 0.5
vt 0.2421875 0.8359375
vt 0.125 0.8359375
vt 0.140625 0.7578125
vt 0.140625 0.5

vn -4.746013E-06 4.079993E-14 -0.9999999
vn 0.9999999 -3.724942E-09 9.933779E-09
vn 4.709684E-06 0.1508643 0.9885544
vn 4.546919E-06 0.2982752 0.9544798
vn 4.764639E-06 7.327395E-14 0.9999999
vn -0.9999999 9.933777E-09 -9.933779E-09
vn -7.449253E-09 0.9999999 1.665323E-14

usemtl icebox
f 4/4/1 1/1/1 3/3/1 2/2/1
f 6/6/1 5/5/1 1/1/1 4/4/1
f 8/10/2 4/7/2 2/9/2 7/8/2
f 9/12/2 6/11/2 4/7/2 8/10/2
f 11/14/3 8/1/3 7/3/4 10/13/4
f 12/15/5 9/5/5 8/1/3 11/14/3
f 1/19/6 11/16/6 10/18/6 3/17/6
f 5/5/6 12/20/6 11/16/6 1/19/6
f 16/24/1 15/23/1 14/22/1 13/21/1
f 2/27/7 3/13/7 10/26/7 7/25/7
f 15/29/2 18/21/2 17/2/2 14/28/2
f 18/24/5 20/23/5 19/22/5 17/21/5
f 20/21/6 16/29/6 13/28/6 19/2/6
f 15/31/7 16/30/7 20/23/7 18/25/7

