# ProBuilder 5.2.2
# https://unity3d.com/unity/features/worldbuilding/probuilder
# 15.10.2024 19.08.31

mtllib ./LampPost.mtl
o LampPost

g LampPost_On_36
v 55.55037 12.95761 76.97314 1 1 1
v 55.68 13.41215 76.97 1 1 1
v 55.68315 12.95761 77.09963 1 1 1
v 55.80963 12.95761 76.96685 1 1 1
v 55.67685 12.95761 76.84037 1 1 1
v 55.6741 12.09361 76.72694 1 0.7161707 0
v 55.92306 12.09361 76.9641 1 0.7161707 0
v 56.11211 12.7638 76.9595 1 0.7161707 0
v 55.66951 12.7638 76.5379 1 0.7161707 0
v 55.5916 7.956507 76.9486 0.2288839 0.2288839 0.2288839
v 55.65434 7.956507 76.88274 0.2288839 0.2288839 0.2288839
v 55.65433 12.09361 76.88274 1 0.7161707 0
v 55.5916 12.09361 76.9486 1 0.7161707 0
v 55.61727 7.956507 77.03586 0.2288839 0.2288839 0.2288839
v 55.61726 12.09361 77.03586 1 0.7161707 0
v 55.70567 7.956508 77.05726 0.2288839 0.2288839 0.2288839
v 55.70567 12.09361 77.05726 1 0.7161707 0
v 55.7684 7.956507 76.9914 0.2288839 0.2288839 0.2288839
v 55.7684 12.09361 76.9914 1 0.7161707 0
v 55.74273 7.956507 76.90414 0.2288839 0.2288839 0.2288839
v 55.74273 12.09361 76.90414 1 0.7161707 0
v 55.43694 12.09361 76.9759 1 0.7161707 0
v 55.24789 12.7638 76.98049 1 0.7161707 0
v 55.6859 12.09361 77.21306 1 0.7161707 0
v 55.69049 12.7638 77.40211 1 0.7161707 0
v 55.62867 6.899999 76.79549 0 0 0
v 55.80547 6.899999 76.83829 0 0 0
v 55.5032 6.899999 76.9272 0 0 0
v 55.55453 6.899999 77.10172 0 0 0
v 55.73133 6.899999 77.14452 0 0 0
v 55.8568 6.899999 77.0128 0 0 0

vt 0.7611941 0.171875
vt 1 0.1484375
vt 0.7611941 0.125
vt 0.7611941 0.21875
vt 1 0.1953125
vt 0.7611941 0.265625
vt 1 0.2421875
vt 0.7611941 0.3125
vt 1 0.2890625
vt 0.2686567 0.7421875
vt 0.2686567 0.828125
vt 0.5820895 0.859375
vt 0.5820895 0.7109375
vt 0.04477612 0
vt 0 0
vt 0 1
vt 0.04477612 1
vt 0.08955224 0
vt 0.08955224 1
vt 0.1343284 0
vt 0.1343284 1
vt 0.1791045 0
vt 0.1791045 1
vt 0.2238806 0
vt 0.2238806 1
vt 0.2686567 0
vt 0.2686567 1
vt 0.2686567 0.59375
vt 0.2686567 0.6796875
vt 0.5820895 0.5625
vt 0.2686567 0.296875
vt 0.2686567 0.3828125
vt 0.5820895 0.4140625
vt 0.5820895 0.265625
vt 0.2686567 0.4453125
vt 0.2686567 0.53125
vt 0.7462686 0.40625
vt 0.9253731 0.40625
vt 0.9253731 0.3125
vt 0.7462686 0.3125
vt 0.2686567 0.9296875
vt 0.3731343 1
vt 0.4477612 1
vt 0.5522388 0.9296875
vt 0.8358209 0.9296875
vt 0.7313433 0.859375
vt 0.6567164 0.859375
vt 0.6567164 1
vt 0.7313433 1
vt 0.4477612 0.859375
vt 0.3731343 0.859375
vt 0.2686567 0.15625
vt 0.2686567 0.1953125
vt 0.7611941 0.1875
vt 0.7611941 0.1640625
vt 0.2686567 0.0390625
vt 0.7611941 0.03125
vt 0.7611941 0.0078125
vt 0.2686567 0.234375
vt 0.7611941 0.2265625
vt 0.7611941 0.203125
vt 0.2686567 0.078125
vt 0.2686567 0.1171875
vt 0.7611941 0.109375
vt 0.7611941 0.0859375
vt 0.7611941 0.0703125
vt 0.7611941 0.046875
vt 0.7611941 0.1484375

vn -1.352221 0.3954808 1.41954
vn 1.352221 0.3954798 -1.41954
vn 1.41954 0.3954805 1.352221
vn -1.41954 0.3954789 -1.352222
vn 1.352796 -0.3913274 -1.420143
vn -1.448134 -7.748604E-07 -1.37946
vn -1.918714 2.552289E-08 0.5643912
vn -0.4705799 8.003833E-07 1.943851
vn 1.448134 7.748604E-07 1.37946
vn 1.918714 -2.552289E-08 -0.5643912
vn 0.4705799 -8.003833E-07 -1.943851
vn -1.420143 -0.391327 -1.352796
vn 1.420143 -0.3913255 1.352796
vn -1.352796 -0.3913262 1.420143
vn 4.768372E-07 -2 9.536743E-07
vn -0.9722574 1.482215 -0.9261507
vn -0.9261495 1.482217 0.9722557
vn 0.9261487 1.482216 -0.972257
vn 0.9722566 1.482216 0.9261492
vn 0.4692774 0.1486986 -1.938471
vn -1.444126 0.1486986 -1.375642
vn -1.913403 0.1486994 0.5628291
vn -0.4692774 0.1487002 1.938471
vn 1.444126 0.1487001 1.375641
vn 1.913403 0.1486993 -0.5628292

usemtl LampPostON_1
f 3/3/1 2/2/1 1/1/1
f 5/1/2 2/5/2 4/4/2
f 4/4/3 2/7/3 3/6/3
f 1/6/4 2/9/4 5/8/4
f 8/12/5 7/11/5 6/10/5
f 9/13/5 8/12/5 6/10/5
f 12/16/6 11/15/6 10/14/6
f 13/17/6 12/16/6 10/14/6
f 13/17/7 10/14/7 14/18/7
f 15/19/7 13/17/7 14/18/7
f 15/19/8 14/18/8 16/20/8
f 17/21/8 15/19/8 16/20/8
f 17/21/9 16/20/9 18/22/9
f 19/23/9 17/21/9 18/22/9
f 19/23/10 18/22/10 20/24/10
f 21/25/10 19/23/10 20/24/10
f 21/25/11 20/24/11 11/26/11
f 12/27/11 21/25/11 11/26/11
f 9/13/12 6/29/12 22/28/12
f 23/30/12 9/13/12 22/28/12
f 25/33/13 24/32/13 7/31/13
f 8/34/13 25/33/13 7/31/13
f 23/30/14 22/36/14 24/35/14
f 25/33/14 23/30/14 24/35/14
f 24/39/15 22/38/15 6/37/15
f 7/40/15 24/39/15 6/37/15
f 1/43/16 5/42/16 9/41/16
f 23/44/16 1/43/16 9/41/16
f 3/47/17 1/46/17 23/45/17
f 25/44/17 3/47/17 23/45/17
f 5/49/18 4/48/18 8/44/18
f 9/45/18 5/49/18 8/44/18
f 4/51/19 3/50/19 25/44/19
f 8/41/19 4/51/19 25/44/19
f 20/54/20 27/53/20 26/52/20
f 11/55/20 20/54/20 26/52/20
f 11/57/21 26/56/21 28/26/21
f 10/58/21 11/57/21 28/26/21
f 10/60/22 28/59/22 29/53/22
f 14/61/22 10/60/22 29/53/22
f 14/64/23 29/63/23 30/62/23
f 16/65/23 14/64/23 30/62/23
f 16/66/24 30/62/24 31/56/24
f 18/67/24 16/66/24 31/56/24
f 18/68/25 31/52/25 27/63/25
f 20/3/25 18/68/25 27/63/25

