# ProBuilder 5.2.2
# https://unity3d.com/unity/features/worldbuilding/probuilder
# 15.10.2024 19.29.04

mtllib ./LargeScreen.mtl
o LargeScreen

g LargeScreen
v 106.0744 70.07399 74.06475 1 1 1
v 128.9383 70.07399 74.06482 1 1 1
v 128.9383 70.07399 74.69543 1 1 1
v 106.0743 70.07399 74.69537 1 1 1
v 106.0744 59.58701 74.06476 1 1 1
v 106.0744 59.58701 74.69537 1 1 1
v 128.9383 59.58701 74.06483 1 1 1
v 128.9383 59.58701 74.69543 1 1 1
v 128.4729 59.95933 74.69543 1 1 1
v 106.5398 59.95933 74.69537 1 1 1
v 128.4729 69.70167 74.69543 1 1 1
v 106.5397 69.70167 74.69537 1 1 1
v 128.3994 59.83419 74.06482 1 1 1
v 128.3994 69.82681 74.06482 1 1 1
v 106.6133 69.82681 74.06476 1 1 1
v 106.6133 59.83419 74.06476 1 1 1

vt 0.484375 0.9765625
vt 0.484375 0.0234375
vt 0.4609375 0.0234375
vt 0.4609375 0.9765625
vt 0.0234375 1
vt 0.4609375 1
vt 0.0234375 0.9765625
vt 0 0.0234375
vt 0 0.9765625
vt 0.0234375 0.0234375
vt 0.4609375 0
vt 0.0234375 0
vt 0.0390625 0.046875
vt 0.0390625 0.953125
vt 0.4453125 0.046875
vt 0.4453125 0.953125
vt -0.1688481 -0.07744534
vt -0.1688481 0.07744543
vt -0.1608885 -0.07379453
vt -0.1608886 0.07379466
vt 0.1688481 0.07744535
vt 0.1608886 0.0737946
vt 0.1688481 -0.0774454
vt 0.1608886 -0.0737946

vn -1.643167E-05 67.70566 -8.071217E-06
vn -67.70567 -1.302715E-05 -0.0003066433
vn 1.195031E-05 -67.70566 8.071187E-06
vn 67.70567 -2.279752E-05 0.0002524836
vn -0.0001987946 -2.683025E-06 67.70566
vn 0.0001567862 2.339207E-06 -67.70566

usemtl LargeScreen
f 4/4/1 3/3/1 2/2/1 1/1/1
f 6/7/2 4/4/2 1/6/2 5/5/2
f 8/10/3 6/7/3 5/9/3 7/8/3
f 3/3/4 8/10/4 7/12/4 2/11/4
f 10/14/5 6/7/5 8/10/5 9/13/5
f 3/3/5 11/15/5 9/13/5 8/10/5
f 12/16/5 4/4/5 6/7/5 10/14/5
f 4/4/5 12/16/5 11/15/5 3/3/5
f 13/19/6 14/20/6 2/18/6 7/17/6
f 14/20/6 15/22/6 1/21/6 2/18/6
f 15/22/6 16/24/6 5/23/6 1/21/6
f 16/24/6 13/19/6 7/17/6 5/23/6

