# ProBuilder 5.2.2
# https://unity3d.com/unity/features/worldbuilding/probuilder
# 15.10.2024 16.03.40

mtllib ./Mattress.mtl
o Mattress

g Mattress2
v 352.1039 -0.9123341 24.15227
v 350.171 -0.9123341 24.16585
v 350.171 -0.4676205 24.16585
v 352.1039 -0.4676205 24.15227
v 352.3507 -0.9123371 19.54449
v 352.353 -0.9123343 23.87403
v 352.353 -0.4676206 23.87403
v 352.3507 -0.4676234 19.54449
v 352.104 -0.4676237 19.27658
v 350.1721 -0.4676235 19.28657
v 349.9237 -0.4676233 19.55705
v 349.9254 -0.4676205 23.88656
v 349.9254 -0.9123343 23.88656
v 349.9237 -0.912337 19.55705
v 350.1721 -0.9123372 19.28657
v 352.104 -0.9123373 19.27659

vt 1 0.6953125
vt 1 0.296875
vt 0.8533334 0.296875
vt 0.8533334 0.6953125
vt 1 0.953125
vt 1 0.046875
vt 0.8533334 0.046875
vt 0.8533334 0.953125
vt 0.7733333 1
vt 0.7733333 0
vt 0.08 1
vt 0.08 0
vt 0 0.953125
vt 0 0.046875
vt 1 1
vt 0.8533334 1
vt 0.8533334 0
vt 1 0

vn 0.00421525 4.575187E-07 0.5999853
vn 0.6 -1.374567E-10 -0.0003117784
vn -2.437595E-08 0.6000001 -3.914197E-07
vn -0.6 1.430496E-10 0.0002377366
vn -0.003101241 -2.645243E-07 -0.5999921
vn -0.4505662 2.384113E-07 0.3962199
vn -0.441908 -3.094838E-07 -0.4058539
vn 0.4413693 -2.146848E-07 -0.4064397
vn 0.4470698 3.051426E-07 0.4001608
vn -1.333044E-08 -0.6000001 3.92366E-07

usemtl Mattress_(2)
f 3/3/1 2/2/1 1/1/1
f 4/4/1 3/3/1 1/1/1
f 7/7/2 6/6/2 5/5/2
f 8/8/2 7/7/2 5/5/2
f 7/7/3 8/8/3 9/9/3
f 9/9/3 4/10/3 7/7/3
f 10/11/3 11/13/3 3/12/3
f 11/13/3 12/14/3 3/12/3
f 11/7/4 14/6/4 13/5/4
f 12/8/4 11/7/4 13/5/4
f 9/3/5 16/2/5 15/1/5
f 10/4/5 9/3/5 15/1/5
f 12/8/6 13/5/6 2/15/6
f 3/16/6 12/8/6 2/15/6
f 14/6/7 11/7/7 10/17/7
f 15/18/7 14/6/7 10/17/7
f 16/15/8 9/16/8 8/8/8
f 5/5/8 16/15/8 8/8/8
f 6/6/9 7/7/9 4/17/9
f 1/18/9 6/6/9 4/17/9
f 5/7/10 6/8/10 1/9/10
f 1/9/10 16/10/10 5/7/10
f 2/11/10 13/13/10 15/12/10
f 13/13/10 14/14/10 15/12/10
f 4/10/3 9/9/3 10/11/3
f 10/11/3 3/12/3 4/10/3
f 16/10/10 1/9/10 2/11/10
f 2/11/10 15/12/10 16/10/10

