# ProBuilder 5.2.2
# https://unity3d.com/unity/features/worldbuilding/probuilder
# 16.10.2024 12.35.01

mtllib ./MopBucket.mtl
o MopBucket

g MopBucket
v 0.33695 0.5989313 -1.049282
v 0.473529 0.8366913 -1.168163
v 0.2003708 0.8366913 -1.168163
v 0.2003708 0.8366913 -0.5737625
v 0.473529 0.8366913 -0.5737625
v 0.3369501 0.5989313 -0.6926423
v 0.6576979 0.8366913 -0.5737625
v 0.4520447 0.5342713 -0.5737626
v 0.6576979 0.8366913 -1.168163
v 0.4520447 0.5342714 -1.168163
v -0.4199379 0.8366913 -0.4014515
v 0.2443446 0.8366913 -0.4014515
v 0.2443446 -3.666728E-08 -0.5057875
v -0.3689432 -3.666728E-08 -0.5057875
v -0.6576979 0.8366913 -0.6926423
v -0.5472632 -8.51345E-08 -0.6926424
v -0.6576977 0.8366914 -1.049283
v -0.5472632 -4.272447E-09 -1.049283
v -0.4199379 0.8366913 -1.340473
v -0.3689431 -5.273968E-08 -1.236137
v 0.1059334 1.431091 -1.168162
v 0.1059334 1.431091 -0.5737625
v 0.6576979 1.431091 -1.168162
v 0.6576979 1.431091 -0.5737625
v 0.5389981 1.193331 -0.4869137
v 0.5389982 1.668851 -0.4869137
v 0.5389982 1.668851 -0.4036977
v 0.5389981 1.193331 -0.4036977
v 0.5389981 1.074451 -0.5737626
v 0.5389981 0.9555712 -0.5737625
v 0.414089 -3.261565E-08 -0.5737627
v 0.414089 -5.679129E-08 -1.168163
v 0.2443446 -5.273968E-08 -1.236137
v 0.2443446 0.8366913 -1.340473
v 0.5303307 1.979685 -0.652613
v 0.5303307 1.979685 -0.5693972
v 0.5865501 1.668851 -0.4453056
v 0.5778825 1.979685 -0.6110051
v 0.4827786 1.979685 -0.6110051
v 0.491446 1.668851 -0.4453056
v 0.5865501 1.193331 -0.4453056
v 0.491446 1.193331 -0.4453056
v 0.5865501 1.015011 -0.5737625
v 0.491446 1.015011 -0.5737625
v -0.3163151 -0.23776 -0.6213145
v -0.4894645 -0.23776 -0.6213145
v -0.4894645 -8.938598E-08 -0.6213145
v -0.3163151 -8.938598E-08 -0.6213145
v -0.316315 -0.2377599 -1.12061
v -0.4894645 -0.2377599 -1.12061
v -0.4894645 -5.962562E-08 -1.12061
v -0.316315 -5.962562E-08 -1.12061
v 0.4631155 -0.23776 -0.5559306
v 0.2899661 -0.23776 -0.5559306
v 0.2899661 -3.367852E-08 -0.5559306
v 0.4631155 -3.367852E-08 -0.5559306
v 0.4631155 -0.2377599 -1.185995
v 0.2899661 -0.2377599 -1.185995
v 0.2899661 -5.572841E-08 -1.185995
v 0.4631155 -5.572841E-08 -1.185995

vt 0.421875 0.65625
vt 0.421875 0.7734375
vt 0.53125 0.7734375
vt 0.53125 0.65625
vt 0.1796875 0.7734375
vt 0.1015625 0.6640625
vt 0.1015625 0.7734375
vt 0.4375 0.65625
vt 0.671875 0.65625
vt 0.671875 0.328125
vt 0.4375 0.328125
vt 0.3359375 0.65625
vt 0.3359375 0.328125
vt 0.109375 0.65625
vt 0.109375 0.328125
vt 0.0078125 0.65625
vt 0.0078125 0.328125
vt 0.4296875 0.7734375
vt 0.2109375 1
vt 0.4296875 1
vt 0.2109375 0.7734375
vt 0.40625 0.7734375
vt 0.25 0.65625
vt 0.3671875 0.65625
vt 0.0390625 0.7734375
vt 0 1
vt 0.6484375 0.7734375
vt 0.6484375 1
vt 1 0.6328125
vt 1 0.7890625
vt 0.9375 0.7890625
vt 0.9375 0.6328125
vt 1 0.4921875
vt 0.9375 0.4921875
vt 0.109375 0
vt 0.0078125 0
vt 0.3359375 0
vt 0.4375 0
vt 0.671875 0
vt 1 1
vt 0.9375 1
vt 0.71875 1
vt 0.71875 0.7734375
vt 0.9296875 0.359375
vt 0.7265625 0.2890625
vt 0.796875 0.359375
vt 1 0.2890625
vt 0.7265625 0.0625
vt 1 0.0625
vt 0.75 0
vt 0.9765625 0
vt 0.0859375 0.65625
vt 0 0.65625
vt 0 0.7734375
vt 0.0859375 0.7734375
vt 0.4296875 0.65625
vt 0.3828125 0.7734375
vt 0.6015625 0.65625

vn 0 -0.4472145 -0.8944268
vn 0 -0.447213 0.8944275
vn 0 -1.970922E-07 1
vn 0 -0.1237423 0.9923143
vn -0.744334 -0.1100709 0.6573798
vn -0.7685079 -0.125088 0.6274939
vn -0.7201601 -0.09505381 0.6872658
vn -0.9914016 -0.1308547 -3.571516E-07
vn -0.7439784 -0.1154014 -0.6568984
vn -0.7705751 -0.1017078 -0.6291816
vn -0.7173817 -0.129095 -0.6846152
vn -0.9876128 -0.1569106 7.867258E-09
vn -0.8671156 -0.4981071 4.994868E-08
vn 0 2.00554E-07 -1
vn 1 0 0
vn -1 2.506927E-07 0
vn 0.4848428 -0.07882439 0.8603683
vn 0.3692894 -0.1149955 0.9221721
vn 0.6003963 -0.04265327 0.7985643
vn 0.9974861 -0.07086309 4.994052E-09
vn 0.4848015 -0.06279078 -0.8616797
vn 0.3716238 -0.02640077 -0.928008
vn 0.5979792 -0.09918079 -0.7953514
vn 0 -0.1237422 -0.9923145
vn -0.9996114 -0.02787416 -7.986121E-08
vn 0 -0.4704147 -0.8824455
vn 0 0.584504 -0.8113908
vn 0 -1 1.00277E-07
vn 0.8671161 -0.4981061 4.994858E-08

usemtl Material.001
f 3/3/1 2/2/1 1/1/1
f 6/4/2 5/3/2 4/2/2
f 5/7/3 8/6/3 7/5/3
f 2/7/3 10/6/3 9/5/3
f 3/21/13 1/23/13 4/22/13
f 1/23/13 6/24/13 4/22/13
f 27/31/16 26/30/16 25/29/16
f 28/32/16 27/31/16 25/29/16
f 25/29/16 29/33/16 28/32/16
f 29/33/16 30/34/16 28/32/16
f 36/31/25 35/30/25 26/40/25
f 27/41/25 36/31/25 26/40/25
f 39/40/26 38/41/26 37/31/26
f 40/30/26 39/40/26 37/31/26
f 37/31/14 41/32/14 40/30/14
f 41/32/14 42/29/14 40/30/14
f 41/32/27 43/34/27 42/29/27
f 43/34/27 44/33/27 42/29/27
f 9/43/28 7/42/28 5/28/28
f 2/27/28 9/43/28 5/28/28
f 18/46/28 20/45/28 16/44/28
f 20/45/28 14/47/28 16/44/28
f 33/48/28 32/50/28 13/49/28
f 32/50/28 31/51/28 13/49/28
f 47/54/3 46/53/3 45/52/3
f 48/55/3 47/54/3 45/52/3
f 51/54/3 50/53/3 49/52/3
f 52/55/3 51/54/3 49/52/3
f 55/54/3 54/53/3 53/52/3
f 56/55/3 55/54/3 53/52/3
f 59/54/3 58/53/3 57/52/3
f 60/55/3 59/54/3 57/52/3
f 2/27/29 5/57/29 6/56/29
f 1/58/29 2/27/29 6/56/29
f 13/10/4 12/9/4 11/8/4
f 11/8/4 14/11/4 13/10/4
f 14/11/5 11/8/6 15/12/5
f 15/12/5 16/13/7 14/11/5
f 16/13/8 15/12/8 17/14/8
f 17/14/8 18/15/8 16/13/8
f 18/15/9 17/14/10 19/16/9
f 19/16/9 20/17/11 18/15/9
f 4/18/12 22/20/12 21/19/12
f 21/19/12 3/21/12 4/18/12
f 23/19/14 9/21/14 3/25/14
f 3/25/14 21/26/14 23/19/14
f 22/26/3 4/25/3 7/21/3
f 7/21/3 24/19/3 22/26/3
f 24/20/15 7/18/15 9/27/15
f 9/27/15 23/28/15 24/20/15
f 12/17/17 13/36/18 31/35/17
f 31/35/17 5/15/19 12/17/17
f 5/15/20 31/35/20 32/37/20
f 32/37/20 2/13/20 5/15/20
f 2/13/21 32/37/22 33/38/21
f 33/38/21 34/11/23 2/13/21
f 34/11/24 33/38/24 20/39/24
f 20/39/24 19/10/24 34/11/24
f 14/47/28 20/45/28 33/48/28
f 33/48/28 13/49/28 14/47/28

