# ProBuilder 5.2.2
# https://unity3d.com/unity/features/worldbuilding/probuilder
# 16.10.2024 12.41.58

mtllib ./sink.mtl
o sink

g sink
v 0.1474999 0.9568984 -0.05899573
v 0.1474999 1.074898 0.02949787
v 0.1474999 0.9568983 0.1179986
v 0.7965003 0.4258981 0.9734999
v 0.7965003 0.0718981 0.9734999
v -0.6194991 0.0718981 0.9734999
v -0.6194991 0.4258981 0.9734999
v -0.7965003 0.4258982 0.7375029
v -0.7965003 0.07189818 0.7375029
v -0.7965003 0.07189848 -0.7374957
v -0.7965003 0.4258985 -0.7374957
v -0.6194991 0.4258986 -0.9734995
v -0.6194991 0.07189852 -0.9734998
v 0.7965003 0.07189852 -0.9734998
v 0.7965003 0.4258986 -0.9734995
v 0.3835003 0.1308985 -0.7964985
v 0.5015006 0.1308985 -0.6194973
v 0.5015006 0.1308983 0.6194974
v 0.3835003 0.1308982 0.7964987
v -0.5015006 0.1308985 -0.7964985
v -0.5015006 0.1308982 0.7964987
v -0.6194991 0.1308985 -0.6194973
v -0.6194991 0.1308983 0.6194974
v 0.5015006 0.4258982 0.6195045
v 0.5015006 0.4258985 -0.6194971
v 0.3835003 0.4258982 0.7964987
v -0.5015006 0.4258982 0.7964987
v 0.3835003 0.4258985 -0.7964983
v -0.5015006 0.4258985 -0.7964983
v -0.6194991 0.4258985 -0.6194971
v -0.6194991 0.4258982 0.6195045
v 0.7965003 -0.3411016 2.77692E-07
v 0.7965003 0.4258983 0.1179986
v 0.6195009 0.4258983 0.1179986
v 0.6195009 0.7798983 0.1179986
v 0.7965003 0.8978984 0.1179987
v 0.7965003 0.8978983 -0.05899567
v 0.6195009 0.7798983 -0.05899544
v 0.6195009 0.4258983 -0.05899546
v 0.7965003 0.4258983 -0.05899546
v 0.7965003 -1.074898 0.07556658
v 0.5671077 -0.1573304 0.2314959
v 0.7965003 -0.1573303 0.07556658
v 0.5671077 -1.074898 0.2314959
v 0.4141798 -0.1573303 0.0785697
v 0.4141798 -1.074898 0.0785697
v 0.4906447 -0.1573302 -0.1538262
v 0.4906447 -1.074898 -0.1538262
v 0.7965003 -0.1573302 -0.05092831
v 0.7965003 -1.074898 -0.0509283
v 0.7965003 0.9568983 0.02949786

vt 0.7421875 0.4765625
vt 0.75 0.4921875
vt 0.7578125 0.4765625
vt 0.5390625 1
vt 0.609375 1
vt 0.609375 0.734375
vt 0.5390625 0.734375
vt 0.5390625 0.6875
vt 0.609375 0.6875
vt 0.609375 0.3984375
vt 0.5390625 0.3984375
vt 0.5390625 0.3515625
vt 0.609375 0.3515625
vt 0.609375 0.0859375
vt 0.5390625 0.0859375
vt 0.6484375 0.9296875
vt 0.6796875 0.9453125
vt 0.890625 0.9453125
vt 0.921875 0.9296875
vt 0.6484375 0.7578125
vt 0.921875 0.7578125
vt 0.6796875 0.7421875
vt 0.890625 0.7421875
vt 0.9609375 0.8046875
vt 1 0.640625
vt 0.9609375 0.640625
vt 1 0.8046875
vt 1 0.828125
vt 0.9609375 0.828125
vt 0.9609375 0.9609375
vt 1 0.9609375
vt 0.9609375 0.984375
vt 0.9609375 1
vt 1 1
vt 1 0.984375
vt 1 0.8515625
vt 0.9609375 0.8515625
vt 1 0.6796875
vt 0.9609375 0.6796875
vt 0.0078125 0.9921875
vt 0.2109375 1
vt 0.0234375 0.7265625
vt 0.078125 0.6953125
vt 0.3515625 0.6953125
vt 0.390625 0.7265625
vt 0.3984375 0.9921875
vt 0.828125 0.3984375
vt 0.8046875 0.3984375
vt 0.8046875 0.4375
vt 0.828125 0.453125
vt 0.7421875 0.4609375
vt 0.7421875 0.453125
vt 0.8359375 0.546875
vt 0.8359375 0.6640625
vt 0.890625 0.6640625
vt 0.890625 0.546875
vt 0.890625 0.484375
vt 0.8359375 0.484375
vt 0.53125 0.484375
vt 0.359375 0.4375
vt 0.359375 0.484375
vt 0.53125 0.4375
vt 0.359375 0.390625
vt 0.53125 0.390625
vt 0.359375 0.34375
vt 0.53125 0.34375
vt 0.359375 0.28125
vt 0.53125 0.28125
vt 0.296875 0.328125
vt 0.34375 0.359375
vt 0.328125 0.28125
vt 0.828125 0.4921875
vt 0.828125 0.4765625
vt 0.7421875 0.4921875
vt 0.828125 0.5078125
vt 0.7421875 0.5078125
vt 0.609375 0.7421875
vt 0.640625 0.9375
vt 0.640625 0.765625
vt 0.671875 0.7421875
vt 0.6484375 0.703125
vt 0.671875 0.953125
vt 0.8984375 0.953125
vt 0.9140625 0.703125
vt 0.8984375 0.7421875
vt 0.9296875 0.9375
vt 0.9296875 0.765625
vt 0.9609375 0.7421875

vn -1 0 0
vn 0 -5.960464E-08 1
vn -0.7999943 -3.576324E-08 0.6000076
vn -0.8000029 2.378108E-07 -0.5999962
vn 0 7.331034E-07 -1
vn -1.804031E-07 1 1.798728E-07
vn -0.8320464 6.645585E-06 -0.554706
vn -0.8320515 -4.81369E-07 0.5546983
vn 0.8320554 -4.81364E-07 0.5546926
vn 1 0 0
vn 0.8320503 6.645696E-06 -0.5547002
vn 0 -0.9205818 0.3905497
vn -0.09355076 -0.9464238 0.2654392
vn -0.1871015 -0.9722658 0.1403286
vn -0.250962 -0.967997 -1.946057E-07
vn -0.1871034 -0.9722659 -0.1403263
vn -0.0935517 -0.9464238 -0.2654381
vn 0 -0.9205818 -0.3905499
vn -0.3511228 -0.9363294 -3.71128E-07
vn 0.5621678 4.428493E-09 0.8270231
vn -0.7071029 3.78639E-09 0.7071106
vn -0.9499029 -1.673596E-09 -0.3125452
vn 0.3188649 -5.075215E-09 -0.9478002
vn 0 -1 -5.960464E-08
vn 0.09193671 0.7130736 0.6741979
vn 0.07542547 0.8296826 0.5531164
vn 0.1084479 0.5964645 0.7952793
vn 0.1020193 0.7108768 -0.6736605
vn 0.1495764 0.8226714 -0.5484877
vn 0.05446212 0.5990822 -0.7988331

usemtl Sink
f 3/3/1 2/2/1 1/1/1
f 18/18/6 17/17/6 16/16/6
f 16/16/6 19/19/6 18/18/6
f 10/44/15 32/41/15 9/43/15
f 36/50/2 3/51/2 35/49/2
f 38/49/5 1/52/5 37/50/5
f 50/65/24 41/70/24 44/69/24
f 29/79/6 28/78/6 12/77/6
f 28/78/6 15/5/6 12/77/6
f 26/86/6 27/87/6 4/33/6
f 27/87/6 7/88/6 4/33/6
f 6/6/2 5/5/2 4/4/2
f 4/4/2 7/7/2 6/6/2
f 6/6/3 7/7/3 8/8/3
f 8/8/3 9/9/3 6/6/3
f 10/10/1 9/9/1 8/8/1
f 8/8/1 11/11/1 10/10/1
f 10/10/4 11/11/4 12/12/4
f 12/12/4 13/13/4 10/10/4
f 14/14/5 13/13/5 12/12/5
f 12/12/5 15/15/5 14/14/5
f 19/19/6 16/16/6 20/20/6
f 20/20/6 21/21/6 19/19/6
f 21/21/6 20/20/6 22/22/6
f 22/22/6 23/23/6 21/21/6
f 24/24/1 25/26/1 17/25/1
f 17/25/1 18/27/1 24/24/1
f 24/24/7 18/27/7 19/28/7
f 19/28/7 26/29/7 24/24/7
f 27/30/5 26/29/5 19/28/5
f 19/28/5 21/31/5 27/30/5
f 17/34/8 25/33/8 28/32/8
f 28/32/8 16/35/8 17/34/8
f 20/36/2 16/35/2 28/32/2
f 28/32/2 29/37/2 20/36/2
f 20/36/9 29/37/9 30/29/9
f 30/29/9 22/28/9 20/36/9
f 23/38/10 22/28/10 30/29/10
f 30/29/10 31/39/10 23/38/10
f 23/38/11 31/39/11 27/26/11
f 27/26/11 21/25/11 23/38/11
f 9/43/14 32/41/13 5/40/12
f 5/40/12 6/42/13 9/43/14
f 14/46/18 32/41/17 10/44/16
f 10/44/16 13/45/17 14/46/18
f 35/49/2 34/48/2 33/47/2
f 33/47/2 36/50/2 35/49/2
f 39/48/5 38/49/5 37/50/5
f 37/50/5 40/47/5 39/48/5
f 3/55/19 1/54/19 38/53/19
f 38/53/19 35/56/19 3/55/19
f 34/57/1 35/56/1 38/53/1
f 38/53/1 39/58/1 34/57/1
f 41/59/20 43/61/20 42/60/20
f 42/60/20 44/62/20 41/59/20
f 44/62/21 42/60/21 45/63/21
f 45/63/21 46/64/21 44/62/21
f 46/64/22 45/63/22 47/65/22
f 47/65/22 48/66/22 46/64/22
f 48/66/23 47/65/23 49/67/23
f 49/67/23 50/68/23 48/66/23
f 46/71/24 48/67/24 50/65/24
f 50/65/24 44/69/24 46/71/24
f 3/1/25 36/73/26 51/72/25
f 51/72/25 2/74/27 3/1/25
f 2/74/28 51/72/29 37/75/28
f 37/75/28 1/76/30 2/74/28
f 30/80/6 29/79/6 12/77/6
f 12/77/6 11/81/6 30/80/6
f 24/83/6 15/5/6 28/78/6
f 28/78/6 25/82/6 24/83/6
f 30/80/6 11/81/6 8/84/6
f 8/84/6 31/85/6 30/80/6
f 26/86/6 4/33/6 15/5/6
f 15/5/6 24/83/6 26/86/6
f 27/87/6 31/85/6 8/84/6
f 8/84/6 7/88/6 27/87/6

