# ProBuilder 5.2.2
# https://unity3d.com/unity/features/worldbuilding/probuilder
# 15.10.2024 18.47.21

mtllib ./Table2.mtl
o Table2

g Table2
v 1379.45 59.3901 -55.66211
v 1379.45 59.3901 -58.26969
v 1379.45 59.72895 -58.26969
v 1379.45 59.72895 -55.66211
v 1387.273 59.3901 -58.26969
v 1387.273 59.72895 -58.26969
v 1387.273 59.3901 -55.66211
v 1387.273 59.72895 -55.66211
v 1386.296 59.3901 -57.27881
v 1386.296 59.3901 -56.65299
v 1386.296 58.09044 -56.65299
v 1386.296 58.09044 -57.27881
v 1386.296 57.91788 -57.90463
v 1386.296 57.91788 -56.02717
v 1386.296 57.71596 -57.90463
v 1386.296 57.71597 -56.02717
v 1386.49 59.3901 -56.65299
v 1386.49 58.09044 -56.65299
v 1386.49 57.91788 -56.02717
v 1386.49 59.3901 -57.27881
v 1386.49 58.09044 -57.27881
v 1386.49 57.91788 -57.90463
v 1386.49 57.71597 -56.02717
v 1386.49 57.71596 -57.90463
v 1380.232 59.3901 -57.27881
v 1380.232 59.3901 -56.65299
v 1380.232 58.09044 -56.65299
v 1380.232 58.09044 -57.27881
v 1380.232 57.91788 -57.90463
v 1380.232 57.91788 -56.02717
v 1380.232 57.71596 -57.90463
v 1380.232 57.71597 -56.02717
v 1380.427 59.3901 -56.65299
v 1380.427 58.09044 -56.65299
v 1380.427 57.91788 -56.02717
v 1380.427 59.3901 -57.27881
v 1380.427 58.09044 -57.27881
v 1380.427 57.91788 -57.90463
v 1380.427 57.71597 -56.02717
v 1380.427 57.71596 -57.90463
v 1379.841 58.04504 -57.05978
v 1386.881 58.04504 -57.05978
v 1386.881 58.26255 -57.05978
v 1379.841 58.26255 -57.05978
v 1386.881 58.04504 -56.87204
v 1386.881 58.26255 -56.87204
v 1379.841 58.04504 -56.87204
v 1379.841 58.26255 -56.87204
v 1381.273 58.26255 -57.05978
v 1383.025 59.3933 -57.05978
v 1382.642 59.3901 -57.05978
v 1380.896 58.26255 -57.05978
v 1383.025 59.3933 -56.87204
v 1381.273 58.26255 -56.87204
v 1380.896 58.26255 -56.87204
v 1382.642 59.3901 -56.87204
v 1385.501 58.26255 -56.87204
v 1383.749 59.3933 -56.87204
v 1384.133 59.3901 -56.87204
v 1385.879 58.26255 -56.87204
v 1383.749 59.3933 -57.05978
v 1385.501 58.26255 -57.05978
v 1385.879 58.26255 -57.05978
v 1384.133 59.3901 -57.05978

vt 1 0.9609375
vt 0.6640625 0.9609375
vt 0.6640625 1
vt 1 1
vt 1 0.909641
vt 0 0.9140625
vt 0 0.9609375
vt 0 0.5625
vt 0.9999998 0.909641
vt 0.9999998 0.56197
vt 1 0.5619702
vt 0.1796875 0.546875
vt 0.375 0.546875
vt 0.375 0.1640625
vt 0.1796875 0.1640625
vt 0 0.1171875
vt 0.5625 0.1171875
vt 0 0.046875
vt 0.5625 0.046875
vt 0.3828125 0.5
vt 0.3828125 0.4296875
vt 0.7421875 0.4296875
vt 0.7421875 0.5
vt 0.9296875 0.5
vt 0.9296875 0.4296875
vt 1 0.5
vt 1 0.4296875
vt 0.9921875 0.921875
vt 0.0078125 0.921875
vt 0 0.953125
vt 1 0.953125
vt 1 0.921875
vt 0 0.921875
vt 0.0078125 0.953125
vt 0.9921875 0.953125
vt 0.171875 0.9609375
vt 0.6328125 0.9609375
vt 0.5625 0.9140625
vt 0.1015625 0.9140625
vt 0.1015625 0.9609375
vt 0.5625 0.9609375
vt 0.6328125 0.9140625
vt 0.171875 0.9140625

vn -52.15155 0 0
vn 0 -2.175932E-05 -52.15155
vn 52.15155 0 0
vn 0 2.175932E-05 52.15155
vn 0 -52.15155 2.175932E-05
vn 0 52.15155 -2.175932E-05
vn 0 31.59787 41.48925
vn 0 31.59784 -41.48928
vn 28.28142 -43.81718 1.828195E-05
vn -28.29185 43.81045 -1.827914E-05
vn -28.28142 -43.81718 1.828195E-05
vn 28.29185 43.81045 -1.827914E-05

usemtl Table2
f 12/15/1 13/16/1 11/14/1
f 13/16/1 14/17/1 11/14/1
f 18/15/3 19/16/3 21/14/3
f 19/16/3 22/17/3 21/14/3
f 28/15/1 29/16/1 27/14/1
f 29/16/1 30/17/1 27/14/1
f 34/15/3 35/16/3 37/14/3
f 35/16/3 38/17/3 37/14/3
f 3/3/1 2/2/1 1/1/1
f 1/1/1 4/4/1 3/3/1
f 6/7/2 5/6/2 2/5/2
f 2/5/2 3/1/2 6/7/2
f 8/3/3 7/2/3 5/1/3
f 5/1/3 6/4/3 8/3/3
f 4/7/4 1/6/4 7/5/4
f 7/5/4 8/1/4 4/7/4
f 7/9/5 1/6/5 2/8/5
f 2/8/5 5/10/5 7/9/5
f 4/5/6 8/6/6 6/8/6
f 6/8/6 3/11/6 4/5/6
f 11/14/1 10/13/1 9/12/1
f 9/12/1 12/15/1 11/14/1
f 14/17/1 13/16/1 15/18/1
f 15/18/1 16/19/1 14/17/1
f 18/22/7 17/21/4 10/20/4
f 10/20/4 11/23/7 18/22/7
f 18/22/7 11/23/7 14/24/7
f 14/24/7 19/25/7 18/22/7
f 21/14/3 20/13/3 17/12/3
f 17/12/3 18/15/3 21/14/3
f 22/17/3 19/16/3 23/18/3
f 23/18/3 24/19/3 22/17/3
f 12/22/8 9/21/2 20/20/2
f 20/20/2 21/23/8 12/22/8
f 12/22/8 21/23/8 22/24/8
f 22/24/8 13/25/8 12/22/8
f 24/27/2 15/26/2 13/24/8
f 13/24/8 22/25/8 24/27/2
f 16/27/4 23/26/4 19/24/7
f 19/24/7 14/25/7 16/27/4
f 27/14/1 26/13/1 25/12/1
f 25/12/1 28/15/1 27/14/1
f 30/17/1 29/16/1 31/18/1
f 31/18/1 32/19/1 30/17/1
f 34/22/7 33/21/4 26/20/4
f 26/20/4 27/23/7 34/22/7
f 34/22/7 27/23/7 30/24/7
f 30/24/7 35/25/7 34/22/7
f 37/14/3 36/13/3 33/12/3
f 33/12/3 34/15/3 37/14/3
f 38/17/3 35/16/3 39/18/3
f 39/18/3 40/19/3 38/17/3
f 28/22/8 25/21/2 36/20/2
f 36/20/2 37/23/8 28/22/8
f 28/22/8 37/23/8 38/24/8
f 38/24/8 29/25/8 28/22/8
f 40/27/2 31/26/2 29/24/8
f 29/24/8 38/25/8 40/27/2
f 32/27/4 39/26/4 35/24/7
f 35/24/7 30/25/7 32/27/4
f 43/30/2 42/29/2 41/28/2
f 41/28/2 44/31/2 43/30/2
f 46/26/3 45/24/3 42/25/3
f 42/25/3 43/27/3 46/26/3
f 48/34/4 47/33/4 45/32/4
f 45/32/4 46/35/4 48/34/4
f 44/25/1 41/27/1 47/26/1
f 47/26/1 48/24/1 44/25/1
f 47/28/5 41/35/5 42/34/5
f 42/34/5 45/29/5 47/28/5
f 44/32/6 48/31/6 46/30/6
f 46/30/6 43/33/6 44/32/6
f 51/38/2 50/37/2 49/36/2
f 49/36/2 52/39/2 51/38/2
f 55/42/4 54/41/4 53/40/4
f 53/40/4 56/43/4 55/42/4
f 54/40/9 49/39/9 50/42/9
f 50/42/9 53/37/9 54/40/9
f 52/40/10 55/39/10 56/42/10
f 56/42/10 51/37/10 52/40/10
f 59/38/4 58/37/4 57/36/4
f 57/36/4 60/39/4 59/38/4
f 63/42/2 62/41/2 61/40/2
f 61/40/2 64/43/2 63/42/2
f 62/40/11 57/39/11 58/42/11
f 58/42/11 61/37/11 62/40/11
f 60/42/12 63/37/12 64/40/12
f 64/40/12 59/39/12 60/42/12

