# ProBuilder 5.2.2
# https://unity3d.com/unity/features/worldbuilding/probuilder
# 14.10.2024 20.56.43

mtllib ./Tire.mtl
o Tire

g Tire_02
v -19.14532 0.2103174 -27.03973 0.2288839 0.2288839 0.2288839
v -19.49878 0.6968736 -27.03973 0.2288839 0.2288839 0.2288839
v -19.24298 0.5110202 -27.03973 0.2288839 0.2288839 0.2288839
v -19.49878 -0.2762314 -27.03972 0.2288839 0.2288839 0.2288839
v -20.07079 0.5110202 -27.03973 0.2288839 0.2288839 0.2288839
v -19.81499 0.6968736 -27.03973 0.2288839 0.2288839 0.2288839
v -20.07079 -0.09038484 -27.03973 0.2288839 0.2288839 0.2288839
v -19.81499 -0.2762314 -27.03972 0.2288839 0.2288839 0.2288839
v -20.16851 0.2103174 -27.03973 0.2288839 0.2288839 0.2288839
v -19.24298 -0.09038484 -27.03973 0.2288839 0.2288839 0.2288839
v -20.07079 0.5110191 -27.24267 0.03155867 0.03155867 0.03155867
v -19.14532 0.2103162 -27.24267 0.03155867 0.03155867 0.03155867
v -19.49878 0.6968724 -27.24267 0.03155867 0.03155867 0.03155867
v -19.49878 -0.2762326 -27.24267 0.03155867 0.03155867 0.03155867
v -20.07079 -0.09038604 -27.24267 0.03155867 0.03155867 0.03155867
v -19.81499 0.6968724 -27.24267 0.03155867 0.03155867 0.03155867
v -20.16851 0.2103162 -27.24267 0.03155867 0.03155867 0.03155867
v -19.81499 -0.2762326 -27.24267 0.03155867 0.03155867 0.03155867
v -19.24298 -0.09038604 -27.24267 0.03155867 0.03155867 0.03155867
v -19.24298 0.5110191 -27.24267 0.03155867 0.03155867 0.03155867

vt 0.703125 0.816327
vt 0.40625 0.530612
vt 0.515625 0.734694
vt 1 0.530612
vt 0.515625 0.081633
vt 0.40625 0.285714
vt 0.890625 0.081633
vt 1 0.285714
vt 0.703125 0
vt 0.890625 0.755102
vt 0.4596778 0.1861205
vt 0.9963036 0.4178925
vt 0.791352 0.04287067
vt 0.791352 0.7929087
vt 0.4596778 0.649664
vt -0.4138224 0.8161931
vt -0.1282292 0.9995013
vt -0.1282292 0.8161925
vt -0.4138224 0.9995013
vt -0.6994137 0.8161931
vt -0.6994137 0.9995012
vt -0.9850045 0.8161931
vt -0.9850045 0.9995012
vt -1.270594 0.8161931
vt -1.270594 0.9995012
vt -1.556211 0.8161931
vt -1.556211 0.9995012
vt -1.8418 0.8161931
vt -1.8418 0.9995012
vt -2.127375 0.8161931
vt -2.127375 0.9995012
vt -2.412951 0.8161931
vt -2.412951 0.9995012
vt -2.698543 0.8161925
vt -2.698543 0.9995012
vt 0.1573877 0.9995013
vt 0.1573877 0.8161925
vt 0.9396729 0.649664
vt 0.6079991 0.7929087
vt 0.9396729 0.1861205
vt 0.403015 0.4178925
vt 0.6079991 0.04287067

vn 1.986237E-06 4.32454E-06 0.6235414
vn 0 -3.67943E-06 -0.6235414
vn -0.3665177 0.5044489 -2.976682E-06
vn -0.5930135 0.1927144 -1.13718E-06
vn -0.5930134 -0.1927148 1.137183E-06
vn -0.3665088 -0.5044553 2.97672E-06
vn 0 -0.6235414 3.67943E-06
vn 0.3665094 -0.5044549 2.976717E-06
vn 0.5930456 -0.1926157 1.136598E-06
vn 0.5044807 0.3664739 -2.162511E-06
vn 0.5930457 0.1926153 -1.136596E-06
vn 0.3665183 0.5044485 -2.97668E-06
vn 0 0.6235414 -3.67943E-06

usemtl tire1
f 3/3/1 2/2/1 1/1/1
f 6/6/1 5/5/1 2/2/1
f 4/4/1 7/7/1 8/8/1
f 9/9/1 7/7/1 5/5/1
f 13/13/2 12/12/2 11/11/2
f 19/38/2 14/14/2 12/12/2
f 18/39/2 15/15/2 14/14/2
f 20/40/2 12/12/2 13/13/2
f 15/15/2 17/41/2 11/11/2
f 11/11/2 16/42/2 13/13/2
f 10/10/1 1/1/1 2/2/1
f 2/2/1 4/4/1 10/10/1
f 4/4/1 2/2/1 5/5/1
f 5/5/1 7/7/1 4/4/1
f 11/11/2 12/12/2 14/14/2
f 14/14/2 15/15/2 11/11/2
f 5/16/3 6/18/3 16/17/3
f 16/17/3 11/19/3 5/16/3
f 9/20/4 5/16/4 11/19/4
f 11/19/4 17/21/4 9/20/4
f 7/22/5 9/20/5 17/21/5
f 17/21/5 15/23/5 7/22/5
f 8/24/6 7/22/6 15/23/6
f 15/23/6 18/25/6 8/24/6
f 4/26/7 8/24/7 18/25/7
f 18/25/7 14/27/7 4/26/7
f 10/28/8 4/26/8 14/27/8
f 14/27/8 19/29/8 10/28/8
f 1/30/9 10/28/9 19/29/9
f 19/29/9 12/31/9 1/30/9
f 3/32/10 1/30/11 12/31/11
f 12/31/11 20/33/10 3/32/10
f 2/34/12 3/32/10 20/33/10
f 20/33/10 13/35/12 2/34/12
f 6/18/13 2/37/13 13/36/13
f 13/36/13 16/17/13 6/18/13

