# ProBuilder 5.2.2
# https://unity3d.com/unity/features/worldbuilding/probuilder
# 15.10.2024 19.38.22

mtllib ./VendingMachine.mtl
o VendingMachine

g VendingMachine
v 105.5299 4.899525 -53.0636 0.05672634 0.05672634 0.05672634
v 103.5299 4.899525 -53.06359 0.05672634 0.05672634 0.05672634
v 103.5299 9.130219 -53.06359 1 1 1
v 105.5299 9.130219 -53.0636 1 1 1
v 103.5299 4.899525 -55.06359 0.05672634 0.05672634 0.05672634
v 103.5299 9.130219 -55.06359 1 1 1
v 105.5299 4.899525 -55.0636 0.05672634 0.05672634 0.05672634
v 105.5299 9.130219 -55.0636 1 1 1

vt 1 0
vt 0.5546875 0
vt 0.5546875 1
vt 1 1
vt 0 0
vt 0 1
vt 0.5546875 0.3359375
vt 0.5546875 0.7890625
vt 1 0.7890625
vt 1 0.3359375

vn 1.130907E-06 8.71193E-15 0.38804
vn -0.38804 4.28406E-08 -3.722216E-08
vn -1.220657E-06 2.177983E-15 -0.38804
vn 0.38804 -5.556898E-08 2.824695E-08
vn 0 0.38804 -4.625797E-08

usemtl VendingMachine
f 4/4/1 3/3/1 2/2/1 1/1/1
f 3/3/2 6/4/2 5/1/2 2/2/2
f 6/3/3 8/6/3 7/5/3 5/2/3
f 8/3/4 4/4/4 1/1/4 7/2/4
f 3/10/5 4/9/5 8/8/5 6/7/5

