# Blender 4.2.3 LTS
# www.blender.org
mtllib ShotgunShell.mtl
o SHELL
v -0.025998 0.179784 0.063296
v 0.027794 0.179784 0.063232
v -0.058566 0.179784 0.033453
v -0.060493 0.179784 -0.010678
v -0.025867 0.179784 -0.051844
v 0.027925 0.179784 -0.051908
v 0.060493 0.179784 -0.022065
v 0.062420 0.179784 0.022065
v -0.025998 0.000000 0.063296
v 0.027794 0.000000 0.063232
v -0.058566 0.000000 0.033453
v -0.060493 0.000000 -0.010678
v -0.025867 0.000000 -0.051844
v 0.027925 0.000000 -0.051908
v 0.060493 0.000000 -0.022065
v 0.062420 0.000000 0.022065
vn 0.9063 -0.0000 -0.4226
vn 0.3619 -0.0000 -0.9322
vn -0.4226 -0.0000 -0.9063
vn -0.3619 -0.0000 0.9322
vn 0.4226 -0.0000 0.9063
vn -0.9467 -0.0000 -0.3220
vn -0.9063 -0.0000 0.4226
vn 0.9467 -0.0000 0.3220
vn -0.0000 -1.0000 -0.0000
vn -0.0000 1.0000 -0.0000
vt 0.500000 0.531250
vt 1.000000 0.531250
vt 1.000000 0.406250
vt 0.500000 0.406250
vt 1.000000 0.265625
vt 0.500000 0.265625
vt 0.000000 0.406250
vt 0.000000 0.265625
vt 0.500000 0.140625
vt 1.000000 0.140625
vt 1.000000 0.015625
vt 0.500000 0.015625
vt 0.000000 0.140625
vt 0.000000 0.015625
vt 0.000000 0.531250
vt 0.906250 0.859375
vt 0.640625 0.968750
vt 0.906250 0.671875
vt 0.796875 0.968750
vt 0.343750 0.968750
vt 0.078125 0.671875
vt 0.453125 0.859375
vt 0.531250 0.859375
vt 0.640625 0.562500
vt 0.796875 0.562500
vt 0.531250 0.671875
vt 0.078125 0.859375
vt 0.187500 0.562500
vt 0.453125 0.671875
vt 0.343750 0.562500
vt 0.187500 0.968750
s 1
usemtl Material
f 7/1/1 15/2/1 14/3/2 6/4/2
f 6/4/2 14/3/2 13/5/3 5/6/3
f 1/4/4 9/7/4 10/8/5 2/6/5
f 4/9/6 12/10/6 11/11/7 3/12/7
f 8/9/8 16/13/8 15/14/1 7/12/1
f 2/6/5 10/8/5 16/13/8 8/9/8
f 3/1/7 11/15/7 9/7/4 1/4/4
f 5/6/3 13/5/3 12/10/6 4/9/6
f 14/16/9 16/17/9 13/18/9
f 15/19/9 16/17/9 14/16/9
f 4/20/10 2/21/10 5/22/10
f 13/18/9 16/17/9 10/23/9
f 11/24/9 12/25/9 9/26/9
f 9/26/9 12/25/9 10/23/9
f 12/25/9 13/18/9 10/23/9
f 4/20/10 1/27/10 2/21/10
f 8/28/10 6/29/10 5/22/10
f 8/28/10 7/30/10 6/29/10
f 2/21/10 8/28/10 5/22/10
f 4/20/10 3/31/10 1/27/10
